<svg width="644" height="226" viewBox="0 0 644 226" fill="none" xmlns="http://www.w3.org/2000/svg">
<g opacity="0.3">
<path d="M0.958 1.92C1.48709 1.92 1.916 1.49019 1.916 0.96C1.916 0.429807 1.48709 0 0.958 0C0.428911 0 0 0.429807 0 0.96C0 1.49019 0.428911 1.92 0.958 1.92Z" fill="#ECECFE"/>
<path d="M440.958 1.92C441.487 1.92 441.916 1.49019 441.916 0.96C441.916 0.429807 441.487 0 440.958 0C440.429 0 440 0.429807 440 0.96C440 1.49019 440.429 1.92 440.958 1.92Z" fill="#ECECFE"/>
<path d="M0.958 151.92C1.48709 151.92 1.916 151.49 1.916 150.96C1.916 150.43 1.48709 150 0.958 150C0.428911 150 0 150.43 0 150.96C0 151.49 0.428911 151.92 0.958 151.92Z" fill="#ECECFE"/>
<path d="M440.958 151.92C441.487 151.92 441.916 151.49 441.916 150.96C441.916 150.43 441.487 150 440.958 150C440.429 150 440 150.43 440 150.96C440 151.49 440.429 151.92 440.958 151.92Z" fill="#ECECFE"/>
<path d="M220.958 1.92C221.487 1.92 221.916 1.49019 221.916 0.96C221.916 0.429807 221.487 0 220.958 0C220.429 0 220 0.429807 220 0.96C220 1.49019 220.429 1.92 220.958 1.92Z" fill="#ECECFE"/>
<path d="M220.958 151.92C221.487 151.92 221.916 151.49 221.916 150.96C221.916 150.43 221.487 150 220.958 150C220.429 150 220 150.43 220 150.96C220 151.49 220.429 151.92 220.958 151.92Z" fill="#ECECFE"/>
<path d="M0.958 75.92C1.48709 75.92 1.916 75.4902 1.916 74.96C1.916 74.4298 1.48709 74 0.958 74C0.428911 74 0 74.4298 0 74.96C0 75.4902 0.428911 75.92 0.958 75.92Z" fill="#ECECFE"/>
<path d="M440.958 75.92C441.487 75.92 441.916 75.4902 441.916 74.96C441.916 74.4298 441.487 74 440.958 74C440.429 74 440 74.4298 440 74.96C440 75.4902 440.429 75.92 440.958 75.92Z" fill="#ECECFE"/>
<path d="M0.958 225.92C1.48709 225.92 1.916 225.49 1.916 224.96C1.916 224.43 1.48709 224 0.958 224C0.428911 224 0 224.43 0 224.96C0 225.49 0.428911 225.92 0.958 225.92Z" fill="#ECECFE"/>
<path d="M440.958 225.92C441.487 225.92 441.916 225.49 441.916 224.96C441.916 224.43 441.487 224 440.958 224C440.429 224 440 224.43 440 224.96C440 225.49 440.429 225.92 440.958 225.92Z" fill="#ECECFE"/>
<path d="M220.958 75.92C221.487 75.92 221.916 75.4902 221.916 74.96C221.916 74.4298 221.487 74 220.958 74C220.429 74 220 74.4298 220 74.96C220 75.4902 220.429 75.92 220.958 75.92Z" fill="#ECECFE"/>
<path d="M220.958 225.92C221.487 225.92 221.916 225.49 221.916 224.96C221.916 224.43 221.487 224 220.958 224C220.429 224 220 224.43 220 224.96C220 225.49 220.429 225.92 220.958 225.92Z" fill="#ECECFE"/>
<path d="M110.958 1.92C111.487 1.92 111.916 1.49019 111.916 0.96C111.916 0.429807 111.487 0 110.958 0C110.429 0 110 0.429807 110 0.96C110 1.49019 110.429 1.92 110.958 1.92Z" fill="#ECECFE"/>
<path d="M550.958 1.92C551.487 1.92 551.916 1.49019 551.916 0.96C551.916 0.429807 551.487 0 550.958 0C550.429 0 550 0.429807 550 0.96C550 1.49019 550.429 1.92 550.958 1.92Z" fill="#ECECFE"/>
<path d="M110.958 151.92C111.487 151.92 111.916 151.49 111.916 150.96C111.916 150.43 111.487 150 110.958 150C110.429 150 110 150.43 110 150.96C110 151.49 110.429 151.92 110.958 151.92Z" fill="#ECECFE"/>
<path d="M550.958 151.92C551.487 151.92 551.916 151.49 551.916 150.96C551.916 150.43 551.487 150 550.958 150C550.429 150 550 150.43 550 150.96C550 151.49 550.429 151.92 550.958 151.92Z" fill="#ECECFE"/>
<path d="M330.958 1.92C331.487 1.92 331.916 1.49019 331.916 0.96C331.916 0.429807 331.487 0 330.958 0C330.429 0 330 0.429807 330 0.96C330 1.49019 330.429 1.92 330.958 1.92Z" fill="#ECECFE"/>
<path d="M330.958 151.92C331.487 151.92 331.916 151.49 331.916 150.96C331.916 150.43 331.487 150 330.958 150C330.429 150 330 150.43 330 150.96C330 151.49 330.429 151.92 330.958 151.92Z" fill="#ECECFE"/>
<path d="M110.958 75.92C111.487 75.92 111.916 75.4902 111.916 74.96C111.916 74.4298 111.487 74 110.958 74C110.429 74 110 74.4298 110 74.96C110 75.4902 110.429 75.92 110.958 75.92Z" fill="#ECECFE"/>
<path d="M550.958 75.92C551.487 75.92 551.916 75.4902 551.916 74.96C551.916 74.4298 551.487 74 550.958 74C550.429 74 550 74.4298 550 74.96C550 75.4902 550.429 75.92 550.958 75.92Z" fill="#ECECFE"/>
<path d="M110.958 225.92C111.487 225.92 111.916 225.49 111.916 224.96C111.916 224.43 111.487 224 110.958 224C110.429 224 110 224.43 110 224.96C110 225.49 110.429 225.92 110.958 225.92Z" fill="#ECECFE"/>
<path d="M550.958 225.92C551.487 225.92 551.916 225.49 551.916 224.96C551.916 224.43 551.487 224 550.958 224C550.429 224 550 224.43 550 224.96C550 225.49 550.429 225.92 550.958 225.92Z" fill="#ECECFE"/>
<path d="M330.958 75.92C331.487 75.92 331.916 75.4902 331.916 74.96C331.916 74.4298 331.487 74 330.958 74C330.429 74 330 74.4298 330 74.96C330 75.4902 330.429 75.92 330.958 75.92Z" fill="#ECECFE"/>
<path d="M330.958 225.92C331.487 225.92 331.916 225.49 331.916 224.96C331.916 224.43 331.487 224 330.958 224C330.429 224 330 224.43 330 224.96C330 225.49 330.429 225.92 330.958 225.92Z" fill="#ECECFE"/>
<path d="M0.958 38.92C1.48709 38.92 1.916 38.4902 1.916 37.96C1.916 37.4298 1.48709 37 0.958 37C0.428911 37 0 37.4298 0 37.96C0 38.4902 0.428911 38.92 0.958 38.92Z" fill="#ECECFE"/>
<path d="M440.958 38.92C441.487 38.92 441.916 38.4902 441.916 37.96C441.916 37.4298 441.487 37 440.958 37C440.429 37 440 37.4298 440 37.96C440 38.4902 440.429 38.92 440.958 38.92Z" fill="#ECECFE"/>
<path d="M0.958 188.92C1.48709 188.92 1.916 188.49 1.916 187.96C1.916 187.43 1.48709 187 0.958 187C0.428911 187 0 187.43 0 187.96C0 188.49 0.428911 188.92 0.958 188.92Z" fill="#ECECFE"/>
<path d="M440.958 188.92C441.487 188.92 441.916 188.49 441.916 187.96C441.916 187.43 441.487 187 440.958 187C440.429 187 440 187.43 440 187.96C440 188.49 440.429 188.92 440.958 188.92Z" fill="#ECECFE"/>
<path d="M220.958 38.92C221.487 38.92 221.916 38.4902 221.916 37.96C221.916 37.4298 221.487 37 220.958 37C220.429 37 220 37.4298 220 37.96C220 38.4902 220.429 38.92 220.958 38.92Z" fill="#ECECFE"/>
<path d="M220.958 188.92C221.487 188.92 221.916 188.49 221.916 187.96C221.916 187.43 221.487 187 220.958 187C220.429 187 220 187.43 220 187.96C220 188.49 220.429 188.92 220.958 188.92Z" fill="#ECECFE"/>
<path d="M0.958 112.92C1.48709 112.92 1.916 112.49 1.916 111.96C1.916 111.43 1.48709 111 0.958 111C0.428911 111 0 111.43 0 111.96C0 112.49 0.428911 112.92 0.958 112.92Z" fill="#ECECFE"/>
<path d="M440.958 112.92C441.487 112.92 441.916 112.49 441.916 111.96C441.916 111.43 441.487 111 440.958 111C440.429 111 440 111.43 440 111.96C440 112.49 440.429 112.92 440.958 112.92Z" fill="#ECECFE"/>
<path d="M220.958 112.92C221.487 112.92 221.916 112.49 221.916 111.96C221.916 111.43 221.487 111 220.958 111C220.429 111 220 111.43 220 111.96C220 112.49 220.429 112.92 220.958 112.92Z" fill="#ECECFE"/>
<path d="M110.958 38.92C111.487 38.92 111.916 38.4902 111.916 37.96C111.916 37.4298 111.487 37 110.958 37C110.429 37 110 37.4298 110 37.96C110 38.4902 110.429 38.92 110.958 38.92Z" fill="#ECECFE"/>
<path d="M550.958 38.92C551.487 38.92 551.916 38.4902 551.916 37.96C551.916 37.4298 551.487 37 550.958 37C550.429 37 550 37.4298 550 37.96C550 38.4902 550.429 38.92 550.958 38.92Z" fill="#ECECFE"/>
<path d="M110.958 188.92C111.487 188.92 111.916 188.49 111.916 187.96C111.916 187.43 111.487 187 110.958 187C110.429 187 110 187.43 110 187.96C110 188.49 110.429 188.92 110.958 188.92Z" fill="#ECECFE"/>
<path d="M550.958 188.92C551.487 188.92 551.916 188.49 551.916 187.96C551.916 187.43 551.487 187 550.958 187C550.429 187 550 187.43 550 187.96C550 188.49 550.429 188.92 550.958 188.92Z" fill="#ECECFE"/>
<path d="M330.958 38.92C331.487 38.92 331.916 38.4902 331.916 37.96C331.916 37.4298 331.487 37 330.958 37C330.429 37 330 37.4298 330 37.96C330 38.4902 330.429 38.92 330.958 38.92Z" fill="#ECECFE"/>
<path d="M330.958 188.92C331.487 188.92 331.916 188.49 331.916 187.96C331.916 187.43 331.487 187 330.958 187C330.429 187 330 187.43 330 187.96C330 188.49 330.429 188.92 330.958 188.92Z" fill="#ECECFE"/>
<path d="M110.958 112.92C111.487 112.92 111.916 112.49 111.916 111.96C111.916 111.43 111.487 111 110.958 111C110.429 111 110 111.43 110 111.96C110 112.49 110.429 112.92 110.958 112.92Z" fill="#ECECFE"/>
<path d="M550.958 112.92C551.487 112.92 551.916 112.49 551.916 111.96C551.916 111.43 551.487 111 550.958 111C550.429 111 550 111.43 550 111.96C550 112.49 550.429 112.92 550.958 112.92Z" fill="#ECECFE"/>
<path d="M330.958 112.92C331.487 112.92 331.916 112.49 331.916 111.96C331.916 111.43 331.487 111 330.958 111C330.429 111 330 111.43 330 111.96C330 112.49 330.429 112.92 330.958 112.92Z" fill="#ECECFE"/>
<path d="M56.958 1.92C57.4871 1.92 57.916 1.49019 57.916 0.96C57.916 0.429807 57.4871 0 56.958 0C56.4289 0 56 0.429807 56 0.96C56 1.49019 56.4289 1.92 56.958 1.92Z" fill="#ECECFE"/>
<path d="M496.958 1.92C497.487 1.92 497.916 1.49019 497.916 0.96C497.916 0.429807 497.487 0 496.958 0C496.429 0 496 0.429807 496 0.96C496 1.49019 496.429 1.92 496.958 1.92Z" fill="#ECECFE"/>
<path d="M56.958 151.92C57.4871 151.92 57.916 151.49 57.916 150.96C57.916 150.43 57.4871 150 56.958 150C56.4289 150 56 150.43 56 150.96C56 151.49 56.4289 151.92 56.958 151.92Z" fill="#ECECFE"/>
<path d="M496.958 151.92C497.487 151.92 497.916 151.49 497.916 150.96C497.916 150.43 497.487 150 496.958 150C496.429 150 496 150.43 496 150.96C496 151.49 496.429 151.92 496.958 151.92Z" fill="#ECECFE"/>
<path d="M276.958 1.92C277.487 1.92 277.916 1.49019 277.916 0.96C277.916 0.429807 277.487 0 276.958 0C276.429 0 276 0.429807 276 0.96C276 1.49019 276.429 1.92 276.958 1.92Z" fill="#ECECFE"/>
<path d="M276.958 151.92C277.487 151.92 277.916 151.49 277.916 150.96C277.916 150.43 277.487 150 276.958 150C276.429 150 276 150.43 276 150.96C276 151.49 276.429 151.92 276.958 151.92Z" fill="#ECECFE"/>
<path d="M56.958 75.92C57.4871 75.92 57.916 75.4902 57.916 74.96C57.916 74.4298 57.4871 74 56.958 74C56.4289 74 56 74.4298 56 74.96C56 75.4902 56.4289 75.92 56.958 75.92Z" fill="#ECECFE"/>
<path d="M496.958 75.92C497.487 75.92 497.916 75.4902 497.916 74.96C497.916 74.4298 497.487 74 496.958 74C496.429 74 496 74.4298 496 74.96C496 75.4902 496.429 75.92 496.958 75.92Z" fill="#ECECFE"/>
<path d="M56.958 225.92C57.4871 225.92 57.916 225.49 57.916 224.96C57.916 224.43 57.4871 224 56.958 224C56.4289 224 56 224.43 56 224.96C56 225.49 56.4289 225.92 56.958 225.92Z" fill="#ECECFE"/>
<path d="M496.958 225.92C497.487 225.92 497.916 225.49 497.916 224.96C497.916 224.43 497.487 224 496.958 224C496.429 224 496 224.43 496 224.96C496 225.49 496.429 225.92 496.958 225.92Z" fill="#ECECFE"/>
<path d="M276.958 75.92C277.487 75.92 277.916 75.4902 277.916 74.96C277.916 74.4298 277.487 74 276.958 74C276.429 74 276 74.4298 276 74.96C276 75.4902 276.429 75.92 276.958 75.92Z" fill="#ECECFE"/>
<path d="M276.958 225.92C277.487 225.92 277.916 225.49 277.916 224.96C277.916 224.43 277.487 224 276.958 224C276.429 224 276 224.43 276 224.96C276 225.49 276.429 225.92 276.958 225.92Z" fill="#ECECFE"/>
<path d="M166.958 1.92C167.487 1.92 167.916 1.49019 167.916 0.96C167.916 0.429807 167.487 0 166.958 0C166.429 0 166 0.429807 166 0.96C166 1.49019 166.429 1.92 166.958 1.92Z" fill="#ECECFE"/>
<path d="M606.958 1.92C607.487 1.92 607.916 1.49019 607.916 0.96C607.916 0.429807 607.487 0 606.958 0C606.429 0 606 0.429807 606 0.96C606 1.49019 606.429 1.92 606.958 1.92Z" fill="#ECECFE"/>
<path d="M166.958 151.92C167.487 151.92 167.916 151.49 167.916 150.96C167.916 150.43 167.487 150 166.958 150C166.429 150 166 150.43 166 150.96C166 151.49 166.429 151.92 166.958 151.92Z" fill="#ECECFE"/>
<path d="M606.958 151.92C607.487 151.92 607.916 151.49 607.916 150.96C607.916 150.43 607.487 150 606.958 150C606.429 150 606 150.43 606 150.96C606 151.49 606.429 151.92 606.958 151.92Z" fill="#ECECFE"/>
<path d="M386.958 1.92C387.487 1.92 387.916 1.49019 387.916 0.96C387.916 0.429807 387.487 0 386.958 0C386.429 0 386 0.429807 386 0.96C386 1.49019 386.429 1.92 386.958 1.92Z" fill="#ECECFE"/>
<path d="M386.958 151.92C387.487 151.92 387.916 151.49 387.916 150.96C387.916 150.43 387.487 150 386.958 150C386.429 150 386 150.43 386 150.96C386 151.49 386.429 151.92 386.958 151.92Z" fill="#ECECFE"/>
<path d="M166.958 75.92C167.487 75.92 167.916 75.4902 167.916 74.96C167.916 74.4298 167.487 74 166.958 74C166.429 74 166 74.4298 166 74.96C166 75.4902 166.429 75.92 166.958 75.92Z" fill="#ECECFE"/>
<path d="M606.958 75.92C607.487 75.92 607.916 75.4902 607.916 74.96C607.916 74.4298 607.487 74 606.958 74C606.429 74 606 74.4298 606 74.96C606 75.4902 606.429 75.92 606.958 75.92Z" fill="#ECECFE"/>
<path d="M166.958 225.92C167.487 225.92 167.916 225.49 167.916 224.96C167.916 224.43 167.487 224 166.958 224C166.429 224 166 224.43 166 224.96C166 225.49 166.429 225.92 166.958 225.92Z" fill="#ECECFE"/>
<path d="M606.958 225.92C607.487 225.92 607.916 225.49 607.916 224.96C607.916 224.43 607.487 224 606.958 224C606.429 224 606 224.43 606 224.96C606 225.49 606.429 225.92 606.958 225.92Z" fill="#ECECFE"/>
<path d="M386.958 75.92C387.487 75.92 387.916 75.4902 387.916 74.96C387.916 74.4298 387.487 74 386.958 74C386.429 74 386 74.4298 386 74.96C386 75.4902 386.429 75.92 386.958 75.92Z" fill="#ECECFE"/>
<path d="M386.958 225.92C387.487 225.92 387.916 225.49 387.916 224.96C387.916 224.43 387.487 224 386.958 224C386.429 224 386 224.43 386 224.96C386 225.49 386.429 225.92 386.958 225.92Z" fill="#ECECFE"/>
<path d="M56.958 38.92C57.4871 38.92 57.916 38.4902 57.916 37.96C57.916 37.4298 57.4871 37 56.958 37C56.4289 37 56 37.4298 56 37.96C56 38.4902 56.4289 38.92 56.958 38.92Z" fill="#ECECFE"/>
<path d="M496.958 38.92C497.487 38.92 497.916 38.4902 497.916 37.96C497.916 37.4298 497.487 37 496.958 37C496.429 37 496 37.4298 496 37.96C496 38.4902 496.429 38.92 496.958 38.92Z" fill="#ECECFE"/>
<path d="M56.958 188.92C57.4871 188.92 57.916 188.49 57.916 187.96C57.916 187.43 57.4871 187 56.958 187C56.4289 187 56 187.43 56 187.96C56 188.49 56.4289 188.92 56.958 188.92Z" fill="#ECECFE"/>
<path d="M496.958 188.92C497.487 188.92 497.916 188.49 497.916 187.96C497.916 187.43 497.487 187 496.958 187C496.429 187 496 187.43 496 187.96C496 188.49 496.429 188.92 496.958 188.92Z" fill="#ECECFE"/>
<path d="M276.958 38.92C277.487 38.92 277.916 38.4902 277.916 37.96C277.916 37.4298 277.487 37 276.958 37C276.429 37 276 37.4298 276 37.96C276 38.4902 276.429 38.92 276.958 38.92Z" fill="#ECECFE"/>
<path d="M276.958 188.92C277.487 188.92 277.916 188.49 277.916 187.96C277.916 187.43 277.487 187 276.958 187C276.429 187 276 187.43 276 187.96C276 188.49 276.429 188.92 276.958 188.92Z" fill="#ECECFE"/>
<path d="M56.958 112.92C57.4871 112.92 57.916 112.49 57.916 111.96C57.916 111.43 57.4871 111 56.958 111C56.4289 111 56 111.43 56 111.96C56 112.49 56.4289 112.92 56.958 112.92Z" fill="#ECECFE"/>
<path d="M496.958 112.92C497.487 112.92 497.916 112.49 497.916 111.96C497.916 111.43 497.487 111 496.958 111C496.429 111 496 111.43 496 111.96C496 112.49 496.429 112.92 496.958 112.92Z" fill="#ECECFE"/>
<path d="M276.958 112.92C277.487 112.92 277.916 112.49 277.916 111.96C277.916 111.43 277.487 111 276.958 111C276.429 111 276 111.43 276 111.96C276 112.49 276.429 112.92 276.958 112.92Z" fill="#ECECFE"/>
<path d="M166.958 38.92C167.487 38.92 167.916 38.4902 167.916 37.96C167.916 37.4298 167.487 37 166.958 37C166.429 37 166 37.4298 166 37.96C166 38.4902 166.429 38.92 166.958 38.92Z" fill="#ECECFE"/>
<path d="M606.958 38.92C607.487 38.92 607.916 38.4902 607.916 37.96C607.916 37.4298 607.487 37 606.958 37C606.429 37 606 37.4298 606 37.96C606 38.4902 606.429 38.92 606.958 38.92Z" fill="#ECECFE"/>
<path d="M166.958 188.92C167.487 188.92 167.916 188.49 167.916 187.96C167.916 187.43 167.487 187 166.958 187C166.429 187 166 187.43 166 187.96C166 188.49 166.429 188.92 166.958 188.92Z" fill="#ECECFE"/>
<path d="M606.958 188.92C607.487 188.92 607.916 188.49 607.916 187.96C607.916 187.43 607.487 187 606.958 187C606.429 187 606 187.43 606 187.96C606 188.49 606.429 188.92 606.958 188.92Z" fill="#ECECFE"/>
<path d="M386.958 38.92C387.487 38.92 387.916 38.4902 387.916 37.96C387.916 37.4298 387.487 37 386.958 37C386.429 37 386 37.4298 386 37.96C386 38.4902 386.429 38.92 386.958 38.92Z" fill="#ECECFE"/>
<path d="M386.958 188.92C387.487 188.92 387.916 188.49 387.916 187.96C387.916 187.43 387.487 187 386.958 187C386.429 187 386 187.43 386 187.96C386 188.49 386.429 188.92 386.958 188.92Z" fill="#ECECFE"/>
<path d="M166.958 112.92C167.487 112.92 167.916 112.49 167.916 111.96C167.916 111.43 167.487 111 166.958 111C166.429 111 166 111.43 166 111.96C166 112.49 166.429 112.92 166.958 112.92Z" fill="#ECECFE"/>
<path d="M606.958 112.92C607.487 112.92 607.916 112.49 607.916 111.96C607.916 111.43 607.487 111 606.958 111C606.429 111 606 111.43 606 111.96C606 112.49 606.429 112.92 606.958 112.92Z" fill="#ECECFE"/>
<path d="M386.958 112.92C387.487 112.92 387.916 112.49 387.916 111.96C387.916 111.43 387.487 111 386.958 111C386.429 111 386 111.43 386 111.96C386 112.49 386.429 112.92 386.958 112.92Z" fill="#ECECFE"/>
<path d="M0.958 20C1.48709 20 1.916 19.5702 1.916 19.04C1.916 18.5098 1.48709 18.08 0.958 18.08C0.428911 18.08 0 18.5098 0 19.04C0 19.5702 0.428911 20 0.958 20Z" fill="#ECECFE"/>
<path d="M440.958 20C441.487 20 441.916 19.5702 441.916 19.04C441.916 18.5098 441.487 18.08 440.958 18.08C440.429 18.08 440 18.5098 440 19.04C440 19.5702 440.429 20 440.958 20Z" fill="#ECECFE"/>
<path d="M0.958 170C1.48709 170 1.916 169.57 1.916 169.04C1.916 168.51 1.48709 168.08 0.958 168.08C0.428911 168.08 0 168.51 0 169.04C0 169.57 0.428911 170 0.958 170Z" fill="#ECECFE"/>
<path d="M440.958 170C441.487 170 441.916 169.57 441.916 169.04C441.916 168.51 441.487 168.08 440.958 168.08C440.429 168.08 440 168.51 440 169.04C440 169.57 440.429 170 440.958 170Z" fill="#ECECFE"/>
<path d="M220.958 20C221.487 20 221.916 19.5702 221.916 19.04C221.916 18.5098 221.487 18.08 220.958 18.08C220.429 18.08 220 18.5098 220 19.04C220 19.5702 220.429 20 220.958 20Z" fill="#ECECFE"/>
<path d="M220.958 170C221.487 170 221.916 169.57 221.916 169.04C221.916 168.51 221.487 168.08 220.958 168.08C220.429 168.08 220 168.51 220 169.04C220 169.57 220.429 170 220.958 170Z" fill="#ECECFE"/>
<path d="M0.958 94C1.48709 94 1.916 93.5702 1.916 93.04C1.916 92.5098 1.48709 92.08 0.958 92.08C0.428911 92.08 0 92.5098 0 93.04C0 93.5702 0.428911 94 0.958 94Z" fill="#ECECFE"/>
<path d="M440.958 94C441.487 94 441.916 93.5702 441.916 93.04C441.916 92.5098 441.487 92.08 440.958 92.08C440.429 92.08 440 92.5098 440 93.04C440 93.5702 440.429 94 440.958 94Z" fill="#ECECFE"/>
<path d="M220.958 94C221.487 94 221.916 93.5702 221.916 93.04C221.916 92.5098 221.487 92.08 220.958 92.08C220.429 92.08 220 92.5098 220 93.04C220 93.5702 220.429 94 220.958 94Z" fill="#ECECFE"/>
<path d="M110.958 20C111.487 20 111.916 19.5702 111.916 19.04C111.916 18.5098 111.487 18.08 110.958 18.08C110.429 18.08 110 18.5098 110 19.04C110 19.5702 110.429 20 110.958 20Z" fill="#ECECFE"/>
<path d="M550.958 20C551.487 20 551.916 19.5702 551.916 19.04C551.916 18.5098 551.487 18.08 550.958 18.08C550.429 18.08 550 18.5098 550 19.04C550 19.5702 550.429 20 550.958 20Z" fill="#ECECFE"/>
<path d="M110.958 170C111.487 170 111.916 169.57 111.916 169.04C111.916 168.51 111.487 168.08 110.958 168.08C110.429 168.08 110 168.51 110 169.04C110 169.57 110.429 170 110.958 170Z" fill="#ECECFE"/>
<path d="M550.958 170C551.487 170 551.916 169.57 551.916 169.04C551.916 168.51 551.487 168.08 550.958 168.08C550.429 168.08 550 168.51 550 169.04C550 169.57 550.429 170 550.958 170Z" fill="#ECECFE"/>
<path d="M330.958 20C331.487 20 331.916 19.5702 331.916 19.04C331.916 18.5098 331.487 18.08 330.958 18.08C330.429 18.08 330 18.5098 330 19.04C330 19.5702 330.429 20 330.958 20Z" fill="#ECECFE"/>
<path d="M330.958 170C331.487 170 331.916 169.57 331.916 169.04C331.916 168.51 331.487 168.08 330.958 168.08C330.429 168.08 330 168.51 330 169.04C330 169.57 330.429 170 330.958 170Z" fill="#ECECFE"/>
<path d="M110.958 94C111.487 94 111.916 93.5702 111.916 93.04C111.916 92.5098 111.487 92.08 110.958 92.08C110.429 92.08 110 92.5098 110 93.04C110 93.5702 110.429 94 110.958 94Z" fill="#ECECFE"/>
<path d="M550.958 94C551.487 94 551.916 93.5702 551.916 93.04C551.916 92.5098 551.487 92.08 550.958 92.08C550.429 92.08 550 92.5098 550 93.04C550 93.5702 550.429 94 550.958 94Z" fill="#ECECFE"/>
<path d="M330.958 94C331.487 94 331.916 93.5702 331.916 93.04C331.916 92.5098 331.487 92.08 330.958 92.08C330.429 92.08 330 92.5098 330 93.04C330 93.5702 330.429 94 330.958 94Z" fill="#ECECFE"/>
<path d="M0.958 57C1.48709 57 1.916 56.5702 1.916 56.04C1.916 55.5098 1.48709 55.08 0.958 55.08C0.428911 55.08 0 55.5098 0 56.04C0 56.5702 0.428911 57 0.958 57Z" fill="#ECECFE"/>
<path d="M440.958 57C441.487 57 441.916 56.5702 441.916 56.04C441.916 55.5098 441.487 55.08 440.958 55.08C440.429 55.08 440 55.5098 440 56.04C440 56.5702 440.429 57 440.958 57Z" fill="#ECECFE"/>
<path d="M0.958 207C1.48709 207 1.916 206.57 1.916 206.04C1.916 205.51 1.48709 205.08 0.958 205.08C0.428911 205.08 0 205.51 0 206.04C0 206.57 0.428911 207 0.958 207Z" fill="#ECECFE"/>
<path d="M440.958 207C441.487 207 441.916 206.57 441.916 206.04C441.916 205.51 441.487 205.08 440.958 205.08C440.429 205.08 440 205.51 440 206.04C440 206.57 440.429 207 440.958 207Z" fill="#ECECFE"/>
<path d="M220.958 57C221.487 57 221.916 56.5702 221.916 56.04C221.916 55.5098 221.487 55.08 220.958 55.08C220.429 55.08 220 55.5098 220 56.04C220 56.5702 220.429 57 220.958 57Z" fill="#ECECFE"/>
<path d="M220.958 207C221.487 207 221.916 206.57 221.916 206.04C221.916 205.51 221.487 205.08 220.958 205.08C220.429 205.08 220 205.51 220 206.04C220 206.57 220.429 207 220.958 207Z" fill="#ECECFE"/>
<path d="M0.958 131C1.48709 131 1.916 130.57 1.916 130.04C1.916 129.51 1.48709 129.08 0.958 129.08C0.428911 129.08 0 129.51 0 130.04C0 130.57 0.428911 131 0.958 131Z" fill="#ECECFE"/>
<path d="M440.958 131C441.487 131 441.916 130.57 441.916 130.04C441.916 129.51 441.487 129.08 440.958 129.08C440.429 129.08 440 129.51 440 130.04C440 130.57 440.429 131 440.958 131Z" fill="#ECECFE"/>
<path d="M220.958 131C221.487 131 221.916 130.57 221.916 130.04C221.916 129.51 221.487 129.08 220.958 129.08C220.429 129.08 220 129.51 220 130.04C220 130.57 220.429 131 220.958 131Z" fill="#ECECFE"/>
<path d="M110.958 57C111.487 57 111.916 56.5702 111.916 56.04C111.916 55.5098 111.487 55.08 110.958 55.08C110.429 55.08 110 55.5098 110 56.04C110 56.5702 110.429 57 110.958 57Z" fill="#ECECFE"/>
<path d="M550.958 57C551.487 57 551.916 56.5702 551.916 56.04C551.916 55.5098 551.487 55.08 550.958 55.08C550.429 55.08 550 55.5098 550 56.04C550 56.5702 550.429 57 550.958 57Z" fill="#ECECFE"/>
<path d="M110.958 207C111.487 207 111.916 206.57 111.916 206.04C111.916 205.51 111.487 205.08 110.958 205.08C110.429 205.08 110 205.51 110 206.04C110 206.57 110.429 207 110.958 207Z" fill="#ECECFE"/>
<path d="M550.958 207C551.487 207 551.916 206.57 551.916 206.04C551.916 205.51 551.487 205.08 550.958 205.08C550.429 205.08 550 205.51 550 206.04C550 206.57 550.429 207 550.958 207Z" fill="#ECECFE"/>
<path d="M330.958 57C331.487 57 331.916 56.5702 331.916 56.04C331.916 55.5098 331.487 55.08 330.958 55.08C330.429 55.08 330 55.5098 330 56.04C330 56.5702 330.429 57 330.958 57Z" fill="#ECECFE"/>
<path d="M330.958 207C331.487 207 331.916 206.57 331.916 206.04C331.916 205.51 331.487 205.08 330.958 205.08C330.429 205.08 330 205.51 330 206.04C330 206.57 330.429 207 330.958 207Z" fill="#ECECFE"/>
<path d="M110.958 131C111.487 131 111.916 130.57 111.916 130.04C111.916 129.51 111.487 129.08 110.958 129.08C110.429 129.08 110 129.51 110 130.04C110 130.57 110.429 131 110.958 131Z" fill="#ECECFE"/>
<path d="M550.958 131C551.487 131 551.916 130.57 551.916 130.04C551.916 129.51 551.487 129.08 550.958 129.08C550.429 129.08 550 129.51 550 130.04C550 130.57 550.429 131 550.958 131Z" fill="#ECECFE"/>
<path d="M330.958 131C331.487 131 331.916 130.57 331.916 130.04C331.916 129.51 331.487 129.08 330.958 129.08C330.429 129.08 330 129.51 330 130.04C330 130.57 330.429 131 330.958 131Z" fill="#ECECFE"/>
<path d="M56.958 20C57.4871 20 57.916 19.5702 57.916 19.04C57.916 18.5098 57.4871 18.08 56.958 18.08C56.4289 18.08 56 18.5098 56 19.04C56 19.5702 56.4289 20 56.958 20Z" fill="#ECECFE"/>
<path d="M496.958 20C497.487 20 497.916 19.5702 497.916 19.04C497.916 18.5098 497.487 18.08 496.958 18.08C496.429 18.08 496 18.5098 496 19.04C496 19.5702 496.429 20 496.958 20Z" fill="#ECECFE"/>
<path d="M56.958 170C57.4871 170 57.916 169.57 57.916 169.04C57.916 168.51 57.4871 168.08 56.958 168.08C56.4289 168.08 56 168.51 56 169.04C56 169.57 56.4289 170 56.958 170Z" fill="#ECECFE"/>
<path d="M496.958 170C497.487 170 497.916 169.57 497.916 169.04C497.916 168.51 497.487 168.08 496.958 168.08C496.429 168.08 496 168.51 496 169.04C496 169.57 496.429 170 496.958 170Z" fill="#ECECFE"/>
<path d="M276.958 20C277.487 20 277.916 19.5702 277.916 19.04C277.916 18.5098 277.487 18.08 276.958 18.08C276.429 18.08 276 18.5098 276 19.04C276 19.5702 276.429 20 276.958 20Z" fill="#ECECFE"/>
<path d="M276.958 170C277.487 170 277.916 169.57 277.916 169.04C277.916 168.51 277.487 168.08 276.958 168.08C276.429 168.08 276 168.51 276 169.04C276 169.57 276.429 170 276.958 170Z" fill="#ECECFE"/>
<path d="M56.958 94C57.4871 94 57.916 93.5702 57.916 93.04C57.916 92.5098 57.4871 92.08 56.958 92.08C56.4289 92.08 56 92.5098 56 93.04C56 93.5702 56.4289 94 56.958 94Z" fill="#ECECFE"/>
<path d="M496.958 94C497.487 94 497.916 93.5702 497.916 93.04C497.916 92.5098 497.487 92.08 496.958 92.08C496.429 92.08 496 92.5098 496 93.04C496 93.5702 496.429 94 496.958 94Z" fill="#ECECFE"/>
<path d="M276.958 94C277.487 94 277.916 93.5702 277.916 93.04C277.916 92.5098 277.487 92.08 276.958 92.08C276.429 92.08 276 92.5098 276 93.04C276 93.5702 276.429 94 276.958 94Z" fill="#ECECFE"/>
<path d="M166.958 20C167.487 20 167.916 19.5702 167.916 19.04C167.916 18.5098 167.487 18.08 166.958 18.08C166.429 18.08 166 18.5098 166 19.04C166 19.5702 166.429 20 166.958 20Z" fill="#ECECFE"/>
<path d="M606.958 20C607.487 20 607.916 19.5702 607.916 19.04C607.916 18.5098 607.487 18.08 606.958 18.08C606.429 18.08 606 18.5098 606 19.04C606 19.5702 606.429 20 606.958 20Z" fill="#ECECFE"/>
<path d="M166.958 170C167.487 170 167.916 169.57 167.916 169.04C167.916 168.51 167.487 168.08 166.958 168.08C166.429 168.08 166 168.51 166 169.04C166 169.57 166.429 170 166.958 170Z" fill="#ECECFE"/>
<path d="M606.958 170C607.487 170 607.916 169.57 607.916 169.04C607.916 168.51 607.487 168.08 606.958 168.08C606.429 168.08 606 168.51 606 169.04C606 169.57 606.429 170 606.958 170Z" fill="#ECECFE"/>
<path d="M386.958 20C387.487 20 387.916 19.5702 387.916 19.04C387.916 18.5098 387.487 18.08 386.958 18.08C386.429 18.08 386 18.5098 386 19.04C386 19.5702 386.429 20 386.958 20Z" fill="#ECECFE"/>
<path d="M386.958 170C387.487 170 387.916 169.57 387.916 169.04C387.916 168.51 387.487 168.08 386.958 168.08C386.429 168.08 386 168.51 386 169.04C386 169.57 386.429 170 386.958 170Z" fill="#ECECFE"/>
<path d="M166.958 94C167.487 94 167.916 93.5702 167.916 93.04C167.916 92.5098 167.487 92.08 166.958 92.08C166.429 92.08 166 92.5098 166 93.04C166 93.5702 166.429 94 166.958 94Z" fill="#ECECFE"/>
<path d="M606.958 94C607.487 94 607.916 93.5702 607.916 93.04C607.916 92.5098 607.487 92.08 606.958 92.08C606.429 92.08 606 92.5098 606 93.04C606 93.5702 606.429 94 606.958 94Z" fill="#ECECFE"/>
<path d="M386.958 94C387.487 94 387.916 93.5702 387.916 93.04C387.916 92.5098 387.487 92.08 386.958 92.08C386.429 92.08 386 92.5098 386 93.04C386 93.5702 386.429 94 386.958 94Z" fill="#ECECFE"/>
<path d="M56.958 57C57.4871 57 57.916 56.5702 57.916 56.04C57.916 55.5098 57.4871 55.08 56.958 55.08C56.4289 55.08 56 55.5098 56 56.04C56 56.5702 56.4289 57 56.958 57Z" fill="#ECECFE"/>
<path d="M496.958 57C497.487 57 497.916 56.5702 497.916 56.04C497.916 55.5098 497.487 55.08 496.958 55.08C496.429 55.08 496 55.5098 496 56.04C496 56.5702 496.429 57 496.958 57Z" fill="#ECECFE"/>
<path d="M56.958 207C57.4871 207 57.916 206.57 57.916 206.04C57.916 205.51 57.4871 205.08 56.958 205.08C56.4289 205.08 56 205.51 56 206.04C56 206.57 56.4289 207 56.958 207Z" fill="#ECECFE"/>
<path d="M496.958 207C497.487 207 497.916 206.57 497.916 206.04C497.916 205.51 497.487 205.08 496.958 205.08C496.429 205.08 496 205.51 496 206.04C496 206.57 496.429 207 496.958 207Z" fill="#ECECFE"/>
<path d="M276.958 57C277.487 57 277.916 56.5702 277.916 56.04C277.916 55.5098 277.487 55.08 276.958 55.08C276.429 55.08 276 55.5098 276 56.04C276 56.5702 276.429 57 276.958 57Z" fill="#ECECFE"/>
<path d="M276.958 207C277.487 207 277.916 206.57 277.916 206.04C277.916 205.51 277.487 205.08 276.958 205.08C276.429 205.08 276 205.51 276 206.04C276 206.57 276.429 207 276.958 207Z" fill="#ECECFE"/>
<path d="M56.958 131C57.4871 131 57.916 130.57 57.916 130.04C57.916 129.51 57.4871 129.08 56.958 129.08C56.4289 129.08 56 129.51 56 130.04C56 130.57 56.4289 131 56.958 131Z" fill="#ECECFE"/>
<path d="M496.958 131C497.487 131 497.916 130.57 497.916 130.04C497.916 129.51 497.487 129.08 496.958 129.08C496.429 129.08 496 129.51 496 130.04C496 130.57 496.429 131 496.958 131Z" fill="#ECECFE"/>
<path d="M276.958 131C277.487 131 277.916 130.57 277.916 130.04C277.916 129.51 277.487 129.08 276.958 129.08C276.429 129.08 276 129.51 276 130.04C276 130.57 276.429 131 276.958 131Z" fill="#ECECFE"/>
<path d="M166.958 57C167.487 57 167.916 56.5702 167.916 56.04C167.916 55.5098 167.487 55.08 166.958 55.08C166.429 55.08 166 55.5098 166 56.04C166 56.5702 166.429 57 166.958 57Z" fill="#ECECFE"/>
<path d="M606.958 57C607.487 57 607.916 56.5702 607.916 56.04C607.916 55.5098 607.487 55.08 606.958 55.08C606.429 55.08 606 55.5098 606 56.04C606 56.5702 606.429 57 606.958 57Z" fill="#ECECFE"/>
<path d="M166.958 207C167.487 207 167.916 206.57 167.916 206.04C167.916 205.51 167.487 205.08 166.958 205.08C166.429 205.08 166 205.51 166 206.04C166 206.57 166.429 207 166.958 207Z" fill="#ECECFE"/>
<path d="M606.958 207C607.487 207 607.916 206.57 607.916 206.04C607.916 205.51 607.487 205.08 606.958 205.08C606.429 205.08 606 205.51 606 206.04C606 206.57 606.429 207 606.958 207Z" fill="#ECECFE"/>
<path d="M386.958 57C387.487 57 387.916 56.5702 387.916 56.04C387.916 55.5098 387.487 55.08 386.958 55.08C386.429 55.08 386 55.5098 386 56.04C386 56.5702 386.429 57 386.958 57Z" fill="#ECECFE"/>
<path d="M386.958 207C387.487 207 387.916 206.57 387.916 206.04C387.916 205.51 387.487 205.08 386.958 205.08C386.429 205.08 386 205.51 386 206.04C386 206.57 386.429 207 386.958 207Z" fill="#ECECFE"/>
<path d="M166.958 131C167.487 131 167.916 130.57 167.916 130.04C167.916 129.51 167.487 129.08 166.958 129.08C166.429 129.08 166 129.51 166 130.04C166 130.57 166.429 131 166.958 131Z" fill="#ECECFE"/>
<path d="M606.958 131C607.487 131 607.916 130.57 607.916 130.04C607.916 129.51 607.487 129.08 606.958 129.08C606.429 129.08 606 129.51 606 130.04C606 130.57 606.429 131 606.958 131Z" fill="#ECECFE"/>
<path d="M386.958 131C387.487 131 387.916 130.57 387.916 130.04C387.916 129.51 387.487 129.08 386.958 129.08C386.429 129.08 386 129.51 386 130.04C386 130.57 386.429 131 386.958 131Z" fill="#ECECFE"/>
<path d="M19 1.92C19.5291 1.92 19.958 1.49019 19.958 0.96C19.958 0.429807 19.5291 0 19 0C18.4709 0 18.042 0.429807 18.042 0.96C18.042 1.49019 18.4709 1.92 19 1.92Z" fill="#ECECFE"/>
<path d="M459 1.92C459.529 1.92 459.958 1.49019 459.958 0.96C459.958 0.429807 459.529 0 459 0C458.471 0 458.042 0.429807 458.042 0.96C458.042 1.49019 458.471 1.92 459 1.92Z" fill="#ECECFE"/>
<path d="M19 151.92C19.5291 151.92 19.958 151.49 19.958 150.96C19.958 150.43 19.5291 150 19 150C18.4709 150 18.042 150.43 18.042 150.96C18.042 151.49 18.4709 151.92 19 151.92Z" fill="#ECECFE"/>
<path d="M459 151.92C459.529 151.92 459.958 151.49 459.958 150.96C459.958 150.43 459.529 150 459 150C458.471 150 458.042 150.43 458.042 150.96C458.042 151.49 458.471 151.92 459 151.92Z" fill="#ECECFE"/>
<path d="M239 1.92C239.529 1.92 239.958 1.49019 239.958 0.96C239.958 0.429807 239.529 0 239 0C238.471 0 238.042 0.429807 238.042 0.96C238.042 1.49019 238.471 1.92 239 1.92Z" fill="#ECECFE"/>
<path d="M239 151.92C239.529 151.92 239.958 151.49 239.958 150.96C239.958 150.43 239.529 150 239 150C238.471 150 238.042 150.43 238.042 150.96C238.042 151.49 238.471 151.92 239 151.92Z" fill="#ECECFE"/>
<path d="M19 75.92C19.5291 75.92 19.958 75.4902 19.958 74.96C19.958 74.4298 19.5291 74 19 74C18.4709 74 18.042 74.4298 18.042 74.96C18.042 75.4902 18.4709 75.92 19 75.92Z" fill="#ECECFE"/>
<path d="M459 75.92C459.529 75.92 459.958 75.4902 459.958 74.96C459.958 74.4298 459.529 74 459 74C458.471 74 458.042 74.4298 458.042 74.96C458.042 75.4902 458.471 75.92 459 75.92Z" fill="#ECECFE"/>
<path d="M19 225.92C19.5291 225.92 19.958 225.49 19.958 224.96C19.958 224.43 19.5291 224 19 224C18.4709 224 18.042 224.43 18.042 224.96C18.042 225.49 18.4709 225.92 19 225.92Z" fill="#ECECFE"/>
<path d="M459 225.92C459.529 225.92 459.958 225.49 459.958 224.96C459.958 224.43 459.529 224 459 224C458.471 224 458.042 224.43 458.042 224.96C458.042 225.49 458.471 225.92 459 225.92Z" fill="#ECECFE"/>
<path d="M239 75.92C239.529 75.92 239.958 75.4902 239.958 74.96C239.958 74.4298 239.529 74 239 74C238.471 74 238.042 74.4298 238.042 74.96C238.042 75.4902 238.471 75.92 239 75.92Z" fill="#ECECFE"/>
<path d="M239 225.92C239.529 225.92 239.958 225.49 239.958 224.96C239.958 224.43 239.529 224 239 224C238.471 224 238.042 224.43 238.042 224.96C238.042 225.49 238.471 225.92 239 225.92Z" fill="#ECECFE"/>
<path d="M129 1.92C129.529 1.92 129.958 1.49019 129.958 0.96C129.958 0.429807 129.529 0 129 0C128.471 0 128.042 0.429807 128.042 0.96C128.042 1.49019 128.471 1.92 129 1.92Z" fill="#ECECFE"/>
<path d="M569 1.92C569.529 1.92 569.958 1.49019 569.958 0.96C569.958 0.429807 569.529 0 569 0C568.471 0 568.042 0.429807 568.042 0.96C568.042 1.49019 568.471 1.92 569 1.92Z" fill="#ECECFE"/>
<path d="M129 151.92C129.529 151.92 129.958 151.49 129.958 150.96C129.958 150.43 129.529 150 129 150C128.471 150 128.042 150.43 128.042 150.96C128.042 151.49 128.471 151.92 129 151.92Z" fill="#ECECFE"/>
<path d="M569 151.92C569.529 151.92 569.958 151.49 569.958 150.96C569.958 150.43 569.529 150 569 150C568.471 150 568.042 150.43 568.042 150.96C568.042 151.49 568.471 151.92 569 151.92Z" fill="#ECECFE"/>
<path d="M349 1.92C349.529 1.92 349.958 1.49019 349.958 0.96C349.958 0.429807 349.529 0 349 0C348.471 0 348.042 0.429807 348.042 0.96C348.042 1.49019 348.471 1.92 349 1.92Z" fill="#ECECFE"/>
<path d="M349 151.92C349.529 151.92 349.958 151.49 349.958 150.96C349.958 150.43 349.529 150 349 150C348.471 150 348.042 150.43 348.042 150.96C348.042 151.49 348.471 151.92 349 151.92Z" fill="#ECECFE"/>
<path d="M129 75.92C129.529 75.92 129.958 75.4902 129.958 74.96C129.958 74.4298 129.529 74 129 74C128.471 74 128.042 74.4298 128.042 74.96C128.042 75.4902 128.471 75.92 129 75.92Z" fill="#ECECFE"/>
<path d="M569 75.92C569.529 75.92 569.958 75.4902 569.958 74.96C569.958 74.4298 569.529 74 569 74C568.471 74 568.042 74.4298 568.042 74.96C568.042 75.4902 568.471 75.92 569 75.92Z" fill="#ECECFE"/>
<path d="M129 225.92C129.529 225.92 129.958 225.49 129.958 224.96C129.958 224.43 129.529 224 129 224C128.471 224 128.042 224.43 128.042 224.96C128.042 225.49 128.471 225.92 129 225.92Z" fill="#ECECFE"/>
<path d="M569 225.92C569.529 225.92 569.958 225.49 569.958 224.96C569.958 224.43 569.529 224 569 224C568.471 224 568.042 224.43 568.042 224.96C568.042 225.49 568.471 225.92 569 225.92Z" fill="#ECECFE"/>
<path d="M349 75.92C349.529 75.92 349.958 75.4902 349.958 74.96C349.958 74.4298 349.529 74 349 74C348.471 74 348.042 74.4298 348.042 74.96C348.042 75.4902 348.471 75.92 349 75.92Z" fill="#ECECFE"/>
<path d="M349 225.92C349.529 225.92 349.958 225.49 349.958 224.96C349.958 224.43 349.529 224 349 224C348.471 224 348.042 224.43 348.042 224.96C348.042 225.49 348.471 225.92 349 225.92Z" fill="#ECECFE"/>
<path d="M19 38.92C19.5291 38.92 19.958 38.4902 19.958 37.96C19.958 37.4298 19.5291 37 19 37C18.4709 37 18.042 37.4298 18.042 37.96C18.042 38.4902 18.4709 38.92 19 38.92Z" fill="#ECECFE"/>
<path d="M459 38.92C459.529 38.92 459.958 38.4902 459.958 37.96C459.958 37.4298 459.529 37 459 37C458.471 37 458.042 37.4298 458.042 37.96C458.042 38.4902 458.471 38.92 459 38.92Z" fill="#ECECFE"/>
<path d="M19 188.92C19.5291 188.92 19.958 188.49 19.958 187.96C19.958 187.43 19.5291 187 19 187C18.4709 187 18.042 187.43 18.042 187.96C18.042 188.49 18.4709 188.92 19 188.92Z" fill="#ECECFE"/>
<path d="M459 188.92C459.529 188.92 459.958 188.49 459.958 187.96C459.958 187.43 459.529 187 459 187C458.471 187 458.042 187.43 458.042 187.96C458.042 188.49 458.471 188.92 459 188.92Z" fill="#ECECFE"/>
<path d="M239 38.92C239.529 38.92 239.958 38.4902 239.958 37.96C239.958 37.4298 239.529 37 239 37C238.471 37 238.042 37.4298 238.042 37.96C238.042 38.4902 238.471 38.92 239 38.92Z" fill="#ECECFE"/>
<path d="M239 188.92C239.529 188.92 239.958 188.49 239.958 187.96C239.958 187.43 239.529 187 239 187C238.471 187 238.042 187.43 238.042 187.96C238.042 188.49 238.471 188.92 239 188.92Z" fill="#ECECFE"/>
<path d="M19 112.92C19.5291 112.92 19.958 112.49 19.958 111.96C19.958 111.43 19.5291 111 19 111C18.4709 111 18.042 111.43 18.042 111.96C18.042 112.49 18.4709 112.92 19 112.92Z" fill="#ECECFE"/>
<path d="M459 112.92C459.529 112.92 459.958 112.49 459.958 111.96C459.958 111.43 459.529 111 459 111C458.471 111 458.042 111.43 458.042 111.96C458.042 112.49 458.471 112.92 459 112.92Z" fill="#ECECFE"/>
<path d="M239 112.92C239.529 112.92 239.958 112.49 239.958 111.96C239.958 111.43 239.529 111 239 111C238.471 111 238.042 111.43 238.042 111.96C238.042 112.49 238.471 112.92 239 112.92Z" fill="#ECECFE"/>
<path d="M129 38.92C129.529 38.92 129.958 38.4902 129.958 37.96C129.958 37.4298 129.529 37 129 37C128.471 37 128.042 37.4298 128.042 37.96C128.042 38.4902 128.471 38.92 129 38.92Z" fill="#ECECFE"/>
<path d="M569 38.92C569.529 38.92 569.958 38.4902 569.958 37.96C569.958 37.4298 569.529 37 569 37C568.471 37 568.042 37.4298 568.042 37.96C568.042 38.4902 568.471 38.92 569 38.92Z" fill="#ECECFE"/>
<path d="M129 188.92C129.529 188.92 129.958 188.49 129.958 187.96C129.958 187.43 129.529 187 129 187C128.471 187 128.042 187.43 128.042 187.96C128.042 188.49 128.471 188.92 129 188.92Z" fill="#ECECFE"/>
<path d="M569 188.92C569.529 188.92 569.958 188.49 569.958 187.96C569.958 187.43 569.529 187 569 187C568.471 187 568.042 187.43 568.042 187.96C568.042 188.49 568.471 188.92 569 188.92Z" fill="#ECECFE"/>
<path d="M349 38.92C349.529 38.92 349.958 38.4902 349.958 37.96C349.958 37.4298 349.529 37 349 37C348.471 37 348.042 37.4298 348.042 37.96C348.042 38.4902 348.471 38.92 349 38.92Z" fill="#ECECFE"/>
<path d="M349 188.92C349.529 188.92 349.958 188.49 349.958 187.96C349.958 187.43 349.529 187 349 187C348.471 187 348.042 187.43 348.042 187.96C348.042 188.49 348.471 188.92 349 188.92Z" fill="#ECECFE"/>
<path d="M129 112.92C129.529 112.92 129.958 112.49 129.958 111.96C129.958 111.43 129.529 111 129 111C128.471 111 128.042 111.43 128.042 111.96C128.042 112.49 128.471 112.92 129 112.92Z" fill="#ECECFE"/>
<path d="M569 112.92C569.529 112.92 569.958 112.49 569.958 111.96C569.958 111.43 569.529 111 569 111C568.471 111 568.042 111.43 568.042 111.96C568.042 112.49 568.471 112.92 569 112.92Z" fill="#ECECFE"/>
<path d="M349 112.92C349.529 112.92 349.958 112.49 349.958 111.96C349.958 111.43 349.529 111 349 111C348.471 111 348.042 111.43 348.042 111.96C348.042 112.49 348.471 112.92 349 112.92Z" fill="#ECECFE"/>
<path d="M75 1.92C75.5291 1.92 75.958 1.49019 75.958 0.96C75.958 0.429807 75.5291 0 75 0C74.4709 0 74.042 0.429807 74.042 0.96C74.042 1.49019 74.4709 1.92 75 1.92Z" fill="#ECECFE"/>
<path d="M515 1.92C515.529 1.92 515.958 1.49019 515.958 0.96C515.958 0.429807 515.529 0 515 0C514.471 0 514.042 0.429807 514.042 0.96C514.042 1.49019 514.471 1.92 515 1.92Z" fill="#ECECFE"/>
<path d="M75 151.92C75.5291 151.92 75.958 151.49 75.958 150.96C75.958 150.43 75.5291 150 75 150C74.4709 150 74.042 150.43 74.042 150.96C74.042 151.49 74.4709 151.92 75 151.92Z" fill="#ECECFE"/>
<path d="M515 151.92C515.529 151.92 515.958 151.49 515.958 150.96C515.958 150.43 515.529 150 515 150C514.471 150 514.042 150.43 514.042 150.96C514.042 151.49 514.471 151.92 515 151.92Z" fill="#ECECFE"/>
<path d="M295 1.92C295.529 1.92 295.958 1.49019 295.958 0.96C295.958 0.429807 295.529 0 295 0C294.471 0 294.042 0.429807 294.042 0.96C294.042 1.49019 294.471 1.92 295 1.92Z" fill="#ECECFE"/>
<path d="M295 151.92C295.529 151.92 295.958 151.49 295.958 150.96C295.958 150.43 295.529 150 295 150C294.471 150 294.042 150.43 294.042 150.96C294.042 151.49 294.471 151.92 295 151.92Z" fill="#ECECFE"/>
<path d="M75 75.92C75.5291 75.92 75.958 75.4902 75.958 74.96C75.958 74.4298 75.5291 74 75 74C74.4709 74 74.042 74.4298 74.042 74.96C74.042 75.4902 74.4709 75.92 75 75.92Z" fill="#ECECFE"/>
<path d="M515 75.92C515.529 75.92 515.958 75.4902 515.958 74.96C515.958 74.4298 515.529 74 515 74C514.471 74 514.042 74.4298 514.042 74.96C514.042 75.4902 514.471 75.92 515 75.92Z" fill="#ECECFE"/>
<path d="M75 225.92C75.5291 225.92 75.958 225.49 75.958 224.96C75.958 224.43 75.5291 224 75 224C74.4709 224 74.042 224.43 74.042 224.96C74.042 225.49 74.4709 225.92 75 225.92Z" fill="#ECECFE"/>
<path d="M515 225.92C515.529 225.92 515.958 225.49 515.958 224.96C515.958 224.43 515.529 224 515 224C514.471 224 514.042 224.43 514.042 224.96C514.042 225.49 514.471 225.92 515 225.92Z" fill="#ECECFE"/>
<path d="M295 75.92C295.529 75.92 295.958 75.4902 295.958 74.96C295.958 74.4298 295.529 74 295 74C294.471 74 294.042 74.4298 294.042 74.96C294.042 75.4902 294.471 75.92 295 75.92Z" fill="#ECECFE"/>
<path d="M295 225.92C295.529 225.92 295.958 225.49 295.958 224.96C295.958 224.43 295.529 224 295 224C294.471 224 294.042 224.43 294.042 224.96C294.042 225.49 294.471 225.92 295 225.92Z" fill="#ECECFE"/>
<path d="M185 1.92C185.529 1.92 185.958 1.49019 185.958 0.96C185.958 0.429807 185.529 0 185 0C184.471 0 184.042 0.429807 184.042 0.96C184.042 1.49019 184.471 1.92 185 1.92Z" fill="#ECECFE"/>
<path d="M625 1.92C625.529 1.92 625.958 1.49019 625.958 0.96C625.958 0.429807 625.529 0 625 0C624.471 0 624.042 0.429807 624.042 0.96C624.042 1.49019 624.471 1.92 625 1.92Z" fill="#ECECFE"/>
<path d="M185 151.92C185.529 151.92 185.958 151.49 185.958 150.96C185.958 150.43 185.529 150 185 150C184.471 150 184.042 150.43 184.042 150.96C184.042 151.49 184.471 151.92 185 151.92Z" fill="#ECECFE"/>
<path d="M625 151.92C625.529 151.92 625.958 151.49 625.958 150.96C625.958 150.43 625.529 150 625 150C624.471 150 624.042 150.43 624.042 150.96C624.042 151.49 624.471 151.92 625 151.92Z" fill="#ECECFE"/>
<path d="M405 1.92C405.529 1.92 405.958 1.49019 405.958 0.96C405.958 0.429807 405.529 0 405 0C404.471 0 404.042 0.429807 404.042 0.96C404.042 1.49019 404.471 1.92 405 1.92Z" fill="#ECECFE"/>
<path d="M405 151.92C405.529 151.92 405.958 151.49 405.958 150.96C405.958 150.43 405.529 150 405 150C404.471 150 404.042 150.43 404.042 150.96C404.042 151.49 404.471 151.92 405 151.92Z" fill="#ECECFE"/>
<path d="M185 75.92C185.529 75.92 185.958 75.4902 185.958 74.96C185.958 74.4298 185.529 74 185 74C184.471 74 184.042 74.4298 184.042 74.96C184.042 75.4902 184.471 75.92 185 75.92Z" fill="#ECECFE"/>
<path d="M625 75.92C625.529 75.92 625.958 75.4902 625.958 74.96C625.958 74.4298 625.529 74 625 74C624.471 74 624.042 74.4298 624.042 74.96C624.042 75.4902 624.471 75.92 625 75.92Z" fill="#ECECFE"/>
<path d="M185 225.92C185.529 225.92 185.958 225.49 185.958 224.96C185.958 224.43 185.529 224 185 224C184.471 224 184.042 224.43 184.042 224.96C184.042 225.49 184.471 225.92 185 225.92Z" fill="#ECECFE"/>
<path d="M625 225.92C625.529 225.92 625.958 225.49 625.958 224.96C625.958 224.43 625.529 224 625 224C624.471 224 624.042 224.43 624.042 224.96C624.042 225.49 624.471 225.92 625 225.92Z" fill="#ECECFE"/>
<path d="M405 75.92C405.529 75.92 405.958 75.4902 405.958 74.96C405.958 74.4298 405.529 74 405 74C404.471 74 404.042 74.4298 404.042 74.96C404.042 75.4902 404.471 75.92 405 75.92Z" fill="#ECECFE"/>
<path d="M405 225.92C405.529 225.92 405.958 225.49 405.958 224.96C405.958 224.43 405.529 224 405 224C404.471 224 404.042 224.43 404.042 224.96C404.042 225.49 404.471 225.92 405 225.92Z" fill="#ECECFE"/>
<path d="M75 38.92C75.5291 38.92 75.958 38.4902 75.958 37.96C75.958 37.4298 75.5291 37 75 37C74.4709 37 74.042 37.4298 74.042 37.96C74.042 38.4902 74.4709 38.92 75 38.92Z" fill="#ECECFE"/>
<path d="M515 38.92C515.529 38.92 515.958 38.4902 515.958 37.96C515.958 37.4298 515.529 37 515 37C514.471 37 514.042 37.4298 514.042 37.96C514.042 38.4902 514.471 38.92 515 38.92Z" fill="#ECECFE"/>
<path d="M75 188.92C75.5291 188.92 75.958 188.49 75.958 187.96C75.958 187.43 75.5291 187 75 187C74.4709 187 74.042 187.43 74.042 187.96C74.042 188.49 74.4709 188.92 75 188.92Z" fill="#ECECFE"/>
<path d="M515 188.92C515.529 188.92 515.958 188.49 515.958 187.96C515.958 187.43 515.529 187 515 187C514.471 187 514.042 187.43 514.042 187.96C514.042 188.49 514.471 188.92 515 188.92Z" fill="#ECECFE"/>
<path d="M295 38.92C295.529 38.92 295.958 38.4902 295.958 37.96C295.958 37.4298 295.529 37 295 37C294.471 37 294.042 37.4298 294.042 37.96C294.042 38.4902 294.471 38.92 295 38.92Z" fill="#ECECFE"/>
<path d="M295 188.92C295.529 188.92 295.958 188.49 295.958 187.96C295.958 187.43 295.529 187 295 187C294.471 187 294.042 187.43 294.042 187.96C294.042 188.49 294.471 188.92 295 188.92Z" fill="#ECECFE"/>
<path d="M75 112.92C75.5291 112.92 75.958 112.49 75.958 111.96C75.958 111.43 75.5291 111 75 111C74.4709 111 74.042 111.43 74.042 111.96C74.042 112.49 74.4709 112.92 75 112.92Z" fill="#ECECFE"/>
<path d="M515 112.92C515.529 112.92 515.958 112.49 515.958 111.96C515.958 111.43 515.529 111 515 111C514.471 111 514.042 111.43 514.042 111.96C514.042 112.49 514.471 112.92 515 112.92Z" fill="#ECECFE"/>
<path d="M295 112.92C295.529 112.92 295.958 112.49 295.958 111.96C295.958 111.43 295.529 111 295 111C294.471 111 294.042 111.43 294.042 111.96C294.042 112.49 294.471 112.92 295 112.92Z" fill="#ECECFE"/>
<path d="M185 38.92C185.529 38.92 185.958 38.4902 185.958 37.96C185.958 37.4298 185.529 37 185 37C184.471 37 184.042 37.4298 184.042 37.96C184.042 38.4902 184.471 38.92 185 38.92Z" fill="#ECECFE"/>
<path d="M625 38.92C625.529 38.92 625.958 38.4902 625.958 37.96C625.958 37.4298 625.529 37 625 37C624.471 37 624.042 37.4298 624.042 37.96C624.042 38.4902 624.471 38.92 625 38.92Z" fill="#ECECFE"/>
<path d="M185 188.92C185.529 188.92 185.958 188.49 185.958 187.96C185.958 187.43 185.529 187 185 187C184.471 187 184.042 187.43 184.042 187.96C184.042 188.49 184.471 188.92 185 188.92Z" fill="#ECECFE"/>
<path d="M625 188.92C625.529 188.92 625.958 188.49 625.958 187.96C625.958 187.43 625.529 187 625 187C624.471 187 624.042 187.43 624.042 187.96C624.042 188.49 624.471 188.92 625 188.92Z" fill="#ECECFE"/>
<path d="M405 38.92C405.529 38.92 405.958 38.4902 405.958 37.96C405.958 37.4298 405.529 37 405 37C404.471 37 404.042 37.4298 404.042 37.96C404.042 38.4902 404.471 38.92 405 38.92Z" fill="#ECECFE"/>
<path d="M405 188.92C405.529 188.92 405.958 188.49 405.958 187.96C405.958 187.43 405.529 187 405 187C404.471 187 404.042 187.43 404.042 187.96C404.042 188.49 404.471 188.92 405 188.92Z" fill="#ECECFE"/>
<path d="M185 112.92C185.529 112.92 185.958 112.49 185.958 111.96C185.958 111.43 185.529 111 185 111C184.471 111 184.042 111.43 184.042 111.96C184.042 112.49 184.471 112.92 185 112.92Z" fill="#ECECFE"/>
<path d="M625 112.92C625.529 112.92 625.958 112.49 625.958 111.96C625.958 111.43 625.529 111 625 111C624.471 111 624.042 111.43 624.042 111.96C624.042 112.49 624.471 112.92 625 112.92Z" fill="#ECECFE"/>
<path d="M405 112.92C405.529 112.92 405.958 112.49 405.958 111.96C405.958 111.43 405.529 111 405 111C404.471 111 404.042 111.43 404.042 111.96C404.042 112.49 404.471 112.92 405 112.92Z" fill="#ECECFE"/>
<path d="M37.042 1.92C37.5711 1.92 38 1.49019 38 0.96C38 0.429807 37.5711 0 37.042 0C36.5129 0 36.084 0.429807 36.084 0.96C36.084 1.49019 36.5129 1.92 37.042 1.92Z" fill="#ECECFE"/>
<path d="M477.042 1.92C477.571 1.92 478 1.49019 478 0.96C478 0.429807 477.571 0 477.042 0C476.513 0 476.084 0.429807 476.084 0.96C476.084 1.49019 476.513 1.92 477.042 1.92Z" fill="#ECECFE"/>
<path d="M37.042 151.92C37.5711 151.92 38 151.49 38 150.96C38 150.43 37.5711 150 37.042 150C36.5129 150 36.084 150.43 36.084 150.96C36.084 151.49 36.5129 151.92 37.042 151.92Z" fill="#ECECFE"/>
<path d="M477.042 151.92C477.571 151.92 478 151.49 478 150.96C478 150.43 477.571 150 477.042 150C476.513 150 476.084 150.43 476.084 150.96C476.084 151.49 476.513 151.92 477.042 151.92Z" fill="#ECECFE"/>
<path d="M257.042 1.92C257.571 1.92 258 1.49019 258 0.96C258 0.429807 257.571 0 257.042 0C256.513 0 256.084 0.429807 256.084 0.96C256.084 1.49019 256.513 1.92 257.042 1.92Z" fill="#ECECFE"/>
<path d="M257.042 151.92C257.571 151.92 258 151.49 258 150.96C258 150.43 257.571 150 257.042 150C256.513 150 256.084 150.43 256.084 150.96C256.084 151.49 256.513 151.92 257.042 151.92Z" fill="#ECECFE"/>
<path d="M37.042 75.92C37.5711 75.92 38 75.4902 38 74.96C38 74.4298 37.5711 74 37.042 74C36.5129 74 36.084 74.4298 36.084 74.96C36.084 75.4902 36.5129 75.92 37.042 75.92Z" fill="#ECECFE"/>
<path d="M477.042 75.92C477.571 75.92 478 75.4902 478 74.96C478 74.4298 477.571 74 477.042 74C476.513 74 476.084 74.4298 476.084 74.96C476.084 75.4902 476.513 75.92 477.042 75.92Z" fill="#ECECFE"/>
<path d="M37.042 225.92C37.5711 225.92 38 225.49 38 224.96C38 224.43 37.5711 224 37.042 224C36.5129 224 36.084 224.43 36.084 224.96C36.084 225.49 36.5129 225.92 37.042 225.92Z" fill="#ECECFE"/>
<path d="M477.042 225.92C477.571 225.92 478 225.49 478 224.96C478 224.43 477.571 224 477.042 224C476.513 224 476.084 224.43 476.084 224.96C476.084 225.49 476.513 225.92 477.042 225.92Z" fill="#ECECFE"/>
<path d="M257.042 75.92C257.571 75.92 258 75.4902 258 74.96C258 74.4298 257.571 74 257.042 74C256.513 74 256.084 74.4298 256.084 74.96C256.084 75.4902 256.513 75.92 257.042 75.92Z" fill="#ECECFE"/>
<path d="M257.042 225.92C257.571 225.92 258 225.49 258 224.96C258 224.43 257.571 224 257.042 224C256.513 224 256.084 224.43 256.084 224.96C256.084 225.49 256.513 225.92 257.042 225.92Z" fill="#ECECFE"/>
<path d="M147.042 1.92C147.571 1.92 148 1.49019 148 0.96C148 0.429807 147.571 0 147.042 0C146.513 0 146.084 0.429807 146.084 0.96C146.084 1.49019 146.513 1.92 147.042 1.92Z" fill="#ECECFE"/>
<path d="M587.042 1.92C587.571 1.92 588 1.49019 588 0.96C588 0.429807 587.571 0 587.042 0C586.513 0 586.084 0.429807 586.084 0.96C586.084 1.49019 586.513 1.92 587.042 1.92Z" fill="#ECECFE"/>
<path d="M147.042 151.92C147.571 151.92 148 151.49 148 150.96C148 150.43 147.571 150 147.042 150C146.513 150 146.084 150.43 146.084 150.96C146.084 151.49 146.513 151.92 147.042 151.92Z" fill="#ECECFE"/>
<path d="M587.042 151.92C587.571 151.92 588 151.49 588 150.96C588 150.43 587.571 150 587.042 150C586.513 150 586.084 150.43 586.084 150.96C586.084 151.49 586.513 151.92 587.042 151.92Z" fill="#ECECFE"/>
<path d="M367.042 1.92C367.571 1.92 368 1.49019 368 0.96C368 0.429807 367.571 0 367.042 0C366.513 0 366.084 0.429807 366.084 0.96C366.084 1.49019 366.513 1.92 367.042 1.92Z" fill="#ECECFE"/>
<path d="M367.042 151.92C367.571 151.92 368 151.49 368 150.96C368 150.43 367.571 150 367.042 150C366.513 150 366.084 150.43 366.084 150.96C366.084 151.49 366.513 151.92 367.042 151.92Z" fill="#ECECFE"/>
<path d="M147.042 75.92C147.571 75.92 148 75.4902 148 74.96C148 74.4298 147.571 74 147.042 74C146.513 74 146.084 74.4298 146.084 74.96C146.084 75.4902 146.513 75.92 147.042 75.92Z" fill="#ECECFE"/>
<path d="M587.042 75.92C587.571 75.92 588 75.4902 588 74.96C588 74.4298 587.571 74 587.042 74C586.513 74 586.084 74.4298 586.084 74.96C586.084 75.4902 586.513 75.92 587.042 75.92Z" fill="#ECECFE"/>
<path d="M147.042 225.92C147.571 225.92 148 225.49 148 224.96C148 224.43 147.571 224 147.042 224C146.513 224 146.084 224.43 146.084 224.96C146.084 225.49 146.513 225.92 147.042 225.92Z" fill="#ECECFE"/>
<path d="M587.042 225.92C587.571 225.92 588 225.49 588 224.96C588 224.43 587.571 224 587.042 224C586.513 224 586.084 224.43 586.084 224.96C586.084 225.49 586.513 225.92 587.042 225.92Z" fill="#ECECFE"/>
<path d="M367.042 75.92C367.571 75.92 368 75.4902 368 74.96C368 74.4298 367.571 74 367.042 74C366.513 74 366.084 74.4298 366.084 74.96C366.084 75.4902 366.513 75.92 367.042 75.92Z" fill="#ECECFE"/>
<path d="M367.042 225.92C367.571 225.92 368 225.49 368 224.96C368 224.43 367.571 224 367.042 224C366.513 224 366.084 224.43 366.084 224.96C366.084 225.49 366.513 225.92 367.042 225.92Z" fill="#ECECFE"/>
<path d="M37.042 38.92C37.5711 38.92 38 38.4902 38 37.96C38 37.4298 37.5711 37 37.042 37C36.5129 37 36.084 37.4298 36.084 37.96C36.084 38.4902 36.5129 38.92 37.042 38.92Z" fill="#ECECFE"/>
<path d="M477.042 38.92C477.571 38.92 478 38.4902 478 37.96C478 37.4298 477.571 37 477.042 37C476.513 37 476.084 37.4298 476.084 37.96C476.084 38.4902 476.513 38.92 477.042 38.92Z" fill="#ECECFE"/>
<path d="M37.042 188.92C37.5711 188.92 38 188.49 38 187.96C38 187.43 37.5711 187 37.042 187C36.5129 187 36.084 187.43 36.084 187.96C36.084 188.49 36.5129 188.92 37.042 188.92Z" fill="#ECECFE"/>
<path d="M477.042 188.92C477.571 188.92 478 188.49 478 187.96C478 187.43 477.571 187 477.042 187C476.513 187 476.084 187.43 476.084 187.96C476.084 188.49 476.513 188.92 477.042 188.92Z" fill="#ECECFE"/>
<path d="M257.042 38.92C257.571 38.92 258 38.4902 258 37.96C258 37.4298 257.571 37 257.042 37C256.513 37 256.084 37.4298 256.084 37.96C256.084 38.4902 256.513 38.92 257.042 38.92Z" fill="#ECECFE"/>
<path d="M257.042 188.92C257.571 188.92 258 188.49 258 187.96C258 187.43 257.571 187 257.042 187C256.513 187 256.084 187.43 256.084 187.96C256.084 188.49 256.513 188.92 257.042 188.92Z" fill="#ECECFE"/>
<path d="M37.042 112.92C37.5711 112.92 38 112.49 38 111.96C38 111.43 37.5711 111 37.042 111C36.5129 111 36.084 111.43 36.084 111.96C36.084 112.49 36.5129 112.92 37.042 112.92Z" fill="#ECECFE"/>
<path d="M477.042 112.92C477.571 112.92 478 112.49 478 111.96C478 111.43 477.571 111 477.042 111C476.513 111 476.084 111.43 476.084 111.96C476.084 112.49 476.513 112.92 477.042 112.92Z" fill="#ECECFE"/>
<path d="M257.042 112.92C257.571 112.92 258 112.49 258 111.96C258 111.43 257.571 111 257.042 111C256.513 111 256.084 111.43 256.084 111.96C256.084 112.49 256.513 112.92 257.042 112.92Z" fill="#ECECFE"/>
<path d="M147.042 38.92C147.571 38.92 148 38.4902 148 37.96C148 37.4298 147.571 37 147.042 37C146.513 37 146.084 37.4298 146.084 37.96C146.084 38.4902 146.513 38.92 147.042 38.92Z" fill="#ECECFE"/>
<path d="M587.042 38.92C587.571 38.92 588 38.4902 588 37.96C588 37.4298 587.571 37 587.042 37C586.513 37 586.084 37.4298 586.084 37.96C586.084 38.4902 586.513 38.92 587.042 38.92Z" fill="#ECECFE"/>
<path d="M147.042 188.92C147.571 188.92 148 188.49 148 187.96C148 187.43 147.571 187 147.042 187C146.513 187 146.084 187.43 146.084 187.96C146.084 188.49 146.513 188.92 147.042 188.92Z" fill="#ECECFE"/>
<path d="M587.042 188.92C587.571 188.92 588 188.49 588 187.96C588 187.43 587.571 187 587.042 187C586.513 187 586.084 187.43 586.084 187.96C586.084 188.49 586.513 188.92 587.042 188.92Z" fill="#ECECFE"/>
<path d="M367.042 38.92C367.571 38.92 368 38.4902 368 37.96C368 37.4298 367.571 37 367.042 37C366.513 37 366.084 37.4298 366.084 37.96C366.084 38.4902 366.513 38.92 367.042 38.92Z" fill="#ECECFE"/>
<path d="M367.042 188.92C367.571 188.92 368 188.49 368 187.96C368 187.43 367.571 187 367.042 187C366.513 187 366.084 187.43 366.084 187.96C366.084 188.49 366.513 188.92 367.042 188.92Z" fill="#ECECFE"/>
<path d="M147.042 112.92C147.571 112.92 148 112.49 148 111.96C148 111.43 147.571 111 147.042 111C146.513 111 146.084 111.43 146.084 111.96C146.084 112.49 146.513 112.92 147.042 112.92Z" fill="#ECECFE"/>
<path d="M587.042 112.92C587.571 112.92 588 112.49 588 111.96C588 111.43 587.571 111 587.042 111C586.513 111 586.084 111.43 586.084 111.96C586.084 112.49 586.513 112.92 587.042 112.92Z" fill="#ECECFE"/>
<path d="M367.042 112.92C367.571 112.92 368 112.49 368 111.96C368 111.43 367.571 111 367.042 111C366.513 111 366.084 111.43 366.084 111.96C366.084 112.49 366.513 112.92 367.042 112.92Z" fill="#ECECFE"/>
<path d="M93.042 1.92C93.5711 1.92 94 1.49019 94 0.96C94 0.429807 93.5711 0 93.042 0C92.5129 0 92.084 0.429807 92.084 0.96C92.084 1.49019 92.5129 1.92 93.042 1.92Z" fill="#ECECFE"/>
<path d="M533.042 1.92C533.571 1.92 534 1.49019 534 0.96C534 0.429807 533.571 0 533.042 0C532.513 0 532.084 0.429807 532.084 0.96C532.084 1.49019 532.513 1.92 533.042 1.92Z" fill="#ECECFE"/>
<path d="M93.042 151.92C93.5711 151.92 94 151.49 94 150.96C94 150.43 93.5711 150 93.042 150C92.5129 150 92.084 150.43 92.084 150.96C92.084 151.49 92.5129 151.92 93.042 151.92Z" fill="#ECECFE"/>
<path d="M533.042 151.92C533.571 151.92 534 151.49 534 150.96C534 150.43 533.571 150 533.042 150C532.513 150 532.084 150.43 532.084 150.96C532.084 151.49 532.513 151.92 533.042 151.92Z" fill="#ECECFE"/>
<path d="M313.042 1.92C313.571 1.92 314 1.49019 314 0.96C314 0.429807 313.571 0 313.042 0C312.513 0 312.084 0.429807 312.084 0.96C312.084 1.49019 312.513 1.92 313.042 1.92Z" fill="#ECECFE"/>
<path d="M313.042 151.92C313.571 151.92 314 151.49 314 150.96C314 150.43 313.571 150 313.042 150C312.513 150 312.084 150.43 312.084 150.96C312.084 151.49 312.513 151.92 313.042 151.92Z" fill="#ECECFE"/>
<path d="M93.042 75.92C93.5711 75.92 94 75.4902 94 74.96C94 74.4298 93.5711 74 93.042 74C92.5129 74 92.084 74.4298 92.084 74.96C92.084 75.4902 92.5129 75.92 93.042 75.92Z" fill="#ECECFE"/>
<path d="M533.042 75.92C533.571 75.92 534 75.4902 534 74.96C534 74.4298 533.571 74 533.042 74C532.513 74 532.084 74.4298 532.084 74.96C532.084 75.4902 532.513 75.92 533.042 75.92Z" fill="#ECECFE"/>
<path d="M93.042 225.92C93.5711 225.92 94 225.49 94 224.96C94 224.43 93.5711 224 93.042 224C92.5129 224 92.084 224.43 92.084 224.96C92.084 225.49 92.5129 225.92 93.042 225.92Z" fill="#ECECFE"/>
<path d="M533.042 225.92C533.571 225.92 534 225.49 534 224.96C534 224.43 533.571 224 533.042 224C532.513 224 532.084 224.43 532.084 224.96C532.084 225.49 532.513 225.92 533.042 225.92Z" fill="#ECECFE"/>
<path d="M313.042 75.92C313.571 75.92 314 75.4902 314 74.96C314 74.4298 313.571 74 313.042 74C312.513 74 312.084 74.4298 312.084 74.96C312.084 75.4902 312.513 75.92 313.042 75.92Z" fill="#ECECFE"/>
<path d="M313.042 225.92C313.571 225.92 314 225.49 314 224.96C314 224.43 313.571 224 313.042 224C312.513 224 312.084 224.43 312.084 224.96C312.084 225.49 312.513 225.92 313.042 225.92Z" fill="#ECECFE"/>
<path d="M203.042 1.92C203.571 1.92 204 1.49019 204 0.96C204 0.429807 203.571 0 203.042 0C202.513 0 202.084 0.429807 202.084 0.96C202.084 1.49019 202.513 1.92 203.042 1.92Z" fill="#ECECFE"/>
<path d="M203.042 151.92C203.571 151.92 204 151.49 204 150.96C204 150.43 203.571 150 203.042 150C202.513 150 202.084 150.43 202.084 150.96C202.084 151.49 202.513 151.92 203.042 151.92Z" fill="#ECECFE"/>
<path d="M423.042 1.92C423.571 1.92 424 1.49019 424 0.96C424 0.429807 423.571 0 423.042 0C422.513 0 422.084 0.429807 422.084 0.96C422.084 1.49019 422.513 1.92 423.042 1.92Z" fill="#ECECFE"/>
<path d="M423.042 151.92C423.571 151.92 424 151.49 424 150.96C424 150.43 423.571 150 423.042 150C422.513 150 422.084 150.43 422.084 150.96C422.084 151.49 422.513 151.92 423.042 151.92Z" fill="#ECECFE"/>
<path d="M203.042 75.92C203.571 75.92 204 75.4902 204 74.96C204 74.4298 203.571 74 203.042 74C202.513 74 202.084 74.4298 202.084 74.96C202.084 75.4902 202.513 75.92 203.042 75.92Z" fill="#ECECFE"/>
<path d="M203.042 225.92C203.571 225.92 204 225.49 204 224.96C204 224.43 203.571 224 203.042 224C202.513 224 202.084 224.43 202.084 224.96C202.084 225.49 202.513 225.92 203.042 225.92Z" fill="#ECECFE"/>
<path d="M423.042 75.92C423.571 75.92 424 75.4902 424 74.96C424 74.4298 423.571 74 423.042 74C422.513 74 422.084 74.4298 422.084 74.96C422.084 75.4902 422.513 75.92 423.042 75.92Z" fill="#ECECFE"/>
<path d="M423.042 225.92C423.571 225.92 424 225.49 424 224.96C424 224.43 423.571 224 423.042 224C422.513 224 422.084 224.43 422.084 224.96C422.084 225.49 422.513 225.92 423.042 225.92Z" fill="#ECECFE"/>
<path d="M93.042 38.92C93.5711 38.92 94 38.4902 94 37.96C94 37.4298 93.5711 37 93.042 37C92.5129 37 92.084 37.4298 92.084 37.96C92.084 38.4902 92.5129 38.92 93.042 38.92Z" fill="#ECECFE"/>
<path d="M533.042 38.92C533.571 38.92 534 38.4902 534 37.96C534 37.4298 533.571 37 533.042 37C532.513 37 532.084 37.4298 532.084 37.96C532.084 38.4902 532.513 38.92 533.042 38.92Z" fill="#ECECFE"/>
<path d="M93.042 188.92C93.5711 188.92 94 188.49 94 187.96C94 187.43 93.5711 187 93.042 187C92.5129 187 92.084 187.43 92.084 187.96C92.084 188.49 92.5129 188.92 93.042 188.92Z" fill="#ECECFE"/>
<path d="M533.042 188.92C533.571 188.92 534 188.49 534 187.96C534 187.43 533.571 187 533.042 187C532.513 187 532.084 187.43 532.084 187.96C532.084 188.49 532.513 188.92 533.042 188.92Z" fill="#ECECFE"/>
<path d="M313.042 38.92C313.571 38.92 314 38.4902 314 37.96C314 37.4298 313.571 37 313.042 37C312.513 37 312.084 37.4298 312.084 37.96C312.084 38.4902 312.513 38.92 313.042 38.92Z" fill="#ECECFE"/>
<path d="M313.042 188.92C313.571 188.92 314 188.49 314 187.96C314 187.43 313.571 187 313.042 187C312.513 187 312.084 187.43 312.084 187.96C312.084 188.49 312.513 188.92 313.042 188.92Z" fill="#ECECFE"/>
<path d="M93.042 112.92C93.5711 112.92 94 112.49 94 111.96C94 111.43 93.5711 111 93.042 111C92.5129 111 92.084 111.43 92.084 111.96C92.084 112.49 92.5129 112.92 93.042 112.92Z" fill="#ECECFE"/>
<path d="M533.042 112.92C533.571 112.92 534 112.49 534 111.96C534 111.43 533.571 111 533.042 111C532.513 111 532.084 111.43 532.084 111.96C532.084 112.49 532.513 112.92 533.042 112.92Z" fill="#ECECFE"/>
<path d="M313.042 112.92C313.571 112.92 314 112.49 314 111.96C314 111.43 313.571 111 313.042 111C312.513 111 312.084 111.43 312.084 111.96C312.084 112.49 312.513 112.92 313.042 112.92Z" fill="#ECECFE"/>
<path d="M203.042 38.92C203.571 38.92 204 38.4902 204 37.96C204 37.4298 203.571 37 203.042 37C202.513 37 202.084 37.4298 202.084 37.96C202.084 38.4902 202.513 38.92 203.042 38.92Z" fill="#ECECFE"/>
<path d="M203.042 188.92C203.571 188.92 204 188.49 204 187.96C204 187.43 203.571 187 203.042 187C202.513 187 202.084 187.43 202.084 187.96C202.084 188.49 202.513 188.92 203.042 188.92Z" fill="#ECECFE"/>
<path d="M423.042 38.92C423.571 38.92 424 38.4902 424 37.96C424 37.4298 423.571 37 423.042 37C422.513 37 422.084 37.4298 422.084 37.96C422.084 38.4902 422.513 38.92 423.042 38.92Z" fill="#ECECFE"/>
<path d="M423.042 188.92C423.571 188.92 424 188.49 424 187.96C424 187.43 423.571 187 423.042 187C422.513 187 422.084 187.43 422.084 187.96C422.084 188.49 422.513 188.92 423.042 188.92Z" fill="#ECECFE"/>
<path d="M203.042 112.92C203.571 112.92 204 112.49 204 111.96C204 111.43 203.571 111 203.042 111C202.513 111 202.084 111.43 202.084 111.96C202.084 112.49 202.513 112.92 203.042 112.92Z" fill="#ECECFE"/>
<path d="M423.042 112.92C423.571 112.92 424 112.49 424 111.96C424 111.43 423.571 111 423.042 111C422.513 111 422.084 111.43 422.084 111.96C422.084 112.49 422.513 112.92 423.042 112.92Z" fill="#ECECFE"/>
<path d="M19 20C19.5291 20 19.958 19.5702 19.958 19.04C19.958 18.5098 19.5291 18.08 19 18.08C18.4709 18.08 18.042 18.5098 18.042 19.04C18.042 19.5702 18.4709 20 19 20Z" fill="#ECECFE"/>
<path d="M459 20C459.529 20 459.958 19.5702 459.958 19.04C459.958 18.5098 459.529 18.08 459 18.08C458.471 18.08 458.042 18.5098 458.042 19.04C458.042 19.5702 458.471 20 459 20Z" fill="#ECECFE"/>
<path d="M19 170C19.5291 170 19.958 169.57 19.958 169.04C19.958 168.51 19.5291 168.08 19 168.08C18.4709 168.08 18.042 168.51 18.042 169.04C18.042 169.57 18.4709 170 19 170Z" fill="#ECECFE"/>
<path d="M459 170C459.529 170 459.958 169.57 459.958 169.04C459.958 168.51 459.529 168.08 459 168.08C458.471 168.08 458.042 168.51 458.042 169.04C458.042 169.57 458.471 170 459 170Z" fill="#ECECFE"/>
<path d="M239 20C239.529 20 239.958 19.5702 239.958 19.04C239.958 18.5098 239.529 18.08 239 18.08C238.471 18.08 238.042 18.5098 238.042 19.04C238.042 19.5702 238.471 20 239 20Z" fill="#ECECFE"/>
<path d="M239 170C239.529 170 239.958 169.57 239.958 169.04C239.958 168.51 239.529 168.08 239 168.08C238.471 168.08 238.042 168.51 238.042 169.04C238.042 169.57 238.471 170 239 170Z" fill="#ECECFE"/>
<path d="M19 94C19.5291 94 19.958 93.5702 19.958 93.04C19.958 92.5098 19.5291 92.08 19 92.08C18.4709 92.08 18.042 92.5098 18.042 93.04C18.042 93.5702 18.4709 94 19 94Z" fill="#ECECFE"/>
<path d="M459 94C459.529 94 459.958 93.5702 459.958 93.04C459.958 92.5098 459.529 92.08 459 92.08C458.471 92.08 458.042 92.5098 458.042 93.04C458.042 93.5702 458.471 94 459 94Z" fill="#ECECFE"/>
<path d="M239 94C239.529 94 239.958 93.5702 239.958 93.04C239.958 92.5098 239.529 92.08 239 92.08C238.471 92.08 238.042 92.5098 238.042 93.04C238.042 93.5702 238.471 94 239 94Z" fill="#ECECFE"/>
<path d="M129 20C129.529 20 129.958 19.5702 129.958 19.04C129.958 18.5098 129.529 18.08 129 18.08C128.471 18.08 128.042 18.5098 128.042 19.04C128.042 19.5702 128.471 20 129 20Z" fill="#ECECFE"/>
<path d="M569 20C569.529 20 569.958 19.5702 569.958 19.04C569.958 18.5098 569.529 18.08 569 18.08C568.471 18.08 568.042 18.5098 568.042 19.04C568.042 19.5702 568.471 20 569 20Z" fill="#ECECFE"/>
<path d="M129 170C129.529 170 129.958 169.57 129.958 169.04C129.958 168.51 129.529 168.08 129 168.08C128.471 168.08 128.042 168.51 128.042 169.04C128.042 169.57 128.471 170 129 170Z" fill="#ECECFE"/>
<path d="M569 170C569.529 170 569.958 169.57 569.958 169.04C569.958 168.51 569.529 168.08 569 168.08C568.471 168.08 568.042 168.51 568.042 169.04C568.042 169.57 568.471 170 569 170Z" fill="#ECECFE"/>
<path d="M349 20C349.529 20 349.958 19.5702 349.958 19.04C349.958 18.5098 349.529 18.08 349 18.08C348.471 18.08 348.042 18.5098 348.042 19.04C348.042 19.5702 348.471 20 349 20Z" fill="#ECECFE"/>
<path d="M349 170C349.529 170 349.958 169.57 349.958 169.04C349.958 168.51 349.529 168.08 349 168.08C348.471 168.08 348.042 168.51 348.042 169.04C348.042 169.57 348.471 170 349 170Z" fill="#ECECFE"/>
<path d="M129 94C129.529 94 129.958 93.5702 129.958 93.04C129.958 92.5098 129.529 92.08 129 92.08C128.471 92.08 128.042 92.5098 128.042 93.04C128.042 93.5702 128.471 94 129 94Z" fill="#ECECFE"/>
<path d="M569 94C569.529 94 569.958 93.5702 569.958 93.04C569.958 92.5098 569.529 92.08 569 92.08C568.471 92.08 568.042 92.5098 568.042 93.04C568.042 93.5702 568.471 94 569 94Z" fill="#ECECFE"/>
<path d="M349 94C349.529 94 349.958 93.5702 349.958 93.04C349.958 92.5098 349.529 92.08 349 92.08C348.471 92.08 348.042 92.5098 348.042 93.04C348.042 93.5702 348.471 94 349 94Z" fill="#ECECFE"/>
<path d="M19 57C19.5291 57 19.958 56.5702 19.958 56.04C19.958 55.5098 19.5291 55.08 19 55.08C18.4709 55.08 18.042 55.5098 18.042 56.04C18.042 56.5702 18.4709 57 19 57Z" fill="#ECECFE"/>
<path d="M459 57C459.529 57 459.958 56.5702 459.958 56.04C459.958 55.5098 459.529 55.08 459 55.08C458.471 55.08 458.042 55.5098 458.042 56.04C458.042 56.5702 458.471 57 459 57Z" fill="#ECECFE"/>
<path d="M19 207C19.5291 207 19.958 206.57 19.958 206.04C19.958 205.51 19.5291 205.08 19 205.08C18.4709 205.08 18.042 205.51 18.042 206.04C18.042 206.57 18.4709 207 19 207Z" fill="#ECECFE"/>
<path d="M459 207C459.529 207 459.958 206.57 459.958 206.04C459.958 205.51 459.529 205.08 459 205.08C458.471 205.08 458.042 205.51 458.042 206.04C458.042 206.57 458.471 207 459 207Z" fill="#ECECFE"/>
<path d="M239 57C239.529 57 239.958 56.5702 239.958 56.04C239.958 55.5098 239.529 55.08 239 55.08C238.471 55.08 238.042 55.5098 238.042 56.04C238.042 56.5702 238.471 57 239 57Z" fill="#ECECFE"/>
<path d="M239 207C239.529 207 239.958 206.57 239.958 206.04C239.958 205.51 239.529 205.08 239 205.08C238.471 205.08 238.042 205.51 238.042 206.04C238.042 206.57 238.471 207 239 207Z" fill="#ECECFE"/>
<path d="M19 131C19.5291 131 19.958 130.57 19.958 130.04C19.958 129.51 19.5291 129.08 19 129.08C18.4709 129.08 18.042 129.51 18.042 130.04C18.042 130.57 18.4709 131 19 131Z" fill="#ECECFE"/>
<path d="M459 131C459.529 131 459.958 130.57 459.958 130.04C459.958 129.51 459.529 129.08 459 129.08C458.471 129.08 458.042 129.51 458.042 130.04C458.042 130.57 458.471 131 459 131Z" fill="#ECECFE"/>
<path d="M239 131C239.529 131 239.958 130.57 239.958 130.04C239.958 129.51 239.529 129.08 239 129.08C238.471 129.08 238.042 129.51 238.042 130.04C238.042 130.57 238.471 131 239 131Z" fill="#ECECFE"/>
<path d="M129 57C129.529 57 129.958 56.5702 129.958 56.04C129.958 55.5098 129.529 55.08 129 55.08C128.471 55.08 128.042 55.5098 128.042 56.04C128.042 56.5702 128.471 57 129 57Z" fill="#ECECFE"/>
<path d="M569 57C569.529 57 569.958 56.5702 569.958 56.04C569.958 55.5098 569.529 55.08 569 55.08C568.471 55.08 568.042 55.5098 568.042 56.04C568.042 56.5702 568.471 57 569 57Z" fill="#ECECFE"/>
<path d="M129 207C129.529 207 129.958 206.57 129.958 206.04C129.958 205.51 129.529 205.08 129 205.08C128.471 205.08 128.042 205.51 128.042 206.04C128.042 206.57 128.471 207 129 207Z" fill="#ECECFE"/>
<path d="M569 207C569.529 207 569.958 206.57 569.958 206.04C569.958 205.51 569.529 205.08 569 205.08C568.471 205.08 568.042 205.51 568.042 206.04C568.042 206.57 568.471 207 569 207Z" fill="#ECECFE"/>
<path d="M349 57C349.529 57 349.958 56.5702 349.958 56.04C349.958 55.5098 349.529 55.08 349 55.08C348.471 55.08 348.042 55.5098 348.042 56.04C348.042 56.5702 348.471 57 349 57Z" fill="#ECECFE"/>
<path d="M349 207C349.529 207 349.958 206.57 349.958 206.04C349.958 205.51 349.529 205.08 349 205.08C348.471 205.08 348.042 205.51 348.042 206.04C348.042 206.57 348.471 207 349 207Z" fill="#ECECFE"/>
<path d="M129 131C129.529 131 129.958 130.57 129.958 130.04C129.958 129.51 129.529 129.08 129 129.08C128.471 129.08 128.042 129.51 128.042 130.04C128.042 130.57 128.471 131 129 131Z" fill="#ECECFE"/>
<path d="M569 131C569.529 131 569.958 130.57 569.958 130.04C569.958 129.51 569.529 129.08 569 129.08C568.471 129.08 568.042 129.51 568.042 130.04C568.042 130.57 568.471 131 569 131Z" fill="#ECECFE"/>
<path d="M349 131C349.529 131 349.958 130.57 349.958 130.04C349.958 129.51 349.529 129.08 349 129.08C348.471 129.08 348.042 129.51 348.042 130.04C348.042 130.57 348.471 131 349 131Z" fill="#ECECFE"/>
<path d="M75 20C75.5291 20 75.958 19.5702 75.958 19.04C75.958 18.5098 75.5291 18.08 75 18.08C74.4709 18.08 74.042 18.5098 74.042 19.04C74.042 19.5702 74.4709 20 75 20Z" fill="#ECECFE"/>
<path d="M515 20C515.529 20 515.958 19.5702 515.958 19.04C515.958 18.5098 515.529 18.08 515 18.08C514.471 18.08 514.042 18.5098 514.042 19.04C514.042 19.5702 514.471 20 515 20Z" fill="#ECECFE"/>
<path d="M75 170C75.5291 170 75.958 169.57 75.958 169.04C75.958 168.51 75.5291 168.08 75 168.08C74.4709 168.08 74.042 168.51 74.042 169.04C74.042 169.57 74.4709 170 75 170Z" fill="#ECECFE"/>
<path d="M515 170C515.529 170 515.958 169.57 515.958 169.04C515.958 168.51 515.529 168.08 515 168.08C514.471 168.08 514.042 168.51 514.042 169.04C514.042 169.57 514.471 170 515 170Z" fill="#ECECFE"/>
<path d="M295 20C295.529 20 295.958 19.5702 295.958 19.04C295.958 18.5098 295.529 18.08 295 18.08C294.471 18.08 294.042 18.5098 294.042 19.04C294.042 19.5702 294.471 20 295 20Z" fill="#ECECFE"/>
<path d="M295 170C295.529 170 295.958 169.57 295.958 169.04C295.958 168.51 295.529 168.08 295 168.08C294.471 168.08 294.042 168.51 294.042 169.04C294.042 169.57 294.471 170 295 170Z" fill="#ECECFE"/>
<path d="M75 94C75.5291 94 75.958 93.5702 75.958 93.04C75.958 92.5098 75.5291 92.08 75 92.08C74.4709 92.08 74.042 92.5098 74.042 93.04C74.042 93.5702 74.4709 94 75 94Z" fill="#ECECFE"/>
<path d="M515 94C515.529 94 515.958 93.5702 515.958 93.04C515.958 92.5098 515.529 92.08 515 92.08C514.471 92.08 514.042 92.5098 514.042 93.04C514.042 93.5702 514.471 94 515 94Z" fill="#ECECFE"/>
<path d="M295 94C295.529 94 295.958 93.5702 295.958 93.04C295.958 92.5098 295.529 92.08 295 92.08C294.471 92.08 294.042 92.5098 294.042 93.04C294.042 93.5702 294.471 94 295 94Z" fill="#ECECFE"/>
<path d="M185 20C185.529 20 185.958 19.5702 185.958 19.04C185.958 18.5098 185.529 18.08 185 18.08C184.471 18.08 184.042 18.5098 184.042 19.04C184.042 19.5702 184.471 20 185 20Z" fill="#ECECFE"/>
<path d="M625 20C625.529 20 625.958 19.5702 625.958 19.04C625.958 18.5098 625.529 18.08 625 18.08C624.471 18.08 624.042 18.5098 624.042 19.04C624.042 19.5702 624.471 20 625 20Z" fill="#ECECFE"/>
<path d="M185 170C185.529 170 185.958 169.57 185.958 169.04C185.958 168.51 185.529 168.08 185 168.08C184.471 168.08 184.042 168.51 184.042 169.04C184.042 169.57 184.471 170 185 170Z" fill="#ECECFE"/>
<path d="M625 170C625.529 170 625.958 169.57 625.958 169.04C625.958 168.51 625.529 168.08 625 168.08C624.471 168.08 624.042 168.51 624.042 169.04C624.042 169.57 624.471 170 625 170Z" fill="#ECECFE"/>
<path d="M405 20C405.529 20 405.958 19.5702 405.958 19.04C405.958 18.5098 405.529 18.08 405 18.08C404.471 18.08 404.042 18.5098 404.042 19.04C404.042 19.5702 404.471 20 405 20Z" fill="#ECECFE"/>
<path d="M405 170C405.529 170 405.958 169.57 405.958 169.04C405.958 168.51 405.529 168.08 405 168.08C404.471 168.08 404.042 168.51 404.042 169.04C404.042 169.57 404.471 170 405 170Z" fill="#ECECFE"/>
<path d="M185 94C185.529 94 185.958 93.5702 185.958 93.04C185.958 92.5098 185.529 92.08 185 92.08C184.471 92.08 184.042 92.5098 184.042 93.04C184.042 93.5702 184.471 94 185 94Z" fill="#ECECFE"/>
<path d="M625 94C625.529 94 625.958 93.5702 625.958 93.04C625.958 92.5098 625.529 92.08 625 92.08C624.471 92.08 624.042 92.5098 624.042 93.04C624.042 93.5702 624.471 94 625 94Z" fill="#ECECFE"/>
<path d="M405 94C405.529 94 405.958 93.5702 405.958 93.04C405.958 92.5098 405.529 92.08 405 92.08C404.471 92.08 404.042 92.5098 404.042 93.04C404.042 93.5702 404.471 94 405 94Z" fill="#ECECFE"/>
<path d="M75 57C75.5291 57 75.958 56.5702 75.958 56.04C75.958 55.5098 75.5291 55.08 75 55.08C74.4709 55.08 74.042 55.5098 74.042 56.04C74.042 56.5702 74.4709 57 75 57Z" fill="#ECECFE"/>
<path d="M515 57C515.529 57 515.958 56.5702 515.958 56.04C515.958 55.5098 515.529 55.08 515 55.08C514.471 55.08 514.042 55.5098 514.042 56.04C514.042 56.5702 514.471 57 515 57Z" fill="#ECECFE"/>
<path d="M75 207C75.5291 207 75.958 206.57 75.958 206.04C75.958 205.51 75.5291 205.08 75 205.08C74.4709 205.08 74.042 205.51 74.042 206.04C74.042 206.57 74.4709 207 75 207Z" fill="#ECECFE"/>
<path d="M515 207C515.529 207 515.958 206.57 515.958 206.04C515.958 205.51 515.529 205.08 515 205.08C514.471 205.08 514.042 205.51 514.042 206.04C514.042 206.57 514.471 207 515 207Z" fill="#ECECFE"/>
<path d="M295 57C295.529 57 295.958 56.5702 295.958 56.04C295.958 55.5098 295.529 55.08 295 55.08C294.471 55.08 294.042 55.5098 294.042 56.04C294.042 56.5702 294.471 57 295 57Z" fill="#ECECFE"/>
<path d="M295 207C295.529 207 295.958 206.57 295.958 206.04C295.958 205.51 295.529 205.08 295 205.08C294.471 205.08 294.042 205.51 294.042 206.04C294.042 206.57 294.471 207 295 207Z" fill="#ECECFE"/>
<path d="M75 131C75.5291 131 75.958 130.57 75.958 130.04C75.958 129.51 75.5291 129.08 75 129.08C74.4709 129.08 74.042 129.51 74.042 130.04C74.042 130.57 74.4709 131 75 131Z" fill="#ECECFE"/>
<path d="M515 131C515.529 131 515.958 130.57 515.958 130.04C515.958 129.51 515.529 129.08 515 129.08C514.471 129.08 514.042 129.51 514.042 130.04C514.042 130.57 514.471 131 515 131Z" fill="#ECECFE"/>
<path d="M295 131C295.529 131 295.958 130.57 295.958 130.04C295.958 129.51 295.529 129.08 295 129.08C294.471 129.08 294.042 129.51 294.042 130.04C294.042 130.57 294.471 131 295 131Z" fill="#ECECFE"/>
<path d="M185 57C185.529 57 185.958 56.5702 185.958 56.04C185.958 55.5098 185.529 55.08 185 55.08C184.471 55.08 184.042 55.5098 184.042 56.04C184.042 56.5702 184.471 57 185 57Z" fill="#ECECFE"/>
<path d="M625 57C625.529 57 625.958 56.5702 625.958 56.04C625.958 55.5098 625.529 55.08 625 55.08C624.471 55.08 624.042 55.5098 624.042 56.04C624.042 56.5702 624.471 57 625 57Z" fill="#ECECFE"/>
<path d="M185 207C185.529 207 185.958 206.57 185.958 206.04C185.958 205.51 185.529 205.08 185 205.08C184.471 205.08 184.042 205.51 184.042 206.04C184.042 206.57 184.471 207 185 207Z" fill="#ECECFE"/>
<path d="M625 207C625.529 207 625.958 206.57 625.958 206.04C625.958 205.51 625.529 205.08 625 205.08C624.471 205.08 624.042 205.51 624.042 206.04C624.042 206.57 624.471 207 625 207Z" fill="#ECECFE"/>
<path d="M405 57C405.529 57 405.958 56.5702 405.958 56.04C405.958 55.5098 405.529 55.08 405 55.08C404.471 55.08 404.042 55.5098 404.042 56.04C404.042 56.5702 404.471 57 405 57Z" fill="#ECECFE"/>
<path d="M405 207C405.529 207 405.958 206.57 405.958 206.04C405.958 205.51 405.529 205.08 405 205.08C404.471 205.08 404.042 205.51 404.042 206.04C404.042 206.57 404.471 207 405 207Z" fill="#ECECFE"/>
<path d="M185 131C185.529 131 185.958 130.57 185.958 130.04C185.958 129.51 185.529 129.08 185 129.08C184.471 129.08 184.042 129.51 184.042 130.04C184.042 130.57 184.471 131 185 131Z" fill="#ECECFE"/>
<path d="M625 131C625.529 131 625.958 130.57 625.958 130.04C625.958 129.51 625.529 129.08 625 129.08C624.471 129.08 624.042 129.51 624.042 130.04C624.042 130.57 624.471 131 625 131Z" fill="#ECECFE"/>
<path d="M405 131C405.529 131 405.958 130.57 405.958 130.04C405.958 129.51 405.529 129.08 405 129.08C404.471 129.08 404.042 129.51 404.042 130.04C404.042 130.57 404.471 131 405 131Z" fill="#ECECFE"/>
<path d="M37.042 20C37.5711 20 38 19.5702 38 19.04C38 18.5098 37.5711 18.08 37.042 18.08C36.5129 18.08 36.084 18.5098 36.084 19.04C36.084 19.5702 36.5129 20 37.042 20Z" fill="#ECECFE"/>
<path d="M477.042 20C477.571 20 478 19.5702 478 19.04C478 18.5098 477.571 18.08 477.042 18.08C476.513 18.08 476.084 18.5098 476.084 19.04C476.084 19.5702 476.513 20 477.042 20Z" fill="#ECECFE"/>
<path d="M37.042 170C37.5711 170 38 169.57 38 169.04C38 168.51 37.5711 168.08 37.042 168.08C36.5129 168.08 36.084 168.51 36.084 169.04C36.084 169.57 36.5129 170 37.042 170Z" fill="#ECECFE"/>
<path d="M477.042 170C477.571 170 478 169.57 478 169.04C478 168.51 477.571 168.08 477.042 168.08C476.513 168.08 476.084 168.51 476.084 169.04C476.084 169.57 476.513 170 477.042 170Z" fill="#ECECFE"/>
<path d="M257.042 20C257.571 20 258 19.5702 258 19.04C258 18.5098 257.571 18.08 257.042 18.08C256.513 18.08 256.084 18.5098 256.084 19.04C256.084 19.5702 256.513 20 257.042 20Z" fill="#ECECFE"/>
<path d="M257.042 170C257.571 170 258 169.57 258 169.04C258 168.51 257.571 168.08 257.042 168.08C256.513 168.08 256.084 168.51 256.084 169.04C256.084 169.57 256.513 170 257.042 170Z" fill="#ECECFE"/>
<path d="M37.042 94C37.5711 94 38 93.5702 38 93.04C38 92.5098 37.5711 92.08 37.042 92.08C36.5129 92.08 36.084 92.5098 36.084 93.04C36.084 93.5702 36.5129 94 37.042 94Z" fill="#ECECFE"/>
<path d="M477.042 94C477.571 94 478 93.5702 478 93.04C478 92.5098 477.571 92.08 477.042 92.08C476.513 92.08 476.084 92.5098 476.084 93.04C476.084 93.5702 476.513 94 477.042 94Z" fill="#ECECFE"/>
<path d="M257.042 94C257.571 94 258 93.5702 258 93.04C258 92.5098 257.571 92.08 257.042 92.08C256.513 92.08 256.084 92.5098 256.084 93.04C256.084 93.5702 256.513 94 257.042 94Z" fill="#ECECFE"/>
<path d="M147.042 20C147.571 20 148 19.5702 148 19.04C148 18.5098 147.571 18.08 147.042 18.08C146.513 18.08 146.084 18.5098 146.084 19.04C146.084 19.5702 146.513 20 147.042 20Z" fill="#ECECFE"/>
<path d="M587.042 20C587.571 20 588 19.5702 588 19.04C588 18.5098 587.571 18.08 587.042 18.08C586.513 18.08 586.084 18.5098 586.084 19.04C586.084 19.5702 586.513 20 587.042 20Z" fill="#ECECFE"/>
<path d="M147.042 170C147.571 170 148 169.57 148 169.04C148 168.51 147.571 168.08 147.042 168.08C146.513 168.08 146.084 168.51 146.084 169.04C146.084 169.57 146.513 170 147.042 170Z" fill="#ECECFE"/>
<path d="M587.042 170C587.571 170 588 169.57 588 169.04C588 168.51 587.571 168.08 587.042 168.08C586.513 168.08 586.084 168.51 586.084 169.04C586.084 169.57 586.513 170 587.042 170Z" fill="#ECECFE"/>
<path d="M367.042 20C367.571 20 368 19.5702 368 19.04C368 18.5098 367.571 18.08 367.042 18.08C366.513 18.08 366.084 18.5098 366.084 19.04C366.084 19.5702 366.513 20 367.042 20Z" fill="#ECECFE"/>
<path d="M367.042 170C367.571 170 368 169.57 368 169.04C368 168.51 367.571 168.08 367.042 168.08C366.513 168.08 366.084 168.51 366.084 169.04C366.084 169.57 366.513 170 367.042 170Z" fill="#ECECFE"/>
<path d="M147.042 94C147.571 94 148 93.5702 148 93.04C148 92.5098 147.571 92.08 147.042 92.08C146.513 92.08 146.084 92.5098 146.084 93.04C146.084 93.5702 146.513 94 147.042 94Z" fill="#ECECFE"/>
<path d="M587.042 94C587.571 94 588 93.5702 588 93.04C588 92.5098 587.571 92.08 587.042 92.08C586.513 92.08 586.084 92.5098 586.084 93.04C586.084 93.5702 586.513 94 587.042 94Z" fill="#ECECFE"/>
<path d="M367.042 94C367.571 94 368 93.5702 368 93.04C368 92.5098 367.571 92.08 367.042 92.08C366.513 92.08 366.084 92.5098 366.084 93.04C366.084 93.5702 366.513 94 367.042 94Z" fill="#ECECFE"/>
<path d="M37.042 57C37.5711 57 38 56.5702 38 56.04C38 55.5098 37.5711 55.08 37.042 55.08C36.5129 55.08 36.084 55.5098 36.084 56.04C36.084 56.5702 36.5129 57 37.042 57Z" fill="#ECECFE"/>
<path d="M477.042 57C477.571 57 478 56.5702 478 56.04C478 55.5098 477.571 55.08 477.042 55.08C476.513 55.08 476.084 55.5098 476.084 56.04C476.084 56.5702 476.513 57 477.042 57Z" fill="#ECECFE"/>
<path d="M37.042 207C37.5711 207 38 206.57 38 206.04C38 205.51 37.5711 205.08 37.042 205.08C36.5129 205.08 36.084 205.51 36.084 206.04C36.084 206.57 36.5129 207 37.042 207Z" fill="#ECECFE"/>
<path d="M477.042 207C477.571 207 478 206.57 478 206.04C478 205.51 477.571 205.08 477.042 205.08C476.513 205.08 476.084 205.51 476.084 206.04C476.084 206.57 476.513 207 477.042 207Z" fill="#ECECFE"/>
<path d="M257.042 57C257.571 57 258 56.5702 258 56.04C258 55.5098 257.571 55.08 257.042 55.08C256.513 55.08 256.084 55.5098 256.084 56.04C256.084 56.5702 256.513 57 257.042 57Z" fill="#ECECFE"/>
<path d="M257.042 207C257.571 207 258 206.57 258 206.04C258 205.51 257.571 205.08 257.042 205.08C256.513 205.08 256.084 205.51 256.084 206.04C256.084 206.57 256.513 207 257.042 207Z" fill="#ECECFE"/>
<path d="M37.042 131C37.5711 131 38 130.57 38 130.04C38 129.51 37.5711 129.08 37.042 129.08C36.5129 129.08 36.084 129.51 36.084 130.04C36.084 130.57 36.5129 131 37.042 131Z" fill="#ECECFE"/>
<path d="M477.042 131C477.571 131 478 130.57 478 130.04C478 129.51 477.571 129.08 477.042 129.08C476.513 129.08 476.084 129.51 476.084 130.04C476.084 130.57 476.513 131 477.042 131Z" fill="#ECECFE"/>
<path d="M257.042 131C257.571 131 258 130.57 258 130.04C258 129.51 257.571 129.08 257.042 129.08C256.513 129.08 256.084 129.51 256.084 130.04C256.084 130.57 256.513 131 257.042 131Z" fill="#ECECFE"/>
<path d="M147.042 57C147.571 57 148 56.5702 148 56.04C148 55.5098 147.571 55.08 147.042 55.08C146.513 55.08 146.084 55.5098 146.084 56.04C146.084 56.5702 146.513 57 147.042 57Z" fill="#ECECFE"/>
<path d="M587.042 57C587.571 57 588 56.5702 588 56.04C588 55.5098 587.571 55.08 587.042 55.08C586.513 55.08 586.084 55.5098 586.084 56.04C586.084 56.5702 586.513 57 587.042 57Z" fill="#ECECFE"/>
<path d="M147.042 207C147.571 207 148 206.57 148 206.04C148 205.51 147.571 205.08 147.042 205.08C146.513 205.08 146.084 205.51 146.084 206.04C146.084 206.57 146.513 207 147.042 207Z" fill="#ECECFE"/>
<path d="M587.042 207C587.571 207 588 206.57 588 206.04C588 205.51 587.571 205.08 587.042 205.08C586.513 205.08 586.084 205.51 586.084 206.04C586.084 206.57 586.513 207 587.042 207Z" fill="#ECECFE"/>
<path d="M367.042 57C367.571 57 368 56.5702 368 56.04C368 55.5098 367.571 55.08 367.042 55.08C366.513 55.08 366.084 55.5098 366.084 56.04C366.084 56.5702 366.513 57 367.042 57Z" fill="#ECECFE"/>
<path d="M367.042 207C367.571 207 368 206.57 368 206.04C368 205.51 367.571 205.08 367.042 205.08C366.513 205.08 366.084 205.51 366.084 206.04C366.084 206.57 366.513 207 367.042 207Z" fill="#ECECFE"/>
<path d="M147.042 131C147.571 131 148 130.57 148 130.04C148 129.51 147.571 129.08 147.042 129.08C146.513 129.08 146.084 129.51 146.084 130.04C146.084 130.57 146.513 131 147.042 131Z" fill="#ECECFE"/>
<path d="M587.042 131C587.571 131 588 130.57 588 130.04C588 129.51 587.571 129.08 587.042 129.08C586.513 129.08 586.084 129.51 586.084 130.04C586.084 130.57 586.513 131 587.042 131Z" fill="#ECECFE"/>
<path d="M367.042 131C367.571 131 368 130.57 368 130.04C368 129.51 367.571 129.08 367.042 129.08C366.513 129.08 366.084 129.51 366.084 130.04C366.084 130.57 366.513 131 367.042 131Z" fill="#ECECFE"/>
<path d="M93.042 20C93.5711 20 94 19.5702 94 19.04C94 18.5098 93.5711 18.08 93.042 18.08C92.5129 18.08 92.084 18.5098 92.084 19.04C92.084 19.5702 92.5129 20 93.042 20Z" fill="#ECECFE"/>
<path d="M533.042 20C533.571 20 534 19.5702 534 19.04C534 18.5098 533.571 18.08 533.042 18.08C532.513 18.08 532.084 18.5098 532.084 19.04C532.084 19.5702 532.513 20 533.042 20Z" fill="#ECECFE"/>
<path d="M93.042 170C93.5711 170 94 169.57 94 169.04C94 168.51 93.5711 168.08 93.042 168.08C92.5129 168.08 92.084 168.51 92.084 169.04C92.084 169.57 92.5129 170 93.042 170Z" fill="#ECECFE"/>
<path d="M533.042 170C533.571 170 534 169.57 534 169.04C534 168.51 533.571 168.08 533.042 168.08C532.513 168.08 532.084 168.51 532.084 169.04C532.084 169.57 532.513 170 533.042 170Z" fill="#ECECFE"/>
<path d="M313.042 20C313.571 20 314 19.5702 314 19.04C314 18.5098 313.571 18.08 313.042 18.08C312.513 18.08 312.084 18.5098 312.084 19.04C312.084 19.5702 312.513 20 313.042 20Z" fill="#ECECFE"/>
<path d="M313.042 170C313.571 170 314 169.57 314 169.04C314 168.51 313.571 168.08 313.042 168.08C312.513 168.08 312.084 168.51 312.084 169.04C312.084 169.57 312.513 170 313.042 170Z" fill="#ECECFE"/>
<path d="M93.042 94C93.5711 94 94 93.5702 94 93.04C94 92.5098 93.5711 92.08 93.042 92.08C92.5129 92.08 92.084 92.5098 92.084 93.04C92.084 93.5702 92.5129 94 93.042 94Z" fill="#ECECFE"/>
<path d="M533.042 94C533.571 94 534 93.5702 534 93.04C534 92.5098 533.571 92.08 533.042 92.08C532.513 92.08 532.084 92.5098 532.084 93.04C532.084 93.5702 532.513 94 533.042 94Z" fill="#ECECFE"/>
<path d="M313.042 94C313.571 94 314 93.5702 314 93.04C314 92.5098 313.571 92.08 313.042 92.08C312.513 92.08 312.084 92.5098 312.084 93.04C312.084 93.5702 312.513 94 313.042 94Z" fill="#ECECFE"/>
<path d="M203.042 20C203.571 20 204 19.5702 204 19.04C204 18.5098 203.571 18.08 203.042 18.08C202.513 18.08 202.084 18.5098 202.084 19.04C202.084 19.5702 202.513 20 203.042 20Z" fill="#ECECFE"/>
<path d="M203.042 170C203.571 170 204 169.57 204 169.04C204 168.51 203.571 168.08 203.042 168.08C202.513 168.08 202.084 168.51 202.084 169.04C202.084 169.57 202.513 170 203.042 170Z" fill="#ECECFE"/>
<path d="M423.042 20C423.571 20 424 19.5702 424 19.04C424 18.5098 423.571 18.08 423.042 18.08C422.513 18.08 422.084 18.5098 422.084 19.04C422.084 19.5702 422.513 20 423.042 20Z" fill="#ECECFE"/>
<path d="M423.042 170C423.571 170 424 169.57 424 169.04C424 168.51 423.571 168.08 423.042 168.08C422.513 168.08 422.084 168.51 422.084 169.04C422.084 169.57 422.513 170 423.042 170Z" fill="#ECECFE"/>
<path d="M203.042 94C203.571 94 204 93.5702 204 93.04C204 92.5098 203.571 92.08 203.042 92.08C202.513 92.08 202.084 92.5098 202.084 93.04C202.084 93.5702 202.513 94 203.042 94Z" fill="#ECECFE"/>
<path d="M423.042 94C423.571 94 424 93.5702 424 93.04C424 92.5098 423.571 92.08 423.042 92.08C422.513 92.08 422.084 92.5098 422.084 93.04C422.084 93.5702 422.513 94 423.042 94Z" fill="#ECECFE"/>
<path d="M93.042 57C93.5711 57 94 56.5702 94 56.04C94 55.5098 93.5711 55.08 93.042 55.08C92.5129 55.08 92.084 55.5098 92.084 56.04C92.084 56.5702 92.5129 57 93.042 57Z" fill="#ECECFE"/>
<path d="M533.042 57C533.571 57 534 56.5702 534 56.04C534 55.5098 533.571 55.08 533.042 55.08C532.513 55.08 532.084 55.5098 532.084 56.04C532.084 56.5702 532.513 57 533.042 57Z" fill="#ECECFE"/>
<path d="M93.042 207C93.5711 207 94 206.57 94 206.04C94 205.51 93.5711 205.08 93.042 205.08C92.5129 205.08 92.084 205.51 92.084 206.04C92.084 206.57 92.5129 207 93.042 207Z" fill="#ECECFE"/>
<path d="M533.042 207C533.571 207 534 206.57 534 206.04C534 205.51 533.571 205.08 533.042 205.08C532.513 205.08 532.084 205.51 532.084 206.04C532.084 206.57 532.513 207 533.042 207Z" fill="#ECECFE"/>
<path d="M313.042 57C313.571 57 314 56.5702 314 56.04C314 55.5098 313.571 55.08 313.042 55.08C312.513 55.08 312.084 55.5098 312.084 56.04C312.084 56.5702 312.513 57 313.042 57Z" fill="#ECECFE"/>
<path d="M313.042 207C313.571 207 314 206.57 314 206.04C314 205.51 313.571 205.08 313.042 205.08C312.513 205.08 312.084 205.51 312.084 206.04C312.084 206.57 312.513 207 313.042 207Z" fill="#ECECFE"/>
<path d="M93.042 131C93.5711 131 94 130.57 94 130.04C94 129.51 93.5711 129.08 93.042 129.08C92.5129 129.08 92.084 129.51 92.084 130.04C92.084 130.57 92.5129 131 93.042 131Z" fill="#ECECFE"/>
<path d="M533.042 131C533.571 131 534 130.57 534 130.04C534 129.51 533.571 129.08 533.042 129.08C532.513 129.08 532.084 129.51 532.084 130.04C532.084 130.57 532.513 131 533.042 131Z" fill="#ECECFE"/>
<path d="M313.042 131C313.571 131 314 130.57 314 130.04C314 129.51 313.571 129.08 313.042 129.08C312.513 129.08 312.084 129.51 312.084 130.04C312.084 130.57 312.513 131 313.042 131Z" fill="#ECECFE"/>
<path d="M203.042 57C203.571 57 204 56.5702 204 56.04C204 55.5098 203.571 55.08 203.042 55.08C202.513 55.08 202.084 55.5098 202.084 56.04C202.084 56.5702 202.513 57 203.042 57Z" fill="#ECECFE"/>
<path d="M203.042 207C203.571 207 204 206.57 204 206.04C204 205.51 203.571 205.08 203.042 205.08C202.513 205.08 202.084 205.51 202.084 206.04C202.084 206.57 202.513 207 203.042 207Z" fill="#ECECFE"/>
<path d="M423.042 57C423.571 57 424 56.5702 424 56.04C424 55.5098 423.571 55.08 423.042 55.08C422.513 55.08 422.084 55.5098 422.084 56.04C422.084 56.5702 422.513 57 423.042 57Z" fill="#ECECFE"/>
<path d="M423.042 207C423.571 207 424 206.57 424 206.04C424 205.51 423.571 205.08 423.042 205.08C422.513 205.08 422.084 205.51 422.084 206.04C422.084 206.57 422.513 207 423.042 207Z" fill="#ECECFE"/>
<path d="M203.042 131C203.571 131 204 130.57 204 130.04C204 129.51 203.571 129.08 203.042 129.08C202.513 129.08 202.084 129.51 202.084 130.04C202.084 130.57 202.513 131 203.042 131Z" fill="#ECECFE"/>
<path d="M423.042 131C423.571 131 424 130.57 424 130.04C424 129.51 423.571 129.08 423.042 129.08C422.513 129.08 422.084 129.51 422.084 130.04C422.084 130.57 422.513 131 423.042 131Z" fill="#ECECFE"/>
</g>
</svg>
