<svg width="450" height="226" viewBox="0 0 450 226" fill="none" xmlns="http://www.w3.org/2000/svg">
<g opacity="0.3" clip-path="url(#clip0_15_3340)">
<path d="M246.958 1.92C247.487 1.92 247.916 1.49019 247.916 0.96C247.916 0.429807 247.487 0 246.958 0C246.429 0 246 0.429807 246 0.96C246 1.49019 246.429 1.92 246.958 1.92Z" fill="#ECECFE"/>
<path d="M246.958 151.92C247.487 151.92 247.916 151.49 247.916 150.96C247.916 150.43 247.487 150 246.958 150C246.429 150 246 150.43 246 150.96C246 151.49 246.429 151.92 246.958 151.92Z" fill="#ECECFE"/>
<path d="M26.958 1.92C27.4871 1.92 27.916 1.49019 27.916 0.96C27.916 0.429807 27.4871 0 26.958 0C26.4289 0 26 0.429807 26 0.96C26 1.49019 26.4289 1.92 26.958 1.92Z" fill="#ECECFE"/>
<path d="M26.958 151.92C27.4871 151.92 27.916 151.49 27.916 150.96C27.916 150.43 27.4871 150 26.958 150C26.4289 150 26 150.43 26 150.96C26 151.49 26.4289 151.92 26.958 151.92Z" fill="#ECECFE"/>
<path d="M246.958 75.92C247.487 75.92 247.916 75.4902 247.916 74.96C247.916 74.4298 247.487 74 246.958 74C246.429 74 246 74.4298 246 74.96C246 75.4902 246.429 75.92 246.958 75.92Z" fill="#ECECFE"/>
<path d="M246.958 225.92C247.487 225.92 247.916 225.49 247.916 224.96C247.916 224.43 247.487 224 246.958 224C246.429 224 246 224.43 246 224.96C246 225.49 246.429 225.92 246.958 225.92Z" fill="#ECECFE"/>
<path d="M26.958 75.92C27.4871 75.92 27.916 75.4902 27.916 74.96C27.916 74.4298 27.4871 74 26.958 74C26.4289 74 26 74.4298 26 74.96C26 75.4902 26.4289 75.92 26.958 75.92Z" fill="#ECECFE"/>
<path d="M26.958 225.92C27.4871 225.92 27.916 225.49 27.916 224.96C27.916 224.43 27.4871 224 26.958 224C26.4289 224 26 224.43 26 224.96C26 225.49 26.4289 225.92 26.958 225.92Z" fill="#ECECFE"/>
<path d="M356.958 1.92C357.487 1.92 357.916 1.49019 357.916 0.96C357.916 0.429807 357.487 0 356.958 0C356.429 0 356 0.429807 356 0.96C356 1.49019 356.429 1.92 356.958 1.92Z" fill="#ECECFE"/>
<path d="M356.958 151.92C357.487 151.92 357.916 151.49 357.916 150.96C357.916 150.43 357.487 150 356.958 150C356.429 150 356 150.43 356 150.96C356 151.49 356.429 151.92 356.958 151.92Z" fill="#ECECFE"/>
<path d="M136.958 1.92C137.487 1.92 137.916 1.49019 137.916 0.96C137.916 0.429807 137.487 0 136.958 0C136.429 0 136 0.429807 136 0.96C136 1.49019 136.429 1.92 136.958 1.92Z" fill="#ECECFE"/>
<path d="M136.958 151.92C137.487 151.92 137.916 151.49 137.916 150.96C137.916 150.43 137.487 150 136.958 150C136.429 150 136 150.43 136 150.96C136 151.49 136.429 151.92 136.958 151.92Z" fill="#ECECFE"/>
<path d="M356.958 75.92C357.487 75.92 357.916 75.4902 357.916 74.96C357.916 74.4298 357.487 74 356.958 74C356.429 74 356 74.4298 356 74.96C356 75.4902 356.429 75.92 356.958 75.92Z" fill="#ECECFE"/>
<path d="M356.958 225.92C357.487 225.92 357.916 225.49 357.916 224.96C357.916 224.43 357.487 224 356.958 224C356.429 224 356 224.43 356 224.96C356 225.49 356.429 225.92 356.958 225.92Z" fill="#ECECFE"/>
<path d="M136.958 75.92C137.487 75.92 137.916 75.4902 137.916 74.96C137.916 74.4298 137.487 74 136.958 74C136.429 74 136 74.4298 136 74.96C136 75.4902 136.429 75.92 136.958 75.92Z" fill="#ECECFE"/>
<path d="M136.958 225.92C137.487 225.92 137.916 225.49 137.916 224.96C137.916 224.43 137.487 224 136.958 224C136.429 224 136 224.43 136 224.96C136 225.49 136.429 225.92 136.958 225.92Z" fill="#ECECFE"/>
<path d="M246.958 38.92C247.487 38.92 247.916 38.4902 247.916 37.96C247.916 37.4298 247.487 37 246.958 37C246.429 37 246 37.4298 246 37.96C246 38.4902 246.429 38.92 246.958 38.92Z" fill="#ECECFE"/>
<path d="M246.958 188.92C247.487 188.92 247.916 188.49 247.916 187.96C247.916 187.43 247.487 187 246.958 187C246.429 187 246 187.43 246 187.96C246 188.49 246.429 188.92 246.958 188.92Z" fill="#ECECFE"/>
<path d="M26.958 38.92C27.4871 38.92 27.916 38.4902 27.916 37.96C27.916 37.4298 27.4871 37 26.958 37C26.4289 37 26 37.4298 26 37.96C26 38.4902 26.4289 38.92 26.958 38.92Z" fill="#ECECFE"/>
<path d="M26.958 188.92C27.4871 188.92 27.916 188.49 27.916 187.96C27.916 187.43 27.4871 187 26.958 187C26.4289 187 26 187.43 26 187.96C26 188.49 26.4289 188.92 26.958 188.92Z" fill="#ECECFE"/>
<path d="M246.958 112.92C247.487 112.92 247.916 112.49 247.916 111.96C247.916 111.43 247.487 111 246.958 111C246.429 111 246 111.43 246 111.96C246 112.49 246.429 112.92 246.958 112.92Z" fill="#ECECFE"/>
<path d="M26.958 112.92C27.4871 112.92 27.916 112.49 27.916 111.96C27.916 111.43 27.4871 111 26.958 111C26.4289 111 26 111.43 26 111.96C26 112.49 26.4289 112.92 26.958 112.92Z" fill="#ECECFE"/>
<path d="M356.958 38.92C357.487 38.92 357.916 38.4902 357.916 37.96C357.916 37.4298 357.487 37 356.958 37C356.429 37 356 37.4298 356 37.96C356 38.4902 356.429 38.92 356.958 38.92Z" fill="#ECECFE"/>
<path d="M356.958 188.92C357.487 188.92 357.916 188.49 357.916 187.96C357.916 187.43 357.487 187 356.958 187C356.429 187 356 187.43 356 187.96C356 188.49 356.429 188.92 356.958 188.92Z" fill="#ECECFE"/>
<path d="M136.958 38.92C137.487 38.92 137.916 38.4902 137.916 37.96C137.916 37.4298 137.487 37 136.958 37C136.429 37 136 37.4298 136 37.96C136 38.4902 136.429 38.92 136.958 38.92Z" fill="#ECECFE"/>
<path d="M136.958 188.92C137.487 188.92 137.916 188.49 137.916 187.96C137.916 187.43 137.487 187 136.958 187C136.429 187 136 187.43 136 187.96C136 188.49 136.429 188.92 136.958 188.92Z" fill="#ECECFE"/>
<path d="M356.958 112.92C357.487 112.92 357.916 112.49 357.916 111.96C357.916 111.43 357.487 111 356.958 111C356.429 111 356 111.43 356 111.96C356 112.49 356.429 112.92 356.958 112.92Z" fill="#ECECFE"/>
<path d="M136.958 112.92C137.487 112.92 137.916 112.49 137.916 111.96C137.916 111.43 137.487 111 136.958 111C136.429 111 136 111.43 136 111.96C136 112.49 136.429 112.92 136.958 112.92Z" fill="#ECECFE"/>
<path d="M302.958 1.92C303.487 1.92 303.916 1.49019 303.916 0.96C303.916 0.429807 303.487 0 302.958 0C302.429 0 302 0.429807 302 0.96C302 1.49019 302.429 1.92 302.958 1.92Z" fill="#ECECFE"/>
<path d="M302.958 151.92C303.487 151.92 303.916 151.49 303.916 150.96C303.916 150.43 303.487 150 302.958 150C302.429 150 302 150.43 302 150.96C302 151.49 302.429 151.92 302.958 151.92Z" fill="#ECECFE"/>
<path d="M82.958 1.92C83.4871 1.92 83.916 1.49019 83.916 0.96C83.916 0.429807 83.4871 0 82.958 0C82.4289 0 82 0.429807 82 0.96C82 1.49019 82.4289 1.92 82.958 1.92Z" fill="#ECECFE"/>
<path d="M82.958 151.92C83.4871 151.92 83.916 151.49 83.916 150.96C83.916 150.43 83.4871 150 82.958 150C82.4289 150 82 150.43 82 150.96C82 151.49 82.4289 151.92 82.958 151.92Z" fill="#ECECFE"/>
<path d="M302.958 75.92C303.487 75.92 303.916 75.4902 303.916 74.96C303.916 74.4298 303.487 74 302.958 74C302.429 74 302 74.4298 302 74.96C302 75.4902 302.429 75.92 302.958 75.92Z" fill="#ECECFE"/>
<path d="M302.958 225.92C303.487 225.92 303.916 225.49 303.916 224.96C303.916 224.43 303.487 224 302.958 224C302.429 224 302 224.43 302 224.96C302 225.49 302.429 225.92 302.958 225.92Z" fill="#ECECFE"/>
<path d="M82.958 75.92C83.4871 75.92 83.916 75.4902 83.916 74.96C83.916 74.4298 83.4871 74 82.958 74C82.4289 74 82 74.4298 82 74.96C82 75.4902 82.4289 75.92 82.958 75.92Z" fill="#ECECFE"/>
<path d="M82.958 225.92C83.4871 225.92 83.916 225.49 83.916 224.96C83.916 224.43 83.4871 224 82.958 224C82.4289 224 82 224.43 82 224.96C82 225.49 82.4289 225.92 82.958 225.92Z" fill="#ECECFE"/>
<path d="M412.958 1.92C413.487 1.92 413.916 1.49019 413.916 0.96C413.916 0.429807 413.487 0 412.958 0C412.429 0 412 0.429807 412 0.96C412 1.49019 412.429 1.92 412.958 1.92Z" fill="#ECECFE"/>
<path d="M412.958 151.92C413.487 151.92 413.916 151.49 413.916 150.96C413.916 150.43 413.487 150 412.958 150C412.429 150 412 150.43 412 150.96C412 151.49 412.429 151.92 412.958 151.92Z" fill="#ECECFE"/>
<path d="M192.958 1.92C193.487 1.92 193.916 1.49019 193.916 0.96C193.916 0.429807 193.487 0 192.958 0C192.429 0 192 0.429807 192 0.96C192 1.49019 192.429 1.92 192.958 1.92Z" fill="#ECECFE"/>
<path d="M192.958 151.92C193.487 151.92 193.916 151.49 193.916 150.96C193.916 150.43 193.487 150 192.958 150C192.429 150 192 150.43 192 150.96C192 151.49 192.429 151.92 192.958 151.92Z" fill="#ECECFE"/>
<path d="M412.958 75.92C413.487 75.92 413.916 75.4902 413.916 74.96C413.916 74.4298 413.487 74 412.958 74C412.429 74 412 74.4298 412 74.96C412 75.4902 412.429 75.92 412.958 75.92Z" fill="#ECECFE"/>
<path d="M412.958 225.92C413.487 225.92 413.916 225.49 413.916 224.96C413.916 224.43 413.487 224 412.958 224C412.429 224 412 224.43 412 224.96C412 225.49 412.429 225.92 412.958 225.92Z" fill="#ECECFE"/>
<path d="M192.958 75.92C193.487 75.92 193.916 75.4902 193.916 74.96C193.916 74.4298 193.487 74 192.958 74C192.429 74 192 74.4298 192 74.96C192 75.4902 192.429 75.92 192.958 75.92Z" fill="#ECECFE"/>
<path d="M192.958 225.92C193.487 225.92 193.916 225.49 193.916 224.96C193.916 224.43 193.487 224 192.958 224C192.429 224 192 224.43 192 224.96C192 225.49 192.429 225.92 192.958 225.92Z" fill="#ECECFE"/>
<path d="M302.958 38.92C303.487 38.92 303.916 38.4902 303.916 37.96C303.916 37.4298 303.487 37 302.958 37C302.429 37 302 37.4298 302 37.96C302 38.4902 302.429 38.92 302.958 38.92Z" fill="#ECECFE"/>
<path d="M302.958 188.92C303.487 188.92 303.916 188.49 303.916 187.96C303.916 187.43 303.487 187 302.958 187C302.429 187 302 187.43 302 187.96C302 188.49 302.429 188.92 302.958 188.92Z" fill="#ECECFE"/>
<path d="M82.958 38.92C83.4871 38.92 83.916 38.4902 83.916 37.96C83.916 37.4298 83.4871 37 82.958 37C82.4289 37 82 37.4298 82 37.96C82 38.4902 82.4289 38.92 82.958 38.92Z" fill="#ECECFE"/>
<path d="M82.958 188.92C83.4871 188.92 83.916 188.49 83.916 187.96C83.916 187.43 83.4871 187 82.958 187C82.4289 187 82 187.43 82 187.96C82 188.49 82.4289 188.92 82.958 188.92Z" fill="#ECECFE"/>
<path d="M302.958 112.92C303.487 112.92 303.916 112.49 303.916 111.96C303.916 111.43 303.487 111 302.958 111C302.429 111 302 111.43 302 111.96C302 112.49 302.429 112.92 302.958 112.92Z" fill="#ECECFE"/>
<path d="M82.958 112.92C83.4871 112.92 83.916 112.49 83.916 111.96C83.916 111.43 83.4871 111 82.958 111C82.4289 111 82 111.43 82 111.96C82 112.49 82.4289 112.92 82.958 112.92Z" fill="#ECECFE"/>
<path d="M412.958 38.92C413.487 38.92 413.916 38.4902 413.916 37.96C413.916 37.4298 413.487 37 412.958 37C412.429 37 412 37.4298 412 37.96C412 38.4902 412.429 38.92 412.958 38.92Z" fill="#ECECFE"/>
<path d="M412.958 188.92C413.487 188.92 413.916 188.49 413.916 187.96C413.916 187.43 413.487 187 412.958 187C412.429 187 412 187.43 412 187.96C412 188.49 412.429 188.92 412.958 188.92Z" fill="#ECECFE"/>
<path d="M192.958 38.92C193.487 38.92 193.916 38.4902 193.916 37.96C193.916 37.4298 193.487 37 192.958 37C192.429 37 192 37.4298 192 37.96C192 38.4902 192.429 38.92 192.958 38.92Z" fill="#ECECFE"/>
<path d="M192.958 188.92C193.487 188.92 193.916 188.49 193.916 187.96C193.916 187.43 193.487 187 192.958 187C192.429 187 192 187.43 192 187.96C192 188.49 192.429 188.92 192.958 188.92Z" fill="#ECECFE"/>
<path d="M412.958 112.92C413.487 112.92 413.916 112.49 413.916 111.96C413.916 111.43 413.487 111 412.958 111C412.429 111 412 111.43 412 111.96C412 112.49 412.429 112.92 412.958 112.92Z" fill="#ECECFE"/>
<path d="M192.958 112.92C193.487 112.92 193.916 112.49 193.916 111.96C193.916 111.43 193.487 111 192.958 111C192.429 111 192 111.43 192 111.96C192 112.49 192.429 112.92 192.958 112.92Z" fill="#ECECFE"/>
<path d="M246.958 20.0001C247.487 20.0001 247.916 19.5703 247.916 19.0401C247.916 18.5099 247.487 18.0801 246.958 18.0801C246.429 18.0801 246 18.5099 246 19.0401C246 19.5703 246.429 20.0001 246.958 20.0001Z" fill="#ECECFE"/>
<path d="M246.958 170C247.487 170 247.916 169.57 247.916 169.04C247.916 168.51 247.487 168.08 246.958 168.08C246.429 168.08 246 168.51 246 169.04C246 169.57 246.429 170 246.958 170Z" fill="#ECECFE"/>
<path d="M26.958 20.0001C27.4871 20.0001 27.916 19.5703 27.916 19.0401C27.916 18.5099 27.4871 18.0801 26.958 18.0801C26.4289 18.0801 26 18.5099 26 19.0401C26 19.5703 26.4289 20.0001 26.958 20.0001Z" fill="#ECECFE"/>
<path d="M26.958 170C27.4871 170 27.916 169.57 27.916 169.04C27.916 168.51 27.4871 168.08 26.958 168.08C26.4289 168.08 26 168.51 26 169.04C26 169.57 26.4289 170 26.958 170Z" fill="#ECECFE"/>
<path d="M246.958 94.0001C247.487 94.0001 247.916 93.5703 247.916 93.0401C247.916 92.5099 247.487 92.0801 246.958 92.0801C246.429 92.0801 246 92.5099 246 93.0401C246 93.5703 246.429 94.0001 246.958 94.0001Z" fill="#ECECFE"/>
<path d="M26.958 94.0001C27.4871 94.0001 27.916 93.5703 27.916 93.0401C27.916 92.5099 27.4871 92.0801 26.958 92.0801C26.4289 92.0801 26 92.5099 26 93.0401C26 93.5703 26.4289 94.0001 26.958 94.0001Z" fill="#ECECFE"/>
<path d="M356.958 20.0001C357.487 20.0001 357.916 19.5703 357.916 19.0401C357.916 18.5099 357.487 18.0801 356.958 18.0801C356.429 18.0801 356 18.5099 356 19.0401C356 19.5703 356.429 20.0001 356.958 20.0001Z" fill="#ECECFE"/>
<path d="M356.958 170C357.487 170 357.916 169.57 357.916 169.04C357.916 168.51 357.487 168.08 356.958 168.08C356.429 168.08 356 168.51 356 169.04C356 169.57 356.429 170 356.958 170Z" fill="#ECECFE"/>
<path d="M136.958 20.0001C137.487 20.0001 137.916 19.5703 137.916 19.0401C137.916 18.5099 137.487 18.0801 136.958 18.0801C136.429 18.0801 136 18.5099 136 19.0401C136 19.5703 136.429 20.0001 136.958 20.0001Z" fill="#ECECFE"/>
<path d="M136.958 170C137.487 170 137.916 169.57 137.916 169.04C137.916 168.51 137.487 168.08 136.958 168.08C136.429 168.08 136 168.51 136 169.04C136 169.57 136.429 170 136.958 170Z" fill="#ECECFE"/>
<path d="M356.958 94.0001C357.487 94.0001 357.916 93.5703 357.916 93.0401C357.916 92.5099 357.487 92.0801 356.958 92.0801C356.429 92.0801 356 92.5099 356 93.0401C356 93.5703 356.429 94.0001 356.958 94.0001Z" fill="#ECECFE"/>
<path d="M136.958 94.0001C137.487 94.0001 137.916 93.5703 137.916 93.0401C137.916 92.5099 137.487 92.0801 136.958 92.0801C136.429 92.0801 136 92.5099 136 93.0401C136 93.5703 136.429 94.0001 136.958 94.0001Z" fill="#ECECFE"/>
<path d="M246.958 57.0001C247.487 57.0001 247.916 56.5703 247.916 56.0401C247.916 55.5099 247.487 55.0801 246.958 55.0801C246.429 55.0801 246 55.5099 246 56.0401C246 56.5703 246.429 57.0001 246.958 57.0001Z" fill="#ECECFE"/>
<path d="M246.958 207C247.487 207 247.916 206.57 247.916 206.04C247.916 205.51 247.487 205.08 246.958 205.08C246.429 205.08 246 205.51 246 206.04C246 206.57 246.429 207 246.958 207Z" fill="#ECECFE"/>
<path d="M26.958 57.0001C27.4871 57.0001 27.916 56.5703 27.916 56.0401C27.916 55.5099 27.4871 55.0801 26.958 55.0801C26.4289 55.0801 26 55.5099 26 56.0401C26 56.5703 26.4289 57.0001 26.958 57.0001Z" fill="#ECECFE"/>
<path d="M26.958 207C27.4871 207 27.916 206.57 27.916 206.04C27.916 205.51 27.4871 205.08 26.958 205.08C26.4289 205.08 26 205.51 26 206.04C26 206.57 26.4289 207 26.958 207Z" fill="#ECECFE"/>
<path d="M246.958 131C247.487 131 247.916 130.57 247.916 130.04C247.916 129.51 247.487 129.08 246.958 129.08C246.429 129.08 246 129.51 246 130.04C246 130.57 246.429 131 246.958 131Z" fill="#ECECFE"/>
<path d="M26.958 131C27.4871 131 27.916 130.57 27.916 130.04C27.916 129.51 27.4871 129.08 26.958 129.08C26.4289 129.08 26 129.51 26 130.04C26 130.57 26.4289 131 26.958 131Z" fill="#ECECFE"/>
<path d="M356.958 57.0001C357.487 57.0001 357.916 56.5703 357.916 56.0401C357.916 55.5099 357.487 55.0801 356.958 55.0801C356.429 55.0801 356 55.5099 356 56.0401C356 56.5703 356.429 57.0001 356.958 57.0001Z" fill="#ECECFE"/>
<path d="M356.958 207C357.487 207 357.916 206.57 357.916 206.04C357.916 205.51 357.487 205.08 356.958 205.08C356.429 205.08 356 205.51 356 206.04C356 206.57 356.429 207 356.958 207Z" fill="#ECECFE"/>
<path d="M136.958 57.0001C137.487 57.0001 137.916 56.5703 137.916 56.0401C137.916 55.5099 137.487 55.0801 136.958 55.0801C136.429 55.0801 136 55.5099 136 56.0401C136 56.5703 136.429 57.0001 136.958 57.0001Z" fill="#ECECFE"/>
<path d="M136.958 207C137.487 207 137.916 206.57 137.916 206.04C137.916 205.51 137.487 205.08 136.958 205.08C136.429 205.08 136 205.51 136 206.04C136 206.57 136.429 207 136.958 207Z" fill="#ECECFE"/>
<path d="M356.958 131C357.487 131 357.916 130.57 357.916 130.04C357.916 129.51 357.487 129.08 356.958 129.08C356.429 129.08 356 129.51 356 130.04C356 130.57 356.429 131 356.958 131Z" fill="#ECECFE"/>
<path d="M136.958 131C137.487 131 137.916 130.57 137.916 130.04C137.916 129.51 137.487 129.08 136.958 129.08C136.429 129.08 136 129.51 136 130.04C136 130.57 136.429 131 136.958 131Z" fill="#ECECFE"/>
<path d="M302.958 20.0001C303.487 20.0001 303.916 19.5703 303.916 19.0401C303.916 18.5099 303.487 18.0801 302.958 18.0801C302.429 18.0801 302 18.5099 302 19.0401C302 19.5703 302.429 20.0001 302.958 20.0001Z" fill="#ECECFE"/>
<path d="M302.958 170C303.487 170 303.916 169.57 303.916 169.04C303.916 168.51 303.487 168.08 302.958 168.08C302.429 168.08 302 168.51 302 169.04C302 169.57 302.429 170 302.958 170Z" fill="#ECECFE"/>
<path d="M82.958 20.0001C83.4871 20.0001 83.916 19.5703 83.916 19.0401C83.916 18.5099 83.4871 18.0801 82.958 18.0801C82.4289 18.0801 82 18.5099 82 19.0401C82 19.5703 82.4289 20.0001 82.958 20.0001Z" fill="#ECECFE"/>
<path d="M82.958 170C83.4871 170 83.916 169.57 83.916 169.04C83.916 168.51 83.4871 168.08 82.958 168.08C82.4289 168.08 82 168.51 82 169.04C82 169.57 82.4289 170 82.958 170Z" fill="#ECECFE"/>
<path d="M302.958 94.0001C303.487 94.0001 303.916 93.5703 303.916 93.0401C303.916 92.5099 303.487 92.0801 302.958 92.0801C302.429 92.0801 302 92.5099 302 93.0401C302 93.5703 302.429 94.0001 302.958 94.0001Z" fill="#ECECFE"/>
<path d="M82.958 94.0001C83.4871 94.0001 83.916 93.5703 83.916 93.0401C83.916 92.5099 83.4871 92.0801 82.958 92.0801C82.4289 92.0801 82 92.5099 82 93.0401C82 93.5703 82.4289 94.0001 82.958 94.0001Z" fill="#ECECFE"/>
<path d="M412.958 20.0001C413.487 20.0001 413.916 19.5703 413.916 19.0401C413.916 18.5099 413.487 18.0801 412.958 18.0801C412.429 18.0801 412 18.5099 412 19.0401C412 19.5703 412.429 20.0001 412.958 20.0001Z" fill="#ECECFE"/>
<path d="M412.958 170C413.487 170 413.916 169.57 413.916 169.04C413.916 168.51 413.487 168.08 412.958 168.08C412.429 168.08 412 168.51 412 169.04C412 169.57 412.429 170 412.958 170Z" fill="#ECECFE"/>
<path d="M192.958 20.0001C193.487 20.0001 193.916 19.5703 193.916 19.0401C193.916 18.5099 193.487 18.0801 192.958 18.0801C192.429 18.0801 192 18.5099 192 19.0401C192 19.5703 192.429 20.0001 192.958 20.0001Z" fill="#ECECFE"/>
<path d="M192.958 170C193.487 170 193.916 169.57 193.916 169.04C193.916 168.51 193.487 168.08 192.958 168.08C192.429 168.08 192 168.51 192 169.04C192 169.57 192.429 170 192.958 170Z" fill="#ECECFE"/>
<path d="M412.958 94.0001C413.487 94.0001 413.916 93.5703 413.916 93.0401C413.916 92.5099 413.487 92.0801 412.958 92.0801C412.429 92.0801 412 92.5099 412 93.0401C412 93.5703 412.429 94.0001 412.958 94.0001Z" fill="#ECECFE"/>
<path d="M192.958 94.0001C193.487 94.0001 193.916 93.5703 193.916 93.0401C193.916 92.5099 193.487 92.0801 192.958 92.0801C192.429 92.0801 192 92.5099 192 93.0401C192 93.5703 192.429 94.0001 192.958 94.0001Z" fill="#ECECFE"/>
<path d="M302.958 57.0001C303.487 57.0001 303.916 56.5703 303.916 56.0401C303.916 55.5099 303.487 55.0801 302.958 55.0801C302.429 55.0801 302 55.5099 302 56.0401C302 56.5703 302.429 57.0001 302.958 57.0001Z" fill="#ECECFE"/>
<path d="M302.958 207C303.487 207 303.916 206.57 303.916 206.04C303.916 205.51 303.487 205.08 302.958 205.08C302.429 205.08 302 205.51 302 206.04C302 206.57 302.429 207 302.958 207Z" fill="#ECECFE"/>
<path d="M82.958 57.0001C83.4871 57.0001 83.916 56.5703 83.916 56.0401C83.916 55.5099 83.4871 55.0801 82.958 55.0801C82.4289 55.0801 82 55.5099 82 56.0401C82 56.5703 82.4289 57.0001 82.958 57.0001Z" fill="#ECECFE"/>
<path d="M82.958 207C83.4871 207 83.916 206.57 83.916 206.04C83.916 205.51 83.4871 205.08 82.958 205.08C82.4289 205.08 82 205.51 82 206.04C82 206.57 82.4289 207 82.958 207Z" fill="#ECECFE"/>
<path d="M302.958 131C303.487 131 303.916 130.57 303.916 130.04C303.916 129.51 303.487 129.08 302.958 129.08C302.429 129.08 302 129.51 302 130.04C302 130.57 302.429 131 302.958 131Z" fill="#ECECFE"/>
<path d="M82.958 131C83.4871 131 83.916 130.57 83.916 130.04C83.916 129.51 83.4871 129.08 82.958 129.08C82.4289 129.08 82 129.51 82 130.04C82 130.57 82.4289 131 82.958 131Z" fill="#ECECFE"/>
<path d="M412.958 57.0001C413.487 57.0001 413.916 56.5703 413.916 56.0401C413.916 55.5099 413.487 55.0801 412.958 55.0801C412.429 55.0801 412 55.5099 412 56.0401C412 56.5703 412.429 57.0001 412.958 57.0001Z" fill="#ECECFE"/>
<path d="M412.958 207C413.487 207 413.916 206.57 413.916 206.04C413.916 205.51 413.487 205.08 412.958 205.08C412.429 205.08 412 205.51 412 206.04C412 206.57 412.429 207 412.958 207Z" fill="#ECECFE"/>
<path d="M192.958 57.0001C193.487 57.0001 193.916 56.5703 193.916 56.0401C193.916 55.5099 193.487 55.0801 192.958 55.0801C192.429 55.0801 192 55.5099 192 56.0401C192 56.5703 192.429 57.0001 192.958 57.0001Z" fill="#ECECFE"/>
<path d="M192.958 207C193.487 207 193.916 206.57 193.916 206.04C193.916 205.51 193.487 205.08 192.958 205.08C192.429 205.08 192 205.51 192 206.04C192 206.57 192.429 207 192.958 207Z" fill="#ECECFE"/>
<path d="M412.958 131C413.487 131 413.916 130.57 413.916 130.04C413.916 129.51 413.487 129.08 412.958 129.08C412.429 129.08 412 129.51 412 130.04C412 130.57 412.429 131 412.958 131Z" fill="#ECECFE"/>
<path d="M192.958 131C193.487 131 193.916 130.57 193.916 130.04C193.916 129.51 193.487 129.08 192.958 129.08C192.429 129.08 192 129.51 192 130.04C192 130.57 192.429 131 192.958 131Z" fill="#ECECFE"/>
<path d="M265 1.92C265.529 1.92 265.958 1.49019 265.958 0.96C265.958 0.429807 265.529 0 265 0C264.471 0 264.042 0.429807 264.042 0.96C264.042 1.49019 264.471 1.92 265 1.92Z" fill="#ECECFE"/>
<path d="M265 151.92C265.529 151.92 265.958 151.49 265.958 150.96C265.958 150.43 265.529 150 265 150C264.471 150 264.042 150.43 264.042 150.96C264.042 151.49 264.471 151.92 265 151.92Z" fill="#ECECFE"/>
<path d="M45 1.92C45.5291 1.92 45.958 1.49019 45.958 0.96C45.958 0.429807 45.5291 0 45 0C44.4709 0 44.042 0.429807 44.042 0.96C44.042 1.49019 44.4709 1.92 45 1.92Z" fill="#ECECFE"/>
<path d="M45 151.92C45.5291 151.92 45.958 151.49 45.958 150.96C45.958 150.43 45.5291 150 45 150C44.4709 150 44.042 150.43 44.042 150.96C44.042 151.49 44.4709 151.92 45 151.92Z" fill="#ECECFE"/>
<path d="M265 75.92C265.529 75.92 265.958 75.4902 265.958 74.96C265.958 74.4298 265.529 74 265 74C264.471 74 264.042 74.4298 264.042 74.96C264.042 75.4902 264.471 75.92 265 75.92Z" fill="#ECECFE"/>
<path d="M265 225.92C265.529 225.92 265.958 225.49 265.958 224.96C265.958 224.43 265.529 224 265 224C264.471 224 264.042 224.43 264.042 224.96C264.042 225.49 264.471 225.92 265 225.92Z" fill="#ECECFE"/>
<path d="M45 75.92C45.5291 75.92 45.958 75.4902 45.958 74.96C45.958 74.4298 45.5291 74 45 74C44.4709 74 44.042 74.4298 44.042 74.96C44.042 75.4902 44.4709 75.92 45 75.92Z" fill="#ECECFE"/>
<path d="M45 225.92C45.5291 225.92 45.958 225.49 45.958 224.96C45.958 224.43 45.5291 224 45 224C44.4709 224 44.042 224.43 44.042 224.96C44.042 225.49 44.4709 225.92 45 225.92Z" fill="#ECECFE"/>
<path d="M375 1.92C375.529 1.92 375.958 1.49019 375.958 0.96C375.958 0.429807 375.529 0 375 0C374.471 0 374.042 0.429807 374.042 0.96C374.042 1.49019 374.471 1.92 375 1.92Z" fill="#ECECFE"/>
<path d="M375 151.92C375.529 151.92 375.958 151.49 375.958 150.96C375.958 150.43 375.529 150 375 150C374.471 150 374.042 150.43 374.042 150.96C374.042 151.49 374.471 151.92 375 151.92Z" fill="#ECECFE"/>
<path d="M155 1.92C155.529 1.92 155.958 1.49019 155.958 0.96C155.958 0.429807 155.529 0 155 0C154.471 0 154.042 0.429807 154.042 0.96C154.042 1.49019 154.471 1.92 155 1.92Z" fill="#ECECFE"/>
<path d="M155 151.92C155.529 151.92 155.958 151.49 155.958 150.96C155.958 150.43 155.529 150 155 150C154.471 150 154.042 150.43 154.042 150.96C154.042 151.49 154.471 151.92 155 151.92Z" fill="#ECECFE"/>
<path d="M375 75.92C375.529 75.92 375.958 75.4902 375.958 74.96C375.958 74.4298 375.529 74 375 74C374.471 74 374.042 74.4298 374.042 74.96C374.042 75.4902 374.471 75.92 375 75.92Z" fill="#ECECFE"/>
<path d="M375 225.92C375.529 225.92 375.958 225.49 375.958 224.96C375.958 224.43 375.529 224 375 224C374.471 224 374.042 224.43 374.042 224.96C374.042 225.49 374.471 225.92 375 225.92Z" fill="#ECECFE"/>
<path d="M155 75.92C155.529 75.92 155.958 75.4902 155.958 74.96C155.958 74.4298 155.529 74 155 74C154.471 74 154.042 74.4298 154.042 74.96C154.042 75.4902 154.471 75.92 155 75.92Z" fill="#ECECFE"/>
<path d="M155 225.92C155.529 225.92 155.958 225.49 155.958 224.96C155.958 224.43 155.529 224 155 224C154.471 224 154.042 224.43 154.042 224.96C154.042 225.49 154.471 225.92 155 225.92Z" fill="#ECECFE"/>
<path d="M265 38.92C265.529 38.92 265.958 38.4902 265.958 37.96C265.958 37.4298 265.529 37 265 37C264.471 37 264.042 37.4298 264.042 37.96C264.042 38.4902 264.471 38.92 265 38.92Z" fill="#ECECFE"/>
<path d="M265 188.92C265.529 188.92 265.958 188.49 265.958 187.96C265.958 187.43 265.529 187 265 187C264.471 187 264.042 187.43 264.042 187.96C264.042 188.49 264.471 188.92 265 188.92Z" fill="#ECECFE"/>
<path d="M45 38.92C45.5291 38.92 45.958 38.4902 45.958 37.96C45.958 37.4298 45.5291 37 45 37C44.4709 37 44.042 37.4298 44.042 37.96C44.042 38.4902 44.4709 38.92 45 38.92Z" fill="#ECECFE"/>
<path d="M45 188.92C45.5291 188.92 45.958 188.49 45.958 187.96C45.958 187.43 45.5291 187 45 187C44.4709 187 44.042 187.43 44.042 187.96C44.042 188.49 44.4709 188.92 45 188.92Z" fill="#ECECFE"/>
<path d="M265 112.92C265.529 112.92 265.958 112.49 265.958 111.96C265.958 111.43 265.529 111 265 111C264.471 111 264.042 111.43 264.042 111.96C264.042 112.49 264.471 112.92 265 112.92Z" fill="#ECECFE"/>
<path d="M45 112.92C45.5291 112.92 45.958 112.49 45.958 111.96C45.958 111.43 45.5291 111 45 111C44.4709 111 44.042 111.43 44.042 111.96C44.042 112.49 44.4709 112.92 45 112.92Z" fill="#ECECFE"/>
<path d="M375 38.92C375.529 38.92 375.958 38.4902 375.958 37.96C375.958 37.4298 375.529 37 375 37C374.471 37 374.042 37.4298 374.042 37.96C374.042 38.4902 374.471 38.92 375 38.92Z" fill="#ECECFE"/>
<path d="M375 188.92C375.529 188.92 375.958 188.49 375.958 187.96C375.958 187.43 375.529 187 375 187C374.471 187 374.042 187.43 374.042 187.96C374.042 188.49 374.471 188.92 375 188.92Z" fill="#ECECFE"/>
<path d="M155 38.92C155.529 38.92 155.958 38.4902 155.958 37.96C155.958 37.4298 155.529 37 155 37C154.471 37 154.042 37.4298 154.042 37.96C154.042 38.4902 154.471 38.92 155 38.92Z" fill="#ECECFE"/>
<path d="M155 188.92C155.529 188.92 155.958 188.49 155.958 187.96C155.958 187.43 155.529 187 155 187C154.471 187 154.042 187.43 154.042 187.96C154.042 188.49 154.471 188.92 155 188.92Z" fill="#ECECFE"/>
<path d="M375 112.92C375.529 112.92 375.958 112.49 375.958 111.96C375.958 111.43 375.529 111 375 111C374.471 111 374.042 111.43 374.042 111.96C374.042 112.49 374.471 112.92 375 112.92Z" fill="#ECECFE"/>
<path d="M155 112.92C155.529 112.92 155.958 112.49 155.958 111.96C155.958 111.43 155.529 111 155 111C154.471 111 154.042 111.43 154.042 111.96C154.042 112.49 154.471 112.92 155 112.92Z" fill="#ECECFE"/>
<path d="M321 1.92C321.529 1.92 321.958 1.49019 321.958 0.96C321.958 0.429807 321.529 0 321 0C320.471 0 320.042 0.429807 320.042 0.96C320.042 1.49019 320.471 1.92 321 1.92Z" fill="#ECECFE"/>
<path d="M321 151.92C321.529 151.92 321.958 151.49 321.958 150.96C321.958 150.43 321.529 150 321 150C320.471 150 320.042 150.43 320.042 150.96C320.042 151.49 320.471 151.92 321 151.92Z" fill="#ECECFE"/>
<path d="M101 1.92C101.529 1.92 101.958 1.49019 101.958 0.96C101.958 0.429807 101.529 0 101 0C100.471 0 100.042 0.429807 100.042 0.96C100.042 1.49019 100.471 1.92 101 1.92Z" fill="#ECECFE"/>
<path d="M101 151.92C101.529 151.92 101.958 151.49 101.958 150.96C101.958 150.43 101.529 150 101 150C100.471 150 100.042 150.43 100.042 150.96C100.042 151.49 100.471 151.92 101 151.92Z" fill="#ECECFE"/>
<path d="M321 75.92C321.529 75.92 321.958 75.4902 321.958 74.96C321.958 74.4298 321.529 74 321 74C320.471 74 320.042 74.4298 320.042 74.96C320.042 75.4902 320.471 75.92 321 75.92Z" fill="#ECECFE"/>
<path d="M321 225.92C321.529 225.92 321.958 225.49 321.958 224.96C321.958 224.43 321.529 224 321 224C320.471 224 320.042 224.43 320.042 224.96C320.042 225.49 320.471 225.92 321 225.92Z" fill="#ECECFE"/>
<path d="M101 75.92C101.529 75.92 101.958 75.4902 101.958 74.96C101.958 74.4298 101.529 74 101 74C100.471 74 100.042 74.4298 100.042 74.96C100.042 75.4902 100.471 75.92 101 75.92Z" fill="#ECECFE"/>
<path d="M101 225.92C101.529 225.92 101.958 225.49 101.958 224.96C101.958 224.43 101.529 224 101 224C100.471 224 100.042 224.43 100.042 224.96C100.042 225.49 100.471 225.92 101 225.92Z" fill="#ECECFE"/>
<path d="M431 1.92C431.529 1.92 431.958 1.49019 431.958 0.96C431.958 0.429807 431.529 0 431 0C430.471 0 430.042 0.429807 430.042 0.96C430.042 1.49019 430.471 1.92 431 1.92Z" fill="#ECECFE"/>
<path d="M431 151.92C431.529 151.92 431.958 151.49 431.958 150.96C431.958 150.43 431.529 150 431 150C430.471 150 430.042 150.43 430.042 150.96C430.042 151.49 430.471 151.92 431 151.92Z" fill="#ECECFE"/>
<path d="M211 1.92C211.529 1.92 211.958 1.49019 211.958 0.96C211.958 0.429807 211.529 0 211 0C210.471 0 210.042 0.429807 210.042 0.96C210.042 1.49019 210.471 1.92 211 1.92Z" fill="#ECECFE"/>
<path d="M211 151.92C211.529 151.92 211.958 151.49 211.958 150.96C211.958 150.43 211.529 150 211 150C210.471 150 210.042 150.43 210.042 150.96C210.042 151.49 210.471 151.92 211 151.92Z" fill="#ECECFE"/>
<path d="M431 75.92C431.529 75.92 431.958 75.4902 431.958 74.96C431.958 74.4298 431.529 74 431 74C430.471 74 430.042 74.4298 430.042 74.96C430.042 75.4902 430.471 75.92 431 75.92Z" fill="#ECECFE"/>
<path d="M431 225.92C431.529 225.92 431.958 225.49 431.958 224.96C431.958 224.43 431.529 224 431 224C430.471 224 430.042 224.43 430.042 224.96C430.042 225.49 430.471 225.92 431 225.92Z" fill="#ECECFE"/>
<path d="M211 75.92C211.529 75.92 211.958 75.4902 211.958 74.96C211.958 74.4298 211.529 74 211 74C210.471 74 210.042 74.4298 210.042 74.96C210.042 75.4902 210.471 75.92 211 75.92Z" fill="#ECECFE"/>
<path d="M211 225.92C211.529 225.92 211.958 225.49 211.958 224.96C211.958 224.43 211.529 224 211 224C210.471 224 210.042 224.43 210.042 224.96C210.042 225.49 210.471 225.92 211 225.92Z" fill="#ECECFE"/>
<path d="M321 38.92C321.529 38.92 321.958 38.4902 321.958 37.96C321.958 37.4298 321.529 37 321 37C320.471 37 320.042 37.4298 320.042 37.96C320.042 38.4902 320.471 38.92 321 38.92Z" fill="#ECECFE"/>
<path d="M321 188.92C321.529 188.92 321.958 188.49 321.958 187.96C321.958 187.43 321.529 187 321 187C320.471 187 320.042 187.43 320.042 187.96C320.042 188.49 320.471 188.92 321 188.92Z" fill="#ECECFE"/>
<path d="M101 38.92C101.529 38.92 101.958 38.4902 101.958 37.96C101.958 37.4298 101.529 37 101 37C100.471 37 100.042 37.4298 100.042 37.96C100.042 38.4902 100.471 38.92 101 38.92Z" fill="#ECECFE"/>
<path d="M101 188.92C101.529 188.92 101.958 188.49 101.958 187.96C101.958 187.43 101.529 187 101 187C100.471 187 100.042 187.43 100.042 187.96C100.042 188.49 100.471 188.92 101 188.92Z" fill="#ECECFE"/>
<path d="M321 112.92C321.529 112.92 321.958 112.49 321.958 111.96C321.958 111.43 321.529 111 321 111C320.471 111 320.042 111.43 320.042 111.96C320.042 112.49 320.471 112.92 321 112.92Z" fill="#ECECFE"/>
<path d="M101 112.92C101.529 112.92 101.958 112.49 101.958 111.96C101.958 111.43 101.529 111 101 111C100.471 111 100.042 111.43 100.042 111.96C100.042 112.49 100.471 112.92 101 112.92Z" fill="#ECECFE"/>
<path d="M431 38.92C431.529 38.92 431.958 38.4902 431.958 37.96C431.958 37.4298 431.529 37 431 37C430.471 37 430.042 37.4298 430.042 37.96C430.042 38.4902 430.471 38.92 431 38.92Z" fill="#ECECFE"/>
<path d="M431 188.92C431.529 188.92 431.958 188.49 431.958 187.96C431.958 187.43 431.529 187 431 187C430.471 187 430.042 187.43 430.042 187.96C430.042 188.49 430.471 188.92 431 188.92Z" fill="#ECECFE"/>
<path d="M211 38.92C211.529 38.92 211.958 38.4902 211.958 37.96C211.958 37.4298 211.529 37 211 37C210.471 37 210.042 37.4298 210.042 37.96C210.042 38.4902 210.471 38.92 211 38.92Z" fill="#ECECFE"/>
<path d="M211 188.92C211.529 188.92 211.958 188.49 211.958 187.96C211.958 187.43 211.529 187 211 187C210.471 187 210.042 187.43 210.042 187.96C210.042 188.49 210.471 188.92 211 188.92Z" fill="#ECECFE"/>
<path d="M431 112.92C431.529 112.92 431.958 112.49 431.958 111.96C431.958 111.43 431.529 111 431 111C430.471 111 430.042 111.43 430.042 111.96C430.042 112.49 430.471 112.92 431 112.92Z" fill="#ECECFE"/>
<path d="M211 112.92C211.529 112.92 211.958 112.49 211.958 111.96C211.958 111.43 211.529 111 211 111C210.471 111 210.042 111.43 210.042 111.96C210.042 112.49 210.471 112.92 211 112.92Z" fill="#ECECFE"/>
<path d="M283.042 1.92C283.571 1.92 284 1.49019 284 0.96C284 0.429807 283.571 0 283.042 0C282.513 0 282.084 0.429807 282.084 0.96C282.084 1.49019 282.513 1.92 283.042 1.92Z" fill="#ECECFE"/>
<path d="M283.042 151.92C283.571 151.92 284 151.49 284 150.96C284 150.43 283.571 150 283.042 150C282.513 150 282.084 150.43 282.084 150.96C282.084 151.49 282.513 151.92 283.042 151.92Z" fill="#ECECFE"/>
<path d="M63.042 1.92C63.5711 1.92 64 1.49019 64 0.96C64 0.429807 63.5711 0 63.042 0C62.5129 0 62.084 0.429807 62.084 0.96C62.084 1.49019 62.5129 1.92 63.042 1.92Z" fill="#ECECFE"/>
<path d="M63.042 151.92C63.5711 151.92 64 151.49 64 150.96C64 150.43 63.5711 150 63.042 150C62.5129 150 62.084 150.43 62.084 150.96C62.084 151.49 62.5129 151.92 63.042 151.92Z" fill="#ECECFE"/>
<path d="M283.042 75.92C283.571 75.92 284 75.4902 284 74.96C284 74.4298 283.571 74 283.042 74C282.513 74 282.084 74.4298 282.084 74.96C282.084 75.4902 282.513 75.92 283.042 75.92Z" fill="#ECECFE"/>
<path d="M283.042 225.92C283.571 225.92 284 225.49 284 224.96C284 224.43 283.571 224 283.042 224C282.513 224 282.084 224.43 282.084 224.96C282.084 225.49 282.513 225.92 283.042 225.92Z" fill="#ECECFE"/>
<path d="M63.042 75.92C63.5711 75.92 64 75.4902 64 74.96C64 74.4298 63.5711 74 63.042 74C62.5129 74 62.084 74.4298 62.084 74.96C62.084 75.4902 62.5129 75.92 63.042 75.92Z" fill="#ECECFE"/>
<path d="M63.042 225.92C63.5711 225.92 64 225.49 64 224.96C64 224.43 63.5711 224 63.042 224C62.5129 224 62.084 224.43 62.084 224.96C62.084 225.49 62.5129 225.92 63.042 225.92Z" fill="#ECECFE"/>
<path d="M393.042 1.92C393.571 1.92 394 1.49019 394 0.96C394 0.429807 393.571 0 393.042 0C392.513 0 392.084 0.429807 392.084 0.96C392.084 1.49019 392.513 1.92 393.042 1.92Z" fill="#ECECFE"/>
<path d="M393.042 151.92C393.571 151.92 394 151.49 394 150.96C394 150.43 393.571 150 393.042 150C392.513 150 392.084 150.43 392.084 150.96C392.084 151.49 392.513 151.92 393.042 151.92Z" fill="#ECECFE"/>
<path d="M173.042 1.92C173.571 1.92 174 1.49019 174 0.96C174 0.429807 173.571 0 173.042 0C172.513 0 172.084 0.429807 172.084 0.96C172.084 1.49019 172.513 1.92 173.042 1.92Z" fill="#ECECFE"/>
<path d="M173.042 151.92C173.571 151.92 174 151.49 174 150.96C174 150.43 173.571 150 173.042 150C172.513 150 172.084 150.43 172.084 150.96C172.084 151.49 172.513 151.92 173.042 151.92Z" fill="#ECECFE"/>
<path d="M393.042 75.92C393.571 75.92 394 75.4902 394 74.96C394 74.4298 393.571 74 393.042 74C392.513 74 392.084 74.4298 392.084 74.96C392.084 75.4902 392.513 75.92 393.042 75.92Z" fill="#ECECFE"/>
<path d="M393.042 225.92C393.571 225.92 394 225.49 394 224.96C394 224.43 393.571 224 393.042 224C392.513 224 392.084 224.43 392.084 224.96C392.084 225.49 392.513 225.92 393.042 225.92Z" fill="#ECECFE"/>
<path d="M173.042 75.92C173.571 75.92 174 75.4902 174 74.96C174 74.4298 173.571 74 173.042 74C172.513 74 172.084 74.4298 172.084 74.96C172.084 75.4902 172.513 75.92 173.042 75.92Z" fill="#ECECFE"/>
<path d="M173.042 225.92C173.571 225.92 174 225.49 174 224.96C174 224.43 173.571 224 173.042 224C172.513 224 172.084 224.43 172.084 224.96C172.084 225.49 172.513 225.92 173.042 225.92Z" fill="#ECECFE"/>
<path d="M283.042 38.92C283.571 38.92 284 38.4902 284 37.96C284 37.4298 283.571 37 283.042 37C282.513 37 282.084 37.4298 282.084 37.96C282.084 38.4902 282.513 38.92 283.042 38.92Z" fill="#ECECFE"/>
<path d="M283.042 188.92C283.571 188.92 284 188.49 284 187.96C284 187.43 283.571 187 283.042 187C282.513 187 282.084 187.43 282.084 187.96C282.084 188.49 282.513 188.92 283.042 188.92Z" fill="#ECECFE"/>
<path d="M63.042 38.92C63.5711 38.92 64 38.4902 64 37.96C64 37.4298 63.5711 37 63.042 37C62.5129 37 62.084 37.4298 62.084 37.96C62.084 38.4902 62.5129 38.92 63.042 38.92Z" fill="#ECECFE"/>
<path d="M63.042 188.92C63.5711 188.92 64 188.49 64 187.96C64 187.43 63.5711 187 63.042 187C62.5129 187 62.084 187.43 62.084 187.96C62.084 188.49 62.5129 188.92 63.042 188.92Z" fill="#ECECFE"/>
<path d="M283.042 112.92C283.571 112.92 284 112.49 284 111.96C284 111.43 283.571 111 283.042 111C282.513 111 282.084 111.43 282.084 111.96C282.084 112.49 282.513 112.92 283.042 112.92Z" fill="#ECECFE"/>
<path d="M63.042 112.92C63.5711 112.92 64 112.49 64 111.96C64 111.43 63.5711 111 63.042 111C62.5129 111 62.084 111.43 62.084 111.96C62.084 112.49 62.5129 112.92 63.042 112.92Z" fill="#ECECFE"/>
<path d="M393.042 38.92C393.571 38.92 394 38.4902 394 37.96C394 37.4298 393.571 37 393.042 37C392.513 37 392.084 37.4298 392.084 37.96C392.084 38.4902 392.513 38.92 393.042 38.92Z" fill="#ECECFE"/>
<path d="M393.042 188.92C393.571 188.92 394 188.49 394 187.96C394 187.43 393.571 187 393.042 187C392.513 187 392.084 187.43 392.084 187.96C392.084 188.49 392.513 188.92 393.042 188.92Z" fill="#ECECFE"/>
<path d="M173.042 38.92C173.571 38.92 174 38.4902 174 37.96C174 37.4298 173.571 37 173.042 37C172.513 37 172.084 37.4298 172.084 37.96C172.084 38.4902 172.513 38.92 173.042 38.92Z" fill="#ECECFE"/>
<path d="M173.042 188.92C173.571 188.92 174 188.49 174 187.96C174 187.43 173.571 187 173.042 187C172.513 187 172.084 187.43 172.084 187.96C172.084 188.49 172.513 188.92 173.042 188.92Z" fill="#ECECFE"/>
<path d="M393.042 112.92C393.571 112.92 394 112.49 394 111.96C394 111.43 393.571 111 393.042 111C392.513 111 392.084 111.43 392.084 111.96C392.084 112.49 392.513 112.92 393.042 112.92Z" fill="#ECECFE"/>
<path d="M173.042 112.92C173.571 112.92 174 112.49 174 111.96C174 111.43 173.571 111 173.042 111C172.513 111 172.084 111.43 172.084 111.96C172.084 112.49 172.513 112.92 173.042 112.92Z" fill="#ECECFE"/>
<path d="M339.042 1.92C339.571 1.92 340 1.49019 340 0.96C340 0.429807 339.571 0 339.042 0C338.513 0 338.084 0.429807 338.084 0.96C338.084 1.49019 338.513 1.92 339.042 1.92Z" fill="#ECECFE"/>
<path d="M339.042 151.92C339.571 151.92 340 151.49 340 150.96C340 150.43 339.571 150 339.042 150C338.513 150 338.084 150.43 338.084 150.96C338.084 151.49 338.513 151.92 339.042 151.92Z" fill="#ECECFE"/>
<path d="M119.042 1.92C119.571 1.92 120 1.49019 120 0.96C120 0.429807 119.571 0 119.042 0C118.513 0 118.084 0.429807 118.084 0.96C118.084 1.49019 118.513 1.92 119.042 1.92Z" fill="#ECECFE"/>
<path d="M119.042 151.92C119.571 151.92 120 151.49 120 150.96C120 150.43 119.571 150 119.042 150C118.513 150 118.084 150.43 118.084 150.96C118.084 151.49 118.513 151.92 119.042 151.92Z" fill="#ECECFE"/>
<path d="M339.042 75.92C339.571 75.92 340 75.4902 340 74.96C340 74.4298 339.571 74 339.042 74C338.513 74 338.084 74.4298 338.084 74.96C338.084 75.4902 338.513 75.92 339.042 75.92Z" fill="#ECECFE"/>
<path d="M339.042 225.92C339.571 225.92 340 225.49 340 224.96C340 224.43 339.571 224 339.042 224C338.513 224 338.084 224.43 338.084 224.96C338.084 225.49 338.513 225.92 339.042 225.92Z" fill="#ECECFE"/>
<path d="M119.042 75.92C119.571 75.92 120 75.4902 120 74.96C120 74.4298 119.571 74 119.042 74C118.513 74 118.084 74.4298 118.084 74.96C118.084 75.4902 118.513 75.92 119.042 75.92Z" fill="#ECECFE"/>
<path d="M119.042 225.92C119.571 225.92 120 225.49 120 224.96C120 224.43 119.571 224 119.042 224C118.513 224 118.084 224.43 118.084 224.96C118.084 225.49 118.513 225.92 119.042 225.92Z" fill="#ECECFE"/>
<path d="M9.04199 1.92C9.57108 1.92 9.99998 1.49019 9.99998 0.96C9.99998 0.429807 9.57108 0 9.04199 0C8.5129 0 8.08398 0.429807 8.08398 0.96C8.08398 1.49019 8.5129 1.92 9.04199 1.92Z" fill="#ECECFE"/>
<path d="M449.042 1.92C449.571 1.92 450 1.49019 450 0.96C450 0.429807 449.571 0 449.042 0C448.513 0 448.084 0.429807 448.084 0.96C448.084 1.49019 448.513 1.92 449.042 1.92Z" fill="#ECECFE"/>
<path d="M9.04199 151.92C9.57108 151.92 9.99998 151.49 9.99998 150.96C9.99998 150.43 9.57108 150 9.04199 150C8.5129 150 8.08398 150.43 8.08398 150.96C8.08398 151.49 8.5129 151.92 9.04199 151.92Z" fill="#ECECFE"/>
<path d="M449.042 151.92C449.571 151.92 450 151.49 450 150.96C450 150.43 449.571 150 449.042 150C448.513 150 448.084 150.43 448.084 150.96C448.084 151.49 448.513 151.92 449.042 151.92Z" fill="#ECECFE"/>
<path d="M229.042 1.92C229.571 1.92 230 1.49019 230 0.96C230 0.429807 229.571 0 229.042 0C228.513 0 228.084 0.429807 228.084 0.96C228.084 1.49019 228.513 1.92 229.042 1.92Z" fill="#ECECFE"/>
<path d="M229.042 151.92C229.571 151.92 230 151.49 230 150.96C230 150.43 229.571 150 229.042 150C228.513 150 228.084 150.43 228.084 150.96C228.084 151.49 228.513 151.92 229.042 151.92Z" fill="#ECECFE"/>
<path d="M9.04199 75.92C9.57108 75.92 9.99998 75.4902 9.99998 74.96C9.99998 74.4298 9.57108 74 9.04199 74C8.5129 74 8.08398 74.4298 8.08398 74.96C8.08398 75.4902 8.5129 75.92 9.04199 75.92Z" fill="#ECECFE"/>
<path d="M449.042 75.92C449.571 75.92 450 75.4902 450 74.96C450 74.4298 449.571 74 449.042 74C448.513 74 448.084 74.4298 448.084 74.96C448.084 75.4902 448.513 75.92 449.042 75.92Z" fill="#ECECFE"/>
<path d="M9.04199 225.92C9.57108 225.92 9.99998 225.49 9.99998 224.96C9.99998 224.43 9.57108 224 9.04199 224C8.5129 224 8.08398 224.43 8.08398 224.96C8.08398 225.49 8.5129 225.92 9.04199 225.92Z" fill="#ECECFE"/>
<path d="M449.042 225.92C449.571 225.92 450 225.49 450 224.96C450 224.43 449.571 224 449.042 224C448.513 224 448.084 224.43 448.084 224.96C448.084 225.49 448.513 225.92 449.042 225.92Z" fill="#ECECFE"/>
<path d="M229.042 75.92C229.571 75.92 230 75.4902 230 74.96C230 74.4298 229.571 74 229.042 74C228.513 74 228.084 74.4298 228.084 74.96C228.084 75.4902 228.513 75.92 229.042 75.92Z" fill="#ECECFE"/>
<path d="M229.042 225.92C229.571 225.92 230 225.49 230 224.96C230 224.43 229.571 224 229.042 224C228.513 224 228.084 224.43 228.084 224.96C228.084 225.49 228.513 225.92 229.042 225.92Z" fill="#ECECFE"/>
<path d="M339.042 38.92C339.571 38.92 340 38.4902 340 37.96C340 37.4298 339.571 37 339.042 37C338.513 37 338.084 37.4298 338.084 37.96C338.084 38.4902 338.513 38.92 339.042 38.92Z" fill="#ECECFE"/>
<path d="M339.042 188.92C339.571 188.92 340 188.49 340 187.96C340 187.43 339.571 187 339.042 187C338.513 187 338.084 187.43 338.084 187.96C338.084 188.49 338.513 188.92 339.042 188.92Z" fill="#ECECFE"/>
<path d="M119.042 38.92C119.571 38.92 120 38.4902 120 37.96C120 37.4298 119.571 37 119.042 37C118.513 37 118.084 37.4298 118.084 37.96C118.084 38.4902 118.513 38.92 119.042 38.92Z" fill="#ECECFE"/>
<path d="M119.042 188.92C119.571 188.92 120 188.49 120 187.96C120 187.43 119.571 187 119.042 187C118.513 187 118.084 187.43 118.084 187.96C118.084 188.49 118.513 188.92 119.042 188.92Z" fill="#ECECFE"/>
<path d="M339.042 112.92C339.571 112.92 340 112.49 340 111.96C340 111.43 339.571 111 339.042 111C338.513 111 338.084 111.43 338.084 111.96C338.084 112.49 338.513 112.92 339.042 112.92Z" fill="#ECECFE"/>
<path d="M119.042 112.92C119.571 112.92 120 112.49 120 111.96C120 111.43 119.571 111 119.042 111C118.513 111 118.084 111.43 118.084 111.96C118.084 112.49 118.513 112.92 119.042 112.92Z" fill="#ECECFE"/>
<path d="M9.04199 38.92C9.57108 38.92 9.99998 38.4902 9.99998 37.96C9.99998 37.4298 9.57108 37 9.04199 37C8.5129 37 8.08398 37.4298 8.08398 37.96C8.08398 38.4902 8.5129 38.92 9.04199 38.92Z" fill="#ECECFE"/>
<path d="M449.042 38.92C449.571 38.92 450 38.4902 450 37.96C450 37.4298 449.571 37 449.042 37C448.513 37 448.084 37.4298 448.084 37.96C448.084 38.4902 448.513 38.92 449.042 38.92Z" fill="#ECECFE"/>
<path d="M9.04199 188.92C9.57108 188.92 9.99998 188.49 9.99998 187.96C9.99998 187.43 9.57108 187 9.04199 187C8.5129 187 8.08398 187.43 8.08398 187.96C8.08398 188.49 8.5129 188.92 9.04199 188.92Z" fill="#ECECFE"/>
<path d="M449.042 188.92C449.571 188.92 450 188.49 450 187.96C450 187.43 449.571 187 449.042 187C448.513 187 448.084 187.43 448.084 187.96C448.084 188.49 448.513 188.92 449.042 188.92Z" fill="#ECECFE"/>
<path d="M229.042 38.92C229.571 38.92 230 38.4902 230 37.96C230 37.4298 229.571 37 229.042 37C228.513 37 228.084 37.4298 228.084 37.96C228.084 38.4902 228.513 38.92 229.042 38.92Z" fill="#ECECFE"/>
<path d="M229.042 188.92C229.571 188.92 230 188.49 230 187.96C230 187.43 229.571 187 229.042 187C228.513 187 228.084 187.43 228.084 187.96C228.084 188.49 228.513 188.92 229.042 188.92Z" fill="#ECECFE"/>
<path d="M9.04199 112.92C9.57108 112.92 9.99998 112.49 9.99998 111.96C9.99998 111.43 9.57108 111 9.04199 111C8.5129 111 8.08398 111.43 8.08398 111.96C8.08398 112.49 8.5129 112.92 9.04199 112.92Z" fill="#ECECFE"/>
<path d="M449.042 112.92C449.571 112.92 450 112.49 450 111.96C450 111.43 449.571 111 449.042 111C448.513 111 448.084 111.43 448.084 111.96C448.084 112.49 448.513 112.92 449.042 112.92Z" fill="#ECECFE"/>
<path d="M229.042 112.92C229.571 112.92 230 112.49 230 111.96C230 111.43 229.571 111 229.042 111C228.513 111 228.084 111.43 228.084 111.96C228.084 112.49 228.513 112.92 229.042 112.92Z" fill="#ECECFE"/>
<path d="M265 20.0001C265.529 20.0001 265.958 19.5703 265.958 19.0401C265.958 18.5099 265.529 18.0801 265 18.0801C264.471 18.0801 264.042 18.5099 264.042 19.0401C264.042 19.5703 264.471 20.0001 265 20.0001Z" fill="#ECECFE"/>
<path d="M265 170C265.529 170 265.958 169.57 265.958 169.04C265.958 168.51 265.529 168.08 265 168.08C264.471 168.08 264.042 168.51 264.042 169.04C264.042 169.57 264.471 170 265 170Z" fill="#ECECFE"/>
<path d="M45 20.0001C45.5291 20.0001 45.958 19.5703 45.958 19.0401C45.958 18.5099 45.5291 18.0801 45 18.0801C44.4709 18.0801 44.042 18.5099 44.042 19.0401C44.042 19.5703 44.4709 20.0001 45 20.0001Z" fill="#ECECFE"/>
<path d="M45 170C45.5291 170 45.958 169.57 45.958 169.04C45.958 168.51 45.5291 168.08 45 168.08C44.4709 168.08 44.042 168.51 44.042 169.04C44.042 169.57 44.4709 170 45 170Z" fill="#ECECFE"/>
<path d="M265 94.0001C265.529 94.0001 265.958 93.5703 265.958 93.0401C265.958 92.5099 265.529 92.0801 265 92.0801C264.471 92.0801 264.042 92.5099 264.042 93.0401C264.042 93.5703 264.471 94.0001 265 94.0001Z" fill="#ECECFE"/>
<path d="M45 94.0001C45.5291 94.0001 45.958 93.5703 45.958 93.0401C45.958 92.5099 45.5291 92.0801 45 92.0801C44.4709 92.0801 44.042 92.5099 44.042 93.0401C44.042 93.5703 44.4709 94.0001 45 94.0001Z" fill="#ECECFE"/>
<path d="M375 20.0001C375.529 20.0001 375.958 19.5703 375.958 19.0401C375.958 18.5099 375.529 18.0801 375 18.0801C374.471 18.0801 374.042 18.5099 374.042 19.0401C374.042 19.5703 374.471 20.0001 375 20.0001Z" fill="#ECECFE"/>
<path d="M375 170C375.529 170 375.958 169.57 375.958 169.04C375.958 168.51 375.529 168.08 375 168.08C374.471 168.08 374.042 168.51 374.042 169.04C374.042 169.57 374.471 170 375 170Z" fill="#ECECFE"/>
<path d="M155 20.0001C155.529 20.0001 155.958 19.5703 155.958 19.0401C155.958 18.5099 155.529 18.0801 155 18.0801C154.471 18.0801 154.042 18.5099 154.042 19.0401C154.042 19.5703 154.471 20.0001 155 20.0001Z" fill="#ECECFE"/>
<path d="M155 170C155.529 170 155.958 169.57 155.958 169.04C155.958 168.51 155.529 168.08 155 168.08C154.471 168.08 154.042 168.51 154.042 169.04C154.042 169.57 154.471 170 155 170Z" fill="#ECECFE"/>
<path d="M375 94.0001C375.529 94.0001 375.958 93.5703 375.958 93.0401C375.958 92.5099 375.529 92.0801 375 92.0801C374.471 92.0801 374.042 92.5099 374.042 93.0401C374.042 93.5703 374.471 94.0001 375 94.0001Z" fill="#ECECFE"/>
<path d="M155 94.0001C155.529 94.0001 155.958 93.5703 155.958 93.0401C155.958 92.5099 155.529 92.0801 155 92.0801C154.471 92.0801 154.042 92.5099 154.042 93.0401C154.042 93.5703 154.471 94.0001 155 94.0001Z" fill="#ECECFE"/>
<path d="M265 57.0001C265.529 57.0001 265.958 56.5703 265.958 56.0401C265.958 55.5099 265.529 55.0801 265 55.0801C264.471 55.0801 264.042 55.5099 264.042 56.0401C264.042 56.5703 264.471 57.0001 265 57.0001Z" fill="#ECECFE"/>
<path d="M265 207C265.529 207 265.958 206.57 265.958 206.04C265.958 205.51 265.529 205.08 265 205.08C264.471 205.08 264.042 205.51 264.042 206.04C264.042 206.57 264.471 207 265 207Z" fill="#ECECFE"/>
<path d="M45 57.0001C45.5291 57.0001 45.958 56.5703 45.958 56.0401C45.958 55.5099 45.5291 55.0801 45 55.0801C44.4709 55.0801 44.042 55.5099 44.042 56.0401C44.042 56.5703 44.4709 57.0001 45 57.0001Z" fill="#ECECFE"/>
<path d="M45 207C45.5291 207 45.958 206.57 45.958 206.04C45.958 205.51 45.5291 205.08 45 205.08C44.4709 205.08 44.042 205.51 44.042 206.04C44.042 206.57 44.4709 207 45 207Z" fill="#ECECFE"/>
<path d="M265 131C265.529 131 265.958 130.57 265.958 130.04C265.958 129.51 265.529 129.08 265 129.08C264.471 129.08 264.042 129.51 264.042 130.04C264.042 130.57 264.471 131 265 131Z" fill="#ECECFE"/>
<path d="M45 131C45.5291 131 45.958 130.57 45.958 130.04C45.958 129.51 45.5291 129.08 45 129.08C44.4709 129.08 44.042 129.51 44.042 130.04C44.042 130.57 44.4709 131 45 131Z" fill="#ECECFE"/>
<path d="M375 57.0001C375.529 57.0001 375.958 56.5703 375.958 56.0401C375.958 55.5099 375.529 55.0801 375 55.0801C374.471 55.0801 374.042 55.5099 374.042 56.0401C374.042 56.5703 374.471 57.0001 375 57.0001Z" fill="#ECECFE"/>
<path d="M375 207C375.529 207 375.958 206.57 375.958 206.04C375.958 205.51 375.529 205.08 375 205.08C374.471 205.08 374.042 205.51 374.042 206.04C374.042 206.57 374.471 207 375 207Z" fill="#ECECFE"/>
<path d="M155 57.0001C155.529 57.0001 155.958 56.5703 155.958 56.0401C155.958 55.5099 155.529 55.0801 155 55.0801C154.471 55.0801 154.042 55.5099 154.042 56.0401C154.042 56.5703 154.471 57.0001 155 57.0001Z" fill="#ECECFE"/>
<path d="M155 207C155.529 207 155.958 206.57 155.958 206.04C155.958 205.51 155.529 205.08 155 205.08C154.471 205.08 154.042 205.51 154.042 206.04C154.042 206.57 154.471 207 155 207Z" fill="#ECECFE"/>
<path d="M375 131C375.529 131 375.958 130.57 375.958 130.04C375.958 129.51 375.529 129.08 375 129.08C374.471 129.08 374.042 129.51 374.042 130.04C374.042 130.57 374.471 131 375 131Z" fill="#ECECFE"/>
<path d="M155 131C155.529 131 155.958 130.57 155.958 130.04C155.958 129.51 155.529 129.08 155 129.08C154.471 129.08 154.042 129.51 154.042 130.04C154.042 130.57 154.471 131 155 131Z" fill="#ECECFE"/>
<path d="M321 20.0001C321.529 20.0001 321.958 19.5703 321.958 19.0401C321.958 18.5099 321.529 18.0801 321 18.0801C320.471 18.0801 320.042 18.5099 320.042 19.0401C320.042 19.5703 320.471 20.0001 321 20.0001Z" fill="#ECECFE"/>
<path d="M321 170C321.529 170 321.958 169.57 321.958 169.04C321.958 168.51 321.529 168.08 321 168.08C320.471 168.08 320.042 168.51 320.042 169.04C320.042 169.57 320.471 170 321 170Z" fill="#ECECFE"/>
<path d="M101 20.0001C101.529 20.0001 101.958 19.5703 101.958 19.0401C101.958 18.5099 101.529 18.0801 101 18.0801C100.471 18.0801 100.042 18.5099 100.042 19.0401C100.042 19.5703 100.471 20.0001 101 20.0001Z" fill="#ECECFE"/>
<path d="M101 170C101.529 170 101.958 169.57 101.958 169.04C101.958 168.51 101.529 168.08 101 168.08C100.471 168.08 100.042 168.51 100.042 169.04C100.042 169.57 100.471 170 101 170Z" fill="#ECECFE"/>
<path d="M321 94.0001C321.529 94.0001 321.958 93.5703 321.958 93.0401C321.958 92.5099 321.529 92.0801 321 92.0801C320.471 92.0801 320.042 92.5099 320.042 93.0401C320.042 93.5703 320.471 94.0001 321 94.0001Z" fill="#ECECFE"/>
<path d="M101 94.0001C101.529 94.0001 101.958 93.5703 101.958 93.0401C101.958 92.5099 101.529 92.0801 101 92.0801C100.471 92.0801 100.042 92.5099 100.042 93.0401C100.042 93.5703 100.471 94.0001 101 94.0001Z" fill="#ECECFE"/>
<path d="M431 20.0001C431.529 20.0001 431.958 19.5703 431.958 19.0401C431.958 18.5099 431.529 18.0801 431 18.0801C430.471 18.0801 430.042 18.5099 430.042 19.0401C430.042 19.5703 430.471 20.0001 431 20.0001Z" fill="#ECECFE"/>
<path d="M431 170C431.529 170 431.958 169.57 431.958 169.04C431.958 168.51 431.529 168.08 431 168.08C430.471 168.08 430.042 168.51 430.042 169.04C430.042 169.57 430.471 170 431 170Z" fill="#ECECFE"/>
<path d="M211 20.0001C211.529 20.0001 211.958 19.5703 211.958 19.0401C211.958 18.5099 211.529 18.0801 211 18.0801C210.471 18.0801 210.042 18.5099 210.042 19.0401C210.042 19.5703 210.471 20.0001 211 20.0001Z" fill="#ECECFE"/>
<path d="M211 170C211.529 170 211.958 169.57 211.958 169.04C211.958 168.51 211.529 168.08 211 168.08C210.471 168.08 210.042 168.51 210.042 169.04C210.042 169.57 210.471 170 211 170Z" fill="#ECECFE"/>
<path d="M431 94.0001C431.529 94.0001 431.958 93.5703 431.958 93.0401C431.958 92.5099 431.529 92.0801 431 92.0801C430.471 92.0801 430.042 92.5099 430.042 93.0401C430.042 93.5703 430.471 94.0001 431 94.0001Z" fill="#ECECFE"/>
<path d="M211 94.0001C211.529 94.0001 211.958 93.5703 211.958 93.0401C211.958 92.5099 211.529 92.0801 211 92.0801C210.471 92.0801 210.042 92.5099 210.042 93.0401C210.042 93.5703 210.471 94.0001 211 94.0001Z" fill="#ECECFE"/>
<path d="M321 57.0001C321.529 57.0001 321.958 56.5703 321.958 56.0401C321.958 55.5099 321.529 55.0801 321 55.0801C320.471 55.0801 320.042 55.5099 320.042 56.0401C320.042 56.5703 320.471 57.0001 321 57.0001Z" fill="#ECECFE"/>
<path d="M321 207C321.529 207 321.958 206.57 321.958 206.04C321.958 205.51 321.529 205.08 321 205.08C320.471 205.08 320.042 205.51 320.042 206.04C320.042 206.57 320.471 207 321 207Z" fill="#ECECFE"/>
<path d="M101 57.0001C101.529 57.0001 101.958 56.5703 101.958 56.0401C101.958 55.5099 101.529 55.0801 101 55.0801C100.471 55.0801 100.042 55.5099 100.042 56.0401C100.042 56.5703 100.471 57.0001 101 57.0001Z" fill="#ECECFE"/>
<path d="M101 207C101.529 207 101.958 206.57 101.958 206.04C101.958 205.51 101.529 205.08 101 205.08C100.471 205.08 100.042 205.51 100.042 206.04C100.042 206.57 100.471 207 101 207Z" fill="#ECECFE"/>
<path d="M321 131C321.529 131 321.958 130.57 321.958 130.04C321.958 129.51 321.529 129.08 321 129.08C320.471 129.08 320.042 129.51 320.042 130.04C320.042 130.57 320.471 131 321 131Z" fill="#ECECFE"/>
<path d="M101 131C101.529 131 101.958 130.57 101.958 130.04C101.958 129.51 101.529 129.08 101 129.08C100.471 129.08 100.042 129.51 100.042 130.04C100.042 130.57 100.471 131 101 131Z" fill="#ECECFE"/>
<path d="M431 57.0001C431.529 57.0001 431.958 56.5703 431.958 56.0401C431.958 55.5099 431.529 55.0801 431 55.0801C430.471 55.0801 430.042 55.5099 430.042 56.0401C430.042 56.5703 430.471 57.0001 431 57.0001Z" fill="#ECECFE"/>
<path d="M431 207C431.529 207 431.958 206.57 431.958 206.04C431.958 205.51 431.529 205.08 431 205.08C430.471 205.08 430.042 205.51 430.042 206.04C430.042 206.57 430.471 207 431 207Z" fill="#ECECFE"/>
<path d="M211 57.0001C211.529 57.0001 211.958 56.5703 211.958 56.0401C211.958 55.5099 211.529 55.0801 211 55.0801C210.471 55.0801 210.042 55.5099 210.042 56.0401C210.042 56.5703 210.471 57.0001 211 57.0001Z" fill="#ECECFE"/>
<path d="M211 207C211.529 207 211.958 206.57 211.958 206.04C211.958 205.51 211.529 205.08 211 205.08C210.471 205.08 210.042 205.51 210.042 206.04C210.042 206.57 210.471 207 211 207Z" fill="#ECECFE"/>
<path d="M431 131C431.529 131 431.958 130.57 431.958 130.04C431.958 129.51 431.529 129.08 431 129.08C430.471 129.08 430.042 129.51 430.042 130.04C430.042 130.57 430.471 131 431 131Z" fill="#ECECFE"/>
<path d="M211 131C211.529 131 211.958 130.57 211.958 130.04C211.958 129.51 211.529 129.08 211 129.08C210.471 129.08 210.042 129.51 210.042 130.04C210.042 130.57 210.471 131 211 131Z" fill="#ECECFE"/>
<path d="M283.042 20.0001C283.571 20.0001 284 19.5703 284 19.0401C284 18.5099 283.571 18.0801 283.042 18.0801C282.513 18.0801 282.084 18.5099 282.084 19.0401C282.084 19.5703 282.513 20.0001 283.042 20.0001Z" fill="#ECECFE"/>
<path d="M283.042 170C283.571 170 284 169.57 284 169.04C284 168.51 283.571 168.08 283.042 168.08C282.513 168.08 282.084 168.51 282.084 169.04C282.084 169.57 282.513 170 283.042 170Z" fill="#ECECFE"/>
<path d="M63.042 20.0001C63.5711 20.0001 64 19.5703 64 19.0401C64 18.5099 63.5711 18.0801 63.042 18.0801C62.5129 18.0801 62.084 18.5099 62.084 19.0401C62.084 19.5703 62.5129 20.0001 63.042 20.0001Z" fill="#ECECFE"/>
<path d="M63.042 170C63.5711 170 64 169.57 64 169.04C64 168.51 63.5711 168.08 63.042 168.08C62.5129 168.08 62.084 168.51 62.084 169.04C62.084 169.57 62.5129 170 63.042 170Z" fill="#ECECFE"/>
<path d="M283.042 94.0001C283.571 94.0001 284 93.5703 284 93.0401C284 92.5099 283.571 92.0801 283.042 92.0801C282.513 92.0801 282.084 92.5099 282.084 93.0401C282.084 93.5703 282.513 94.0001 283.042 94.0001Z" fill="#ECECFE"/>
<path d="M63.042 94.0001C63.5711 94.0001 64 93.5703 64 93.0401C64 92.5099 63.5711 92.0801 63.042 92.0801C62.5129 92.0801 62.084 92.5099 62.084 93.0401C62.084 93.5703 62.5129 94.0001 63.042 94.0001Z" fill="#ECECFE"/>
<path d="M393.042 20.0001C393.571 20.0001 394 19.5703 394 19.0401C394 18.5099 393.571 18.0801 393.042 18.0801C392.513 18.0801 392.084 18.5099 392.084 19.0401C392.084 19.5703 392.513 20.0001 393.042 20.0001Z" fill="#ECECFE"/>
<path d="M393.042 170C393.571 170 394 169.57 394 169.04C394 168.51 393.571 168.08 393.042 168.08C392.513 168.08 392.084 168.51 392.084 169.04C392.084 169.57 392.513 170 393.042 170Z" fill="#ECECFE"/>
<path d="M173.042 20.0001C173.571 20.0001 174 19.5703 174 19.0401C174 18.5099 173.571 18.0801 173.042 18.0801C172.513 18.0801 172.084 18.5099 172.084 19.0401C172.084 19.5703 172.513 20.0001 173.042 20.0001Z" fill="#ECECFE"/>
<path d="M173.042 170C173.571 170 174 169.57 174 169.04C174 168.51 173.571 168.08 173.042 168.08C172.513 168.08 172.084 168.51 172.084 169.04C172.084 169.57 172.513 170 173.042 170Z" fill="#ECECFE"/>
<path d="M393.042 94.0001C393.571 94.0001 394 93.5703 394 93.0401C394 92.5099 393.571 92.0801 393.042 92.0801C392.513 92.0801 392.084 92.5099 392.084 93.0401C392.084 93.5703 392.513 94.0001 393.042 94.0001Z" fill="#ECECFE"/>
<path d="M173.042 94.0001C173.571 94.0001 174 93.5703 174 93.0401C174 92.5099 173.571 92.0801 173.042 92.0801C172.513 92.0801 172.084 92.5099 172.084 93.0401C172.084 93.5703 172.513 94.0001 173.042 94.0001Z" fill="#ECECFE"/>
<path d="M283.042 57.0001C283.571 57.0001 284 56.5703 284 56.0401C284 55.5099 283.571 55.0801 283.042 55.0801C282.513 55.0801 282.084 55.5099 282.084 56.0401C282.084 56.5703 282.513 57.0001 283.042 57.0001Z" fill="#ECECFE"/>
<path d="M283.042 207C283.571 207 284 206.57 284 206.04C284 205.51 283.571 205.08 283.042 205.08C282.513 205.08 282.084 205.51 282.084 206.04C282.084 206.57 282.513 207 283.042 207Z" fill="#ECECFE"/>
<path d="M63.042 57.0001C63.5711 57.0001 64 56.5703 64 56.0401C64 55.5099 63.5711 55.0801 63.042 55.0801C62.5129 55.0801 62.084 55.5099 62.084 56.0401C62.084 56.5703 62.5129 57.0001 63.042 57.0001Z" fill="#ECECFE"/>
<path d="M63.042 207C63.5711 207 64 206.57 64 206.04C64 205.51 63.5711 205.08 63.042 205.08C62.5129 205.08 62.084 205.51 62.084 206.04C62.084 206.57 62.5129 207 63.042 207Z" fill="#ECECFE"/>
<path d="M283.042 131C283.571 131 284 130.57 284 130.04C284 129.51 283.571 129.08 283.042 129.08C282.513 129.08 282.084 129.51 282.084 130.04C282.084 130.57 282.513 131 283.042 131Z" fill="#ECECFE"/>
<path d="M63.042 131C63.5711 131 64 130.57 64 130.04C64 129.51 63.5711 129.08 63.042 129.08C62.5129 129.08 62.084 129.51 62.084 130.04C62.084 130.57 62.5129 131 63.042 131Z" fill="#ECECFE"/>
<path d="M393.042 57.0001C393.571 57.0001 394 56.5703 394 56.0401C394 55.5099 393.571 55.0801 393.042 55.0801C392.513 55.0801 392.084 55.5099 392.084 56.0401C392.084 56.5703 392.513 57.0001 393.042 57.0001Z" fill="#ECECFE"/>
<path d="M393.042 207C393.571 207 394 206.57 394 206.04C394 205.51 393.571 205.08 393.042 205.08C392.513 205.08 392.084 205.51 392.084 206.04C392.084 206.57 392.513 207 393.042 207Z" fill="#ECECFE"/>
<path d="M173.042 57.0001C173.571 57.0001 174 56.5703 174 56.0401C174 55.5099 173.571 55.0801 173.042 55.0801C172.513 55.0801 172.084 55.5099 172.084 56.0401C172.084 56.5703 172.513 57.0001 173.042 57.0001Z" fill="#ECECFE"/>
<path d="M173.042 207C173.571 207 174 206.57 174 206.04C174 205.51 173.571 205.08 173.042 205.08C172.513 205.08 172.084 205.51 172.084 206.04C172.084 206.57 172.513 207 173.042 207Z" fill="#ECECFE"/>
<path d="M393.042 131C393.571 131 394 130.57 394 130.04C394 129.51 393.571 129.08 393.042 129.08C392.513 129.08 392.084 129.51 392.084 130.04C392.084 130.57 392.513 131 393.042 131Z" fill="#ECECFE"/>
<path d="M173.042 131C173.571 131 174 130.57 174 130.04C174 129.51 173.571 129.08 173.042 129.08C172.513 129.08 172.084 129.51 172.084 130.04C172.084 130.57 172.513 131 173.042 131Z" fill="#ECECFE"/>
<path d="M339.042 20.0001C339.571 20.0001 340 19.5703 340 19.0401C340 18.5099 339.571 18.0801 339.042 18.0801C338.513 18.0801 338.084 18.5099 338.084 19.0401C338.084 19.5703 338.513 20.0001 339.042 20.0001Z" fill="#ECECFE"/>
<path d="M339.042 170C339.571 170 340 169.57 340 169.04C340 168.51 339.571 168.08 339.042 168.08C338.513 168.08 338.084 168.51 338.084 169.04C338.084 169.57 338.513 170 339.042 170Z" fill="#ECECFE"/>
<path d="M119.042 20.0001C119.571 20.0001 120 19.5703 120 19.0401C120 18.5099 119.571 18.0801 119.042 18.0801C118.513 18.0801 118.084 18.5099 118.084 19.0401C118.084 19.5703 118.513 20.0001 119.042 20.0001Z" fill="#ECECFE"/>
<path d="M119.042 170C119.571 170 120 169.57 120 169.04C120 168.51 119.571 168.08 119.042 168.08C118.513 168.08 118.084 168.51 118.084 169.04C118.084 169.57 118.513 170 119.042 170Z" fill="#ECECFE"/>
<path d="M339.042 94.0001C339.571 94.0001 340 93.5703 340 93.0401C340 92.5099 339.571 92.0801 339.042 92.0801C338.513 92.0801 338.084 92.5099 338.084 93.0401C338.084 93.5703 338.513 94.0001 339.042 94.0001Z" fill="#ECECFE"/>
<path d="M119.042 94.0001C119.571 94.0001 120 93.5703 120 93.0401C120 92.5099 119.571 92.0801 119.042 92.0801C118.513 92.0801 118.084 92.5099 118.084 93.0401C118.084 93.5703 118.513 94.0001 119.042 94.0001Z" fill="#ECECFE"/>
<path d="M9.04199 20.0001C9.57108 20.0001 9.99998 19.5703 9.99998 19.0401C9.99998 18.5099 9.57108 18.0801 9.04199 18.0801C8.5129 18.0801 8.08398 18.5099 8.08398 19.0401C8.08398 19.5703 8.5129 20.0001 9.04199 20.0001Z" fill="#ECECFE"/>
<path d="M449.042 20.0001C449.571 20.0001 450 19.5703 450 19.0401C450 18.5099 449.571 18.0801 449.042 18.0801C448.513 18.0801 448.084 18.5099 448.084 19.0401C448.084 19.5703 448.513 20.0001 449.042 20.0001Z" fill="#ECECFE"/>
<path d="M9.04199 170C9.57108 170 9.99998 169.57 9.99998 169.04C9.99998 168.51 9.57108 168.08 9.04199 168.08C8.5129 168.08 8.08398 168.51 8.08398 169.04C8.08398 169.57 8.5129 170 9.04199 170Z" fill="#ECECFE"/>
<path d="M449.042 170C449.571 170 450 169.57 450 169.04C450 168.51 449.571 168.08 449.042 168.08C448.513 168.08 448.084 168.51 448.084 169.04C448.084 169.57 448.513 170 449.042 170Z" fill="#ECECFE"/>
<path d="M229.042 20.0001C229.571 20.0001 230 19.5703 230 19.0401C230 18.5099 229.571 18.0801 229.042 18.0801C228.513 18.0801 228.084 18.5099 228.084 19.0401C228.084 19.5703 228.513 20.0001 229.042 20.0001Z" fill="#ECECFE"/>
<path d="M229.042 170C229.571 170 230 169.57 230 169.04C230 168.51 229.571 168.08 229.042 168.08C228.513 168.08 228.084 168.51 228.084 169.04C228.084 169.57 228.513 170 229.042 170Z" fill="#ECECFE"/>
<path d="M9.04199 94.0001C9.57108 94.0001 9.99998 93.5703 9.99998 93.0401C9.99998 92.5099 9.57108 92.0801 9.04199 92.0801C8.5129 92.0801 8.08398 92.5099 8.08398 93.0401C8.08398 93.5703 8.5129 94.0001 9.04199 94.0001Z" fill="#ECECFE"/>
<path d="M449.042 94.0001C449.571 94.0001 450 93.5703 450 93.0401C450 92.5099 449.571 92.0801 449.042 92.0801C448.513 92.0801 448.084 92.5099 448.084 93.0401C448.084 93.5703 448.513 94.0001 449.042 94.0001Z" fill="#ECECFE"/>
<path d="M229.042 94.0001C229.571 94.0001 230 93.5703 230 93.0401C230 92.5099 229.571 92.0801 229.042 92.0801C228.513 92.0801 228.084 92.5099 228.084 93.0401C228.084 93.5703 228.513 94.0001 229.042 94.0001Z" fill="#ECECFE"/>
<path d="M339.042 57.0001C339.571 57.0001 340 56.5703 340 56.0401C340 55.5099 339.571 55.0801 339.042 55.0801C338.513 55.0801 338.084 55.5099 338.084 56.0401C338.084 56.5703 338.513 57.0001 339.042 57.0001Z" fill="#ECECFE"/>
<path d="M339.042 207C339.571 207 340 206.57 340 206.04C340 205.51 339.571 205.08 339.042 205.08C338.513 205.08 338.084 205.51 338.084 206.04C338.084 206.57 338.513 207 339.042 207Z" fill="#ECECFE"/>
<path d="M119.042 57.0001C119.571 57.0001 120 56.5703 120 56.0401C120 55.5099 119.571 55.0801 119.042 55.0801C118.513 55.0801 118.084 55.5099 118.084 56.0401C118.084 56.5703 118.513 57.0001 119.042 57.0001Z" fill="#ECECFE"/>
<path d="M119.042 207C119.571 207 120 206.57 120 206.04C120 205.51 119.571 205.08 119.042 205.08C118.513 205.08 118.084 205.51 118.084 206.04C118.084 206.57 118.513 207 119.042 207Z" fill="#ECECFE"/>
<path d="M339.042 131C339.571 131 340 130.57 340 130.04C340 129.51 339.571 129.08 339.042 129.08C338.513 129.08 338.084 129.51 338.084 130.04C338.084 130.57 338.513 131 339.042 131Z" fill="#ECECFE"/>
<path d="M119.042 131C119.571 131 120 130.57 120 130.04C120 129.51 119.571 129.08 119.042 129.08C118.513 129.08 118.084 129.51 118.084 130.04C118.084 130.57 118.513 131 119.042 131Z" fill="#ECECFE"/>
<path d="M9.04199 57.0001C9.57108 57.0001 9.99998 56.5703 9.99998 56.0401C9.99998 55.5099 9.57108 55.0801 9.04199 55.0801C8.5129 55.0801 8.08398 55.5099 8.08398 56.0401C8.08398 56.5703 8.5129 57.0001 9.04199 57.0001Z" fill="#ECECFE"/>
<path d="M449.042 57.0001C449.571 57.0001 450 56.5703 450 56.0401C450 55.5099 449.571 55.0801 449.042 55.0801C448.513 55.0801 448.084 55.5099 448.084 56.0401C448.084 56.5703 448.513 57.0001 449.042 57.0001Z" fill="#ECECFE"/>
<path d="M9.04199 207C9.57108 207 9.99998 206.57 9.99998 206.04C9.99998 205.51 9.57108 205.08 9.04199 205.08C8.5129 205.08 8.08398 205.51 8.08398 206.04C8.08398 206.57 8.5129 207 9.04199 207Z" fill="#ECECFE"/>
<path d="M449.042 207C449.571 207 450 206.57 450 206.04C450 205.51 449.571 205.08 449.042 205.08C448.513 205.08 448.084 205.51 448.084 206.04C448.084 206.57 448.513 207 449.042 207Z" fill="#ECECFE"/>
<path d="M229.042 57.0001C229.571 57.0001 230 56.5703 230 56.0401C230 55.5099 229.571 55.0801 229.042 55.0801C228.513 55.0801 228.084 55.5099 228.084 56.0401C228.084 56.5703 228.513 57.0001 229.042 57.0001Z" fill="#ECECFE"/>
<path d="M229.042 207C229.571 207 230 206.57 230 206.04C230 205.51 229.571 205.08 229.042 205.08C228.513 205.08 228.084 205.51 228.084 206.04C228.084 206.57 228.513 207 229.042 207Z" fill="#ECECFE"/>
<path d="M9.04199 131C9.57108 131 9.99998 130.57 9.99998 130.04C9.99998 129.51 9.57108 129.08 9.04199 129.08C8.5129 129.08 8.08398 129.51 8.08398 130.04C8.08398 130.57 8.5129 131 9.04199 131Z" fill="#ECECFE"/>
<path d="M449.042 131C449.571 131 450 130.57 450 130.04C450 129.51 449.571 129.08 449.042 129.08C448.513 129.08 448.084 129.51 448.084 130.04C448.084 130.57 448.513 131 449.042 131Z" fill="#ECECFE"/>
<path d="M229.042 131C229.571 131 230 130.57 230 130.04C230 129.51 229.571 129.08 229.042 129.08C228.513 129.08 228.084 129.51 228.084 130.04C228.084 130.57 228.513 131 229.042 131Z" fill="#ECECFE"/>
</g>
<defs>
<clipPath id="clip0_15_3340">
<rect width="644" height="226" fill="white" transform="translate(-194)"/>
</clipPath>
</defs>
</svg>
