<?xml version="1.0" encoding="UTF-8" standalone="no"?>
<!DOCTYPE svg PUBLIC "-//W3C//DTD SVG 1.1//EN" "http://www.w3.org/Graphics/SVG/1.1/DTD/svg11.dtd">
<svg width="100%" height="100%" viewBox="0 0 403 244" version="1.1" xmlns="http://www.w3.org/2000/svg" xmlns:xlink="http://www.w3.org/1999/xlink" xml:space="preserve" xmlns:serif="http://www.serif.com/" style="fill-rule:evenodd;clip-rule:evenodd;stroke-linejoin:round;stroke-miterlimit:2;">
    <g transform="matrix(1,0,0,1,-171.598,-178.43)">
        <g transform="matrix(0.560938,0,0,0.560938,269.538,180.177)">
            <path d="M170.551,430.337L170.551,423.485C174.262,423.485 178.544,423.271 183.398,422.843C188.251,422.415 193.746,421.844 199.884,421.13C206.022,420.417 210.733,418.275 214.016,414.707C217.299,411.138 219.369,404.786 220.225,395.651L221.081,375.952L221.081,226.455L339.691,119.087C373.092,119.087 393.87,120.445 423.418,126.725C452.966,133.006 480.229,148.993 505.209,174.686C530.189,200.38 542.679,236.636 542.679,283.456C542.679,328.277 531.474,361.321 509.063,382.59C486.653,403.858 462.957,417.133 437.978,422.415C412.998,427.696 383.95,430.337 350.834,430.337L170.551,430.337ZM371.817,130.579C367.82,128.866 361.611,127.724 353.189,127.153C344.767,126.582 341.124,126.297 335.129,126.297L321.077,138.776L326.425,422.201C328.423,422.201 330.279,422.272 331.992,422.415C333.705,422.558 335.846,422.629 338.415,422.629C349.264,422.629 359.184,421.915 368.177,420.488C377.17,419.06 385.591,415.421 393.442,409.568C401.293,403.716 408.858,388.157 416.138,362.892C423.418,337.626 427.058,311.719 427.058,285.169C427.058,248.056 422.562,214.868 413.569,185.606C404.576,156.344 390.659,138.002 371.817,130.579Z" style="fill-rule:nonzero;"/>
        </g>
        <g transform="matrix(0.560938,0,0,0.560938,85.0579,112.149)">
            <path d="M408.644,198.667L391.087,153.275C387.09,144.996 383.736,138.858 381.024,134.862C378.312,130.865 372.531,128.153 363.681,126.725L350.406,125.012L350.406,118.161L538.825,118.161L538.825,125.012L532.83,125.012C530.831,125.012 527.12,125.512 521.696,126.511C516.272,127.51 511.704,128.724 507.993,130.151C504.281,131.578 502.426,135.861 502.426,142.998C502.426,149.564 504.353,158.699 508.207,170.404C512.061,182.109 516.557,195.17 521.696,209.587C526.834,224.004 533.543,242.632 541.822,265.47C550.101,288.309 556.097,304.867 559.808,315.144C563.519,305.438 568.015,293.733 573.297,280.03C578.578,266.327 585.858,246.985 595.136,222.005C604.415,197.026 610.481,179.897 613.336,170.618C616.191,161.34 617.618,153.275 617.618,146.424C617.618,139.857 615.905,135.147 612.48,132.292C609.054,129.437 604.914,127.653 600.061,126.939C595.208,126.226 590.64,125.797 586.358,125.655C582.076,125.512 578.079,125.298 574.367,125.012L574.367,118.161L684.85,118.161L684.85,125.012L665.994,127.153C656.85,128.581 649.706,131.15 644.563,134.862C639.42,138.573 634.848,145.139 630.846,154.56L617.993,187.533L554.803,344.696L486.646,405.309L413.99,211.086L332.132,432.05L297.848,432.05L210.423,186.677L197.134,153.275C192.848,144.14 188.919,137.645 185.348,133.791C181.777,129.937 176.421,127.582 169.28,126.725L154.278,125.012L154.278,118.161L339.272,118.161L339.272,125.012L325.568,126.297C319.002,127.153 314.363,128.509 311.651,130.365C308.939,132.221 307.583,135.718 307.583,140.857C307.583,147.137 309.938,157.201 314.649,171.047C319.359,184.893 325.283,201.665 332.42,221.363C339.557,241.061 345.981,258.476 351.69,273.607C357.4,288.737 362.11,301.298 365.822,311.29L408.644,198.667Z" style="fill-rule:nonzero;"/>
        </g>
    </g>
</svg>
