<svg width="24" height="24" viewBox="0 0 24 24" fill="none" xmlns="http://www.w3.org/2000/svg">
<path d="M23.5446 16.5139L12.5759 23.8264C12.2015 24.0568 11.8019 24.0589 11.4241 23.8264L0.455344 16.5139C0.174094 16.3265 0 15.9916 0 15.6568V8.34435C0 8.00952 0.174094 7.6747 0.455391 7.4872L11.4241 0.173666C11.7985 -0.0567251 12.1981 -0.0588345 12.5759 0.173666L23.5447 7.4872C23.8259 7.67465 24 8.00952 24 8.34435V15.6568C24 15.9916 23.8259 16.3265 23.5446 16.5139ZM13.0312 21.0408L21.1072 15.6568L17.5045 13.2461L13.0312 16.2327V21.0408ZM10.9688 21.0408V16.2327L6.49552 13.2461L2.89284 15.6568L10.9688 21.0408ZM2.0625 13.7282L4.64733 12.0006L2.0625 10.2729V13.7282ZM10.9688 2.96034L2.89284 8.34431L6.49552 10.755L10.9688 7.7684V2.96034ZM12 9.56306L8.35711 12.0006L12 14.4381L15.6429 12.0006L12 9.56306ZM13.0312 2.96034V7.7684L17.5045 10.755L21.1072 8.34431L13.0312 2.96034ZM21.9375 10.2729L19.3527 12.0006L21.9375 13.7282V10.2729Z" fill="#ECECFE"/>
</svg>
