<svg width="24" height="25" viewBox="0 0 24 25" fill="none" xmlns="http://www.w3.org/2000/svg">
<path d="M18.9308 5.81788C17.6561 5.23298 16.2892 4.80205 14.8599 4.55523C14.8339 4.55047 14.8079 4.56238 14.7945 4.58618C14.6187 4.89886 14.4239 5.30678 14.2876 5.6274C12.7503 5.39726 11.221 5.39726 9.71527 5.6274C9.57887 5.29965 9.37707 4.89886 9.20048 4.58618C9.18707 4.56317 9.16107 4.55127 9.13504 4.55523C7.70659 4.80126 6.33963 5.23219 5.06411 5.81788C5.05307 5.82264 5.04361 5.83058 5.03732 5.84089C2.44449 9.71452 1.73421 13.4929 2.08265 17.2245C2.08423 17.2428 2.09447 17.2602 2.10867 17.2713C3.81934 18.5276 5.47642 19.2903 7.10273 19.7958C7.12876 19.8038 7.15634 19.7942 7.1729 19.7728C7.55761 19.2475 7.90054 18.6935 8.19456 18.111C8.21192 18.0769 8.19535 18.0364 8.15989 18.0229C7.61594 17.8166 7.098 17.565 6.59978 17.2793C6.56037 17.2563 6.55721 17.1999 6.59347 17.1729C6.69831 17.0944 6.80318 17.0126 6.9033 16.9301C6.92141 16.915 6.94665 16.9118 6.96794 16.9213C10.2411 18.4157 13.7846 18.4157 17.0191 16.9213C17.0404 16.911 17.0657 16.9142 17.0846 16.9293C17.1847 17.0118 17.2896 17.0944 17.3952 17.1729C17.4314 17.1999 17.4291 17.2563 17.3897 17.2793C16.8914 17.5705 16.3735 17.8166 15.8288 18.0221C15.7933 18.0356 15.7775 18.0769 15.7949 18.111C16.0952 18.6927 16.4381 19.2466 16.8157 19.772C16.8315 19.7942 16.8599 19.8038 16.8859 19.7958C18.5201 19.2903 20.1772 18.5276 21.8879 17.2713C21.9028 17.2602 21.9123 17.2436 21.9139 17.2253C22.3309 12.9112 21.2154 9.16376 18.9568 5.84168C18.9513 5.83058 18.9419 5.82264 18.9308 5.81788ZM8.68335 14.9524C7.69792 14.9524 6.88594 14.0477 6.88594 12.9366C6.88594 11.8255 7.68217 10.9208 8.68335 10.9208C9.69239 10.9208 10.4965 11.8335 10.4807 12.9366C10.4807 14.0477 9.68451 14.9524 8.68335 14.9524ZM15.329 14.9524C14.3435 14.9524 13.5316 14.0477 13.5316 12.9366C13.5316 11.8255 14.3278 10.9208 15.329 10.9208C16.338 10.9208 17.1421 11.8335 17.1264 12.9366C17.1264 14.0477 16.338 14.9524 15.329 14.9524Z" fill="#ECECFE"/>
</svg>
