<svg width="24" height="22" viewBox="0 0 24 22" fill="none" xmlns="http://www.w3.org/2000/svg">
<path d="M3.12898 0.131204C2.08211 0.740874 0.0195622 3.06491 0 3.67438V4.68324C0 5.96206 1.21873 7.08604 2.32527 7.08604C3.65393 7.08604 4.76096 6.006 4.76106 4.72411C4.76106 6.006 5.83013 7.08604 7.1589 7.08604C8.48776 7.08604 9.52251 6.006 9.52251 4.72411C9.52251 6.006 10.6593 7.08604 11.988 7.08604H12.0121C13.341 7.08604 14.4777 6.006 14.4777 4.72411C14.4777 6.006 15.5126 7.08604 16.8412 7.08604C18.17 7.08604 19.2391 6.006 19.2391 4.72411C19.2391 6.006 20.3463 7.08604 21.6749 7.08604C22.7814 7.08604 24.0001 5.96225 24.0001 4.68324V3.67438C23.9806 3.06481 21.918 0.740682 20.8713 0.131204C17.6176 0.019152 15.3618 -0.000226971 12 0.000252706C8.63819 0.000540512 4.05496 0.0520578 3.12878 0.131204H3.12898ZM9.50568 6.48376C9.37863 6.70098 9.22127 6.89973 9.03814 7.07424C8.53657 7.55526 7.84905 7.85343 7.09112 7.85343C6.36177 7.8541 5.66124 7.5742 5.13998 7.07385C4.95824 6.89925 4.82014 6.71256 4.69367 6.49517L4.69308 6.49556C4.56671 6.71333 4.39065 6.89992 4.20852 7.07472C3.68706 7.5747 2.98661 7.85435 2.25738 7.85371C2.16603 7.85371 2.07096 7.82896 1.99408 7.80306C1.88727 8.89404 1.84218 9.93666 1.82623 10.6969L1.82604 10.7012C1.82408 11.0872 1.82212 11.4047 1.82017 11.8457C1.84071 14.1347 1.58904 19.2647 2.84914 20.5252C4.80184 20.9718 8.39504 21.1752 11.9999 21.1764H12.0005C15.6052 21.1752 19.1984 20.9718 21.1511 20.5252C22.4112 19.2646 22.1595 14.1346 22.1801 11.8456C22.1779 11.4047 22.1761 11.0872 22.1742 10.7011L22.1739 10.6968C22.158 9.93637 22.113 8.89384 22.0061 7.80287C21.9293 7.82877 21.8343 7.85352 21.7428 7.85352C21.0136 7.85416 20.3132 7.5745 19.7917 7.07453C19.6096 6.89973 19.4335 6.71323 19.307 6.49536L19.3065 6.49498C19.1799 6.71237 19.0419 6.89916 18.8601 7.07366C18.3389 7.57397 17.6384 7.85383 16.9091 7.85314C16.1513 7.85314 15.4637 7.55478 14.9621 7.07385C14.779 6.89934 14.6216 6.7006 14.4945 6.48337C14.3689 6.70036 14.2129 6.8991 14.0313 7.07385C13.5099 7.57411 12.8093 7.85392 12.08 7.85323C12.0536 7.85323 12.0272 7.85208 12.0007 7.85131H12.0001C11.9737 7.85208 11.9472 7.85323 11.9205 7.85323C11.1912 7.85395 10.4906 7.57417 9.96921 7.07395C9.78757 6.89919 9.63166 6.70045 9.50598 6.48347L9.50568 6.48376ZM7.50192 9.02508L7.50173 9.02604H7.50319C8.29674 9.02767 9.00166 9.02604 9.87511 9.96103C10.5625 9.89032 11.2809 9.85502 11.9998 9.85608H12.0004C12.7193 9.85512 13.4376 9.89032 14.1251 9.96103C14.9986 9.02595 15.7035 9.02758 16.497 9.02604H16.4984L16.4982 9.02508C16.8731 9.02508 18.3729 9.02508 19.4179 11.9038L20.5403 15.853C21.3721 18.7909 20.274 18.8628 18.9043 18.8654C16.8729 18.7912 15.7482 17.3443 15.7482 15.8976C14.6237 16.0783 13.312 16.1687 12.0003 16.1688H11.9997C10.6878 16.1688 9.37608 16.0783 8.25174 15.8976C8.25174 17.3443 7.12691 18.7912 5.09567 18.8654C3.72592 18.8628 2.62789 18.791 3.45968 15.853L4.58245 11.9039C5.62747 9.02518 7.12721 9.02518 7.50212 9.02518L7.50192 9.02508ZM11.9998 11.2874V11.288C11.9978 11.2899 9.86132 13.2144 9.47722 13.8989L10.8763 13.8439V15.0406C10.8763 15.0966 11.4377 15.0738 11.9998 15.0483H12.0004C12.5622 15.0738 13.1237 15.0966 13.1237 15.0406V13.8439L14.5228 13.8989C14.1386 13.2144 12.0003 11.288 12.0003 11.288V11.2874L12 11.2876L11.9998 11.2874Z" fill="white"/>
<defs>
<clipPath id="clip0_37_1029">
<rect width="24" height="21.1765" fill="white"/>
</clipPath>
</defs>
</svg>
