<svg width="24" height="25" viewBox="0 0 24 25" fill="none" xmlns="http://www.w3.org/2000/svg">
<path d="M19.9525 8.09649C19.9647 8.27281 19.9647 8.44913 19.9647 8.62707C19.9647 14.049 15.8371 20.3021 8.28966 20.3021V20.2988C6.06013 20.3021 3.8769 19.6634 2 18.4593C2.32419 18.4983 2.65001 18.5178 2.97664 18.5186C4.82429 18.5202 6.61913 17.9003 8.07272 16.7587C6.31688 16.7254 4.77717 15.5805 4.23928 13.9092C4.85436 14.0278 5.48812 14.0035 6.09181 13.8385C4.17753 13.4518 2.80033 11.7699 2.80033 9.81658C2.80033 9.79871 2.80033 9.78165 2.80033 9.76458C3.37071 10.0823 4.00934 10.2586 4.6626 10.2781C2.85964 9.07314 2.30388 6.6746 3.39265 4.79932C5.47593 7.3628 8.54967 8.9212 11.8493 9.08614C11.5186 7.66099 11.9703 6.16759 13.0364 5.16576C14.689 3.61224 17.2882 3.69186 18.8418 5.3437C19.7607 5.16251 20.6415 4.82532 21.4475 4.34756C21.1412 5.29739 20.5001 6.10421 19.6437 6.61691C20.457 6.52103 21.2517 6.30328 22 5.97096C21.4491 6.79647 20.7552 7.51555 19.9525 8.09649Z" fill="#ECECFE"/>
</svg>
